<svg xmlns="http://www.w3.org/2000/svg" viewBox="0 0 345 253.82"><g id="Layer_2" data-name="Layer 2"><g id="Layer_1-2" data-name="Layer 1"><path d="M56.38,225.42A10.48,10.48,0,0,0,52.12,221a12.8,12.8,0,0,0-6.29-1.5,13.75,13.75,0,0,0-7,1.76,12.26,12.26,0,0,0-4.79,5,15.61,15.61,0,0,0-1.73,7.48,15.82,15.82,0,0,0,1.73,7.51,12.28,12.28,0,0,0,4.79,5,13.75,13.75,0,0,0,7,1.75A12.35,12.35,0,0,0,54.39,245a12.88,12.88,0,0,0,4-8H43.62v-5.15H65.33v5a19.45,19.45,0,0,1-19.5,16.89,20.37,20.37,0,0,1-10.15-2.58,19.2,19.2,0,0,1-7.28-7.17,21.35,21.35,0,0,1,0-20.75,19.14,19.14,0,0,1,7.31-7.17,20.4,20.4,0,0,1,10.12-2.58A20.56,20.56,0,0,1,57,216.66a17.56,17.56,0,0,1,7.11,8.76Z"/><path d="M115.39,245.43H98.89l-2.83,8H89.31L103.43,214h7.48L125,253.48h-6.81Zm-1.82-5.27-6.4-18.31-6.46,18.31Z"/><path d="M157.56,248.27h13.33v5.21H151.1v-39.4h6.46Z"/><path d="M220,245.43h-16.5l-2.83,8H193.9L208,214h7.48l14.12,39.45h-6.81Zm-1.82-5.27-6.4-18.31-6.46,18.31Z"/><path d="M273.78,233.81,286,253.48h-7.26l-8.9-14.28-8.33,14.28h-7.2l12.25-19.67-12.31-19.73h7.26l9,14.4,8.39-14.4h7.2Z"/><path d="M342.25,214.08l-13,25.12v14.28h-6.47V239.2l-13.09-25.12h7.2L326,233.42l9.12-19.34Z"/><path d="M0,40.17,17.21,0H70V187.92H25V40.17Z"/><path d="M159.52.25q-36.51.39-53.06,25-16.81,25-16.8,68.47,0,44,16.8,69t54.19,25H161l60-95.23ZM179,140.32q-6.18,6.94-18.31,7t-18.32-7q-6.2-6.94-8.21-18.19t-2-28.42q0-25.51,5.56-39.29t23-13.77q17.43,0,23,13.77t5.56,39.29a165.89,165.89,0,0,1-2,28.42Q185.16,133.38,179,140.32Z"/><path d="M291.86,187.69l-38.19-57.41L220,187.69H168.22l60.09-95.33L166.89.23H220l37.65,56.61L290.79.23H342.6L283.05,94.76,345,187.69Z"/></g></g></svg>