<svg xmlns="http://www.w3.org/2000/svg" viewBox="0 0 736.94 86.32"><defs><style>.cls-1{fill:#fff;}</style></defs><g id="Layer_2" data-name="Layer 2"><g id="Layer_1-2" data-name="Layer 1"><path class="cls-1" d="M33.73,2.05V84.28H14.05V19.63H3.11L10.64,2.05H33.73m2.05-2H9.29L8.75,1.24,1.22,18.82,0,21.67H12V86.32H35.78V0Z"/><path class="cls-1" d="M72.9,2.16,99.8,42.5,73.54,84.17H73.4Q57,84.17,49.69,73.23T42.34,43.05q0-19,7.35-30Q56.92,2.32,72.9,2.16m.5,64.33q5.31,0,8-3a15.9,15.9,0,0,0,3.6-8,72.34,72.34,0,0,0,.88-12.44q0-11.16-2.43-17.19t-10.06-6q-7.62,0-10.06,6T60.91,43.05a72.34,72.34,0,0,0,.88,12.44,15.9,15.9,0,0,0,3.6,8q2.7,3,8,3M74,.1H72.88C61.56.23,53.19,4.21,48,12s-7.7,18.07-7.7,31.1S42.88,66.77,48,74.37c5.28,7.87,13.83,11.85,25.41,11.85h.14l1.08,0,.65-.93,26.26-41.67.71-1.12-.74-1.1L74.61,1,74,.1ZM73.4,64.44c-3,0-5.07-.77-6.48-2.35a14,14,0,0,1-3.11-7A70.12,70.12,0,0,1,63,43.05c0-7.14.77-12.67,2.28-16.42,1.31-3.24,3.9-4.74,8.16-4.74s6.85,1.5,8.16,4.74c1.52,3.76,2.28,9.28,2.28,16.42A70.28,70.28,0,0,1,83,55.13a14.08,14.08,0,0,1-3.1,7c-1.42,1.58-3.54,2.35-6.49,2.35Z"/><path class="cls-1" d="M153,2.15,127,43.51l27.11,40.66H130.81l-16.7-25.12L99.38,84.17H76.71L103,42.46,76.13,2.15H99.38l16.48,24.77L130.35,2.15H153m3.72-2H129.17l-.59,1L115.75,23.05,101.09,1,100.48.1H72.3l2.13,3.19,26.13,39.2L75,83.08l-2,3.14h27.56l.59-1,13.07-22.29,14.89,22.39.61.91h28.17L155.77,83,129.4,43.48,154.75,3.24l2-3.14Z"/><path class="cls-1" d="M325.57,8.77l37.82,75.51H343.7l-6.8-13.6H300.08l7.35-15.08h21.91l-15.5-30.95L284,84.28H265.35L303.17,8.77h22.4m1.27-2H301.9l-.57,1.13L263.52,83.36l-1.49,3h23.22l.56-1.13,28-56L326,53.56H306.15l-.56,1.15-7.36,15.07-1.43,3h38.83l6.24,12.46.57,1.13h24.27l-1.49-3L327.4,7.85l-.56-1.13Z"/><path class="cls-1" d="M501.93,8.77l37.81,75.51H520.06l-6.81-13.6H476.43l7.35-15.08H505.7L490.2,24.65,460.34,84.28H441.7L479.52,8.77h22.41m1.26-2H478.26l-.57,1.13L439.87,83.36l-1.48,3H461.6l.57-1.13,28-56,12.18,24.33H482.5l-.56,1.15-7.35,15.07-1.44,3H512l6.24,12.46.56,1.13h24.27l-1.48-3L503.76,7.85l-.57-1.13Z"/><path class="cls-1" d="M635,8.77l-32.6,36.57,34.7,38.94H615.35l-23.8-26.71L567.74,84.28H546l34.69-38.94L548.06,8.77h21.78l21.71,24.35,21.7-24.35H635m4.56-2H612.33l-.61.68L591.55,30,571.37,7.4l-.61-.68H543.49l3,3.41,31.38,35.21L544.43,82.91l-3,3.41h27.27l.61-.68,22.28-25,22.27,25,.61.68H641.7l-3-3.41L605.18,45.34l31.38-35.21,3-3.41Z"/><path class="cls-1" d="M262.18,8.77v16.8H211.39a8.53,8.53,0,0,0-8.53,8.53V58.94a8.53,8.53,0,0,0,8.53,8.53h31.08a4.27,4.27,0,0,0,4.26-4.27V55.11H225.6V40h38.93V66.91a17.37,17.37,0,0,1-17.37,17.37H206a21,21,0,0,1-20.95-21V29.71A20.94,20.94,0,0,1,206,8.77h56.17m2.05-2H206a23,23,0,0,0-23,23V63.33a23,23,0,0,0,23,23h41.15a19.43,19.43,0,0,0,19.42-19.41V38h-43V57.16h21.13v6a2.21,2.21,0,0,1-2.21,2.22H211.39a6.48,6.48,0,0,1-6.48-6.48V34.1a6.48,6.48,0,0,1,6.48-6.48h52.84V6.72Z"/><path class="cls-1" d="M387.48,8.77v58.7h48.57V84.28H369.68V8.77h17.8m2-2H367.64v79.6H438.1V65.42H389.53V6.72Z"/><path class="cls-1" d="M732.91,8.77,695.55,59.86V84.28h-17.8V59.86L640.39,8.77h21.79l24.47,33.46L711.12,8.77h21.79m4-2H710.08l-.61.84-22.82,31.2L663.83,7.56l-.61-.84H636.35L638.74,10l37,50.56V86.32h21.89V60.53l37-50.56,2.38-3.25Z"/></g></g></svg>