<svg xmlns="http://www.w3.org/2000/svg" xmlns:xlink="http://www.w3.org/1999/xlink" viewBox="0 0 443.82 259.32"><defs><style>.cls-1{fill:url(#linear-gradient);}.cls-2{fill:url(#linear-gradient-2);}.cls-3{fill:url(#linear-gradient-3);}.cls-4{fill:url(#linear-gradient-4);}.cls-5{fill:url(#linear-gradient-5);}.cls-6{fill:url(#linear-gradient-6);}</style><linearGradient id="linear-gradient" x1="191.1" y1="-72.63" x2="371.81" y2="121.49" gradientUnits="userSpaceOnUse"><stop offset="0" stop-color="#22d2e0"/><stop offset="1" stop-color="#85249f"/></linearGradient><linearGradient id="linear-gradient-2" x1="31.55" y1="75.9" x2="212.26" y2="270.01" xlink:href="#linear-gradient"/><linearGradient id="linear-gradient-3" x1="189.07" y1="-70.74" x2="369.78" y2="123.38" xlink:href="#linear-gradient"/><linearGradient id="linear-gradient-4" x1="193.14" y1="-74.52" x2="373.84" y2="119.6" xlink:href="#linear-gradient"/><linearGradient id="linear-gradient-5" x1="100.77" y1="11.46" x2="281.48" y2="205.58" xlink:href="#linear-gradient"/><linearGradient id="linear-gradient-6" x1="104.26" y1="15.2" x2="276.64" y2="200.38" xlink:href="#linear-gradient"/></defs><g id="Layer_2" data-name="Layer 2"><g id="Layer_1-2" data-name="Layer 1"><polygon points="161.27 259.32 134.04 204.95 131.33 204.95 119.87 204.95 117.91 204.95 90.68 259.32 104.1 259.32 125.6 216.39 136.76 238.67 120.98 238.67 115.69 249.53 142.2 249.53 147.1 259.32 161.27 259.32"/><polygon points="297.56 259.32 270.33 204.95 267.61 204.95 256.15 204.95 254.19 204.95 226.97 259.32 240.38 259.32 261.88 216.39 273.05 238.67 257.26 238.67 251.97 249.53 278.48 249.53 283.38 259.32 297.56 259.32"/><polygon points="368.78 259.32 343.8 231.28 367.27 204.95 351.58 204.95 335.95 222.48 320.33 204.95 304.64 204.95 328.11 231.28 303.13 259.32 318.81 259.32 335.95 240.09 353.1 259.32 368.78 259.32"/><path d="M53.3,227.46v10.86H68.52v5.83a3.07,3.07,0,0,1-3.07,3.07H43.07a6.14,6.14,0,0,1-6.14-6.14V223.19a6.14,6.14,0,0,1,6.14-6.14H79.64V205H39.2A15.08,15.08,0,0,0,24.12,220v24.2A15.08,15.08,0,0,0,39.2,259.32H68.83a12.51,12.51,0,0,0,12.51-12.5V227.46Z"/><polygon points="185.19 247.22 185.19 204.95 172.37 204.95 172.37 247.22 172.37 250.51 172.37 259.32 220.16 259.32 220.16 247.22 185.19 247.22"/><polygon points="441.57 204.95 425.88 204.95 408.26 229.05 390.64 204.95 374.95 204.95 401.86 241.74 401.86 259.32 414.67 259.32 414.67 241.74 441.57 204.95"/><polygon class="cls-1" points="246.19 175.46 303.49 175.46 443.82 9.94 386.53 9.94 246.19 175.46"/><polygon class="cls-2" points="17.09 9.94 0 49.98 24.12 49.98 24.12 175.46 70.27 175.46 70.27 9.94 17.09 9.94"/><polygon class="cls-3" points="352.31 135.1 386.53 175.46 443.82 175.46 380.96 101.31 352.31 135.1"/><polygon class="cls-4" points="303.49 9.94 246.19 9.94 309.06 84.08 337.7 50.29 303.49 9.94"/><path class="cls-5" d="M176.4,0a92.7,92.7,0,1,0,92.7,92.7A92.7,92.7,0,0,0,176.4,0Zm0,142.06A49.37,49.37,0,1,1,225.77,92.7,49.36,49.36,0,0,1,176.4,142.06ZM207,50.71A23.6,23.6,0,0,0,186.21,30,23.62,23.62,0,0,0,207,9.2,23.6,23.6,0,0,0,227.72,30,23.58,23.58,0,0,0,207,50.71Z"/><path class="cls-6" d="M176.4,48.94A43.76,43.76,0,0,1,132.64,92.7a43.76,43.76,0,0,1,43.76,43.75A43.76,43.76,0,0,1,220.16,92.7,43.76,43.76,0,0,1,176.4,48.94Z"/></g></g></svg>