<svg xmlns="http://www.w3.org/2000/svg" viewBox="0 0 869.9 94.75"><g id="Layer_2" data-name="Layer 2"><g id="Layer_1-2" data-name="Layer 1"><polygon points="461.82 89.01 420.06 5.62 415.89 5.62 398.32 5.62 395.31 5.62 353.55 89.01 374.13 89.01 407.1 23.16 424.22 57.34 400.02 57.34 391.9 73.99 432.56 73.99 440.08 89.01 461.82 89.01"/><polygon points="656.58 89.01 614.82 5.62 610.65 5.62 593.08 5.62 590.07 5.62 548.31 89.01 568.89 89.01 601.87 23.16 618.98 57.34 594.78 57.34 586.66 73.99 627.32 73.99 634.84 89.01 656.58 89.01"/><polygon points="764.14 89.01 725.82 46.01 761.82 5.62 737.76 5.62 713.79 32.51 689.82 5.62 665.76 5.62 701.76 46.01 663.44 89.01 687.5 89.01 713.79 59.51 740.08 89.01 764.14 89.01"/><path d="M309.65,40.15V56.8H333v8.94a4.7,4.7,0,0,1-4.71,4.7H294A9.41,9.41,0,0,1,284.53,61V33.59A9.41,9.41,0,0,1,294,24.18h56.1V5.62H288a23.13,23.13,0,0,0-23.14,23.13V65.87A23.14,23.14,0,0,0,288,89h45.44a19.18,19.18,0,0,0,19.18-19.18V40.15Z"/><polygon points="488.43 70.44 488.43 5.62 468.77 5.62 468.77 70.44 468.77 75.5 468.77 89.01 542.06 89.01 542.06 70.44 488.43 70.44"/><polygon points="869.9 5.62 845.84 5.62 818.82 42.58 791.79 5.62 767.73 5.62 808.99 62.04 808.99 89.01 828.64 89.01 828.64 62.04 869.9 5.62"/><polygon points="125.82 89.67 155.1 89.67 226.82 5.08 197.54 5.08 125.82 89.67"/><polygon points="8.73 5.08 0 25.55 12.32 25.55 12.32 89.67 35.91 89.67 35.91 5.08 8.73 5.08"/><polygon points="180.05 69.05 197.54 89.67 226.82 89.67 194.69 51.78 180.05 69.05"/><polygon points="155.1 5.08 125.82 5.08 157.95 42.97 172.59 25.7 155.1 5.08"/><path d="M90.15,0a47.38,47.38,0,1,0,47.38,47.37A47.37,47.37,0,0,0,90.15,0Zm0,72.6a25.23,25.23,0,1,1,25.23-25.23A25.23,25.23,0,0,1,90.15,72.6Zm15.62-46.69a12,12,0,0,0-10.6-10.6A12.05,12.05,0,0,0,105.77,4.7a12.07,12.07,0,0,0,10.61,10.61A12.06,12.06,0,0,0,105.77,25.91Z"/><path d="M90.15,25A22.36,22.36,0,0,1,67.79,47.37,22.37,22.37,0,0,1,90.15,69.74a22.37,22.37,0,0,1,22.36-22.37A22.36,22.36,0,0,1,90.15,25Z"/></g></g></svg>