<svg xmlns="http://www.w3.org/2000/svg" viewBox="0 0 539.63 63.21"><g id="Layer_2" data-name="Layer 2"><g id="Layer_1-2" data-name="Layer 1"><path d="M24.7,1.5V61.71H10.29V14.37h-8L7.79,1.5H24.7M26.2,0H6.8L6.41.91.9,13.78,0,15.87H8.79V63.21H26.2V0Z"/><path d="M53.38,1.58l19.7,29.54L53.85,61.64h-.1q-12,0-17.37-8T31,31.52Q31,17.6,36.38,9.59t17-8m.37,47.11a7.48,7.48,0,0,0,5.87-2.23,11.65,11.65,0,0,0,2.63-5.83,53,53,0,0,0,.65-9.11q0-8.18-1.79-12.58c-1.18-2.94-3.64-4.41-7.36-4.41S47.57,16,46.38,18.94,44.6,26.07,44.6,31.52a53,53,0,0,0,.65,9.11,11.65,11.65,0,0,0,2.63,5.83,7.47,7.47,0,0,0,5.87,2.23M54.18.07h-.81C45.08.17,39,3.08,35.14,8.75S29.5,22,29.5,31.52s1.9,17.37,5.64,22.94c3.87,5.76,10.13,8.68,18.61,8.68h.1l.79,0,.48-.67L74.35,31.92l.52-.82-.54-.81L54.63.75,54.18.07Zm-.43,47.12A6,6,0,0,1,49,45.46a10.11,10.11,0,0,1-2.27-5.09,51.07,51.07,0,0,1-.63-8.85c0-5.23.56-9.27,1.67-12,1-2.37,2.86-3.47,6-3.47s5,1.1,6,3.47c1.11,2.75,1.68,6.8,1.68,12a51.15,51.15,0,0,1-.63,8.85,10.24,10.24,0,0,1-2.27,5.09,6,6,0,0,1-4.75,1.73Z"/><path d="M112.05,1.57,93,31.86l19.85,29.78h-17L83.55,43.24,72.77,61.64H56.17L75.43,31.09,55.75,1.57h17L84.84,19.71,95.45,1.57h16.6m2.71-1.5H94.59l-.44.75L84.76,16.88,74,.74,73.58.07H52.94L54.5,2.41,73.64,31.12,54.91,60.84l-1.45,2.3H73.63l.44-.74,9.56-16.33,10.91,16.4.45.67h20.63l-1.56-2.33-19.31-29L113.32,2.37l1.44-2.3Z"/><path d="M238.4,6.42l27.69,55.29H251.68l-5-10h-27l5.39-11h16L229.81,18.05,208,61.71H194.3L222,6.42h16.4m.93-1.5H221.07l-.42.83L193,61l-1.08,2.17h17l.41-.83,20.52-41,8.93,17.82H224.18l-.41.84-5.39,11-1,2.16h28.44l4.57,9.12.41.83h17.77L267.44,61,239.74,5.75l-.41-.83Z"/><path d="M367.54,6.42l27.69,55.29H380.82l-5-10h-27l5.39-11h16L359,18.05,337.09,61.71H323.44L351.13,6.42h16.41m.93-1.5H350.21l-.42.83L322.1,61,321,63.21h17l.42-.83L359,21.4l8.92,17.82H353.32l-.41.84-5.39,11-1,2.16h28.44l4.57,9.12.41.83h17.77L396.57,61,368.88,5.75l-.41-.83Z"/><path d="M465,6.42,441.14,33.2l25.41,28.51H450.6L433.17,42.15,415.73,61.71h-16L425.19,33.2,401.32,6.42h15.95l15.9,17.83L449.06,6.42H465m3.35-1.5h-20l-.44.5L433.17,22,418.39,5.42l-.44-.5H398l2.22,2.5,23,25.78L398.66,60.71l-2.22,2.5h20l.44-.5,16.32-18.3,16.31,18.3.44.5h20l-2.22-2.5L443.15,33.2l23-25.78,2.23-2.5Z"/><path d="M192,6.42V18.73H154.79A6.24,6.24,0,0,0,148.54,25V43.16a6.24,6.24,0,0,0,6.25,6.24h22.76a3.12,3.12,0,0,0,3.12-3.12V40.35H165.2v-11h28.5V49A12.71,12.71,0,0,1,181,61.71H150.85a15.34,15.34,0,0,1-15.34-15.34V21.76A15.34,15.34,0,0,1,150.85,6.42H192m1.5-1.5H150.85A16.86,16.86,0,0,0,134,21.76V46.37a16.86,16.86,0,0,0,16.84,16.84H181A14.22,14.22,0,0,0,195.2,49V27.81H163.7v14h15.47v4.43a1.62,1.62,0,0,1-1.62,1.62H154.79A4.75,4.75,0,0,1,150,43.16V25a4.75,4.75,0,0,1,4.75-4.74h38.69V4.92Z"/><path d="M283.73,6.42v43H319.3V61.71H270.7V6.42h13m1.5-1.5h-16V63.21h51.6V47.9H285.23v-43Z"/><path d="M536.68,6.42,509.32,43.83V61.71h-13V43.83L468.93,6.42h15.95L502.8,30.93,520.72,6.42h16m3-1.5H520l-.45.61L502.8,28.39,486.09,5.53l-.44-.61H466l1.74,2.38,27.07,37V63.21h16V44.32l27.07-37,1.74-2.38Z"/></g></g></svg>