<svg xmlns="http://www.w3.org/2000/svg" viewBox="0 0 368.36 271.01"><g id="Layer_2" data-name="Layer 2"><g id="Layer_1-2" data-name="Layer 1"><path d="M60.19,240.68a11.15,11.15,0,0,0-4.54-4.75,13.63,13.63,0,0,0-6.72-1.6,14.69,14.69,0,0,0-7.44,1.88,13.1,13.1,0,0,0-5.11,5.32,18.24,18.24,0,0,0,0,16,13.09,13.09,0,0,0,5.11,5.36,14.68,14.68,0,0,0,7.44,1.87,13.15,13.15,0,0,0,9.14-3.14,13.68,13.68,0,0,0,4.3-8.54H46.57v-5.51H69.76V253a20.78,20.78,0,0,1-20.83,18,21.7,21.7,0,0,1-10.83-2.76,20.48,20.48,0,0,1-7.78-7.65,22.82,22.82,0,0,1,0-22.16,20.49,20.49,0,0,1,7.81-7.65A21.75,21.75,0,0,1,48.93,228a22,22,0,0,1,12,3.3,18.78,18.78,0,0,1,7.59,9.35Z"/><path d="M123.2,262.05H105.59l-3,8.6h-7.2l15.07-42.13h8l15.07,42.13h-7.26Zm-1.94-5.63-6.84-19.55-6.9,19.55Z"/><path d="M168.23,265.08h14.23v5.57H161.33V228.58h6.9Z"/><path d="M234.87,262.05H217.26l-3,8.6H207l15.07-42.13h8l15.07,42.13H237.9Zm-1.94-5.63-6.83-19.55-6.9,19.55Z"/><path d="M292.31,249.64l13.08,21h-7.75l-9.51-15.26-8.89,15.26h-7.69l13.07-21-13.13-21.06h7.75L288.8,244l9-15.37h7.69Z"/><path d="M365.43,228.58l-13.92,26.81v15.26h-6.9V255.39l-14-26.81h7.69l9.75,20.64,9.74-20.64Z"/><path d="M0,42.89,18.38,0H74.72V200.64h-48V42.89Z"/><path d="M170.32.27Q131.34.68,113.66,27q-17.94,26.7-17.93,73.1,0,46.94,17.93,73.64t57.87,26.71h.33L235.94,98.71Zm20.76,149.55q-6.62,7.43-19.55,7.42T152,149.82q-6.61-7.41-8.77-19.42T141,100.05q0-27.24,5.94-41.94t24.55-14.7q18.6,0,24.54,14.7T202,100.05q0,18.35-2.16,30.35T191.08,149.82Z"/><path d="M311.62,200.4l-40.77-61.3-35.93,61.3H179.61L243.76,98.61,178.19.25h56.73l40.2,60.44L310.48.25h55.31L302.21,101.18l66.15,99.22Z"/></g></g></svg>