<svg xmlns="http://www.w3.org/2000/svg" xmlns:xlink="http://www.w3.org/1999/xlink" viewBox="0 0 87.28 88.25"><defs><style>.cls-1{fill:url(#linear-gradient);}.cls-2{fill:url(#linear-gradient-2);}.cls-3{fill:url(#linear-gradient-3);}</style><linearGradient id="linear-gradient" x1="31.59" y1="-5.9" x2="86.91" y2="49.42" gradientUnits="userSpaceOnUse"><stop offset="0" stop-color="#22d2e0"/><stop offset="1" stop-color="#85249f"/></linearGradient><linearGradient id="linear-gradient-2" x1="45.84" y1="-20.14" x2="101.15" y2="35.18" xlink:href="#linear-gradient"/><linearGradient id="linear-gradient-3" x1="8.93" y1="16.76" x2="64.25" y2="72.08" xlink:href="#linear-gradient"/></defs><g id="Layer_2" data-name="Layer 2"><g id="Layer_1-2" data-name="Layer 1"><ellipse class="cls-1" cx="66.97" cy="29.47" rx="17.83" ry="18.08"/><ellipse class="cls-2" cx="79.32" cy="13.34" rx="7.96" ry="8.08"/><path class="cls-3" d="M76,40.2V61.68L40.52,82.46,5,61.68V26.39L40.52,47,57,38.29a15,15,0,0,0-5-2.87L40.52,41.19,10,23.49l13.88-8L42.6,26.22a71.44,71.44,0,0,0,8.53-.86L28.86,12.55,40.52,5.79,59.38,17A14.84,14.84,0,0,0,61,12.14L40.52,0,0,23.49H0V64.55l40.52,23.7L81,64.55V36.35A8.17,8.17,0,0,0,76,40.2Z"/></g></g></svg>