<svg xmlns="http://www.w3.org/2000/svg" viewBox="0 0 85.06 85.05"><g id="Layer_2" data-name="Layer 2"><g id="Layer_1-2" data-name="Layer 1"><path d="M25.06,85.05a6.27,6.27,0,0,1-1.21-.62,2.63,2.63,0,0,1,.33-4.31c.12-.08.27-.24.27-.36,0-1.76,0-3.52,0-5.34H24c-2.67,0-5.33,0-8,0a5.28,5.28,0,0,1-5.23-4.22,6,6,0,0,1-.12-1.28q0-3.93,0-7.84v-.45l-.37,0H5.47a.52.52,0,0,0-.53.29A2.65,2.65,0,0,1,1.77,62,2.69,2.69,0,0,1,0,59.14a2.65,2.65,0,0,1,2.56-2.25A2.59,2.59,0,0,1,5,58.19a.6.6,0,0,0,.4.27c1.7,0,3.39,0,5.08,0l.18,0V43.61l-.45,0H1.43a3.32,3.32,0,0,1-.55,0,1,1,0,0,1,0-2.06,2.83,2.83,0,0,1,.58,0h9.18V26.58H1.41a2.73,2.73,0,0,1-.7-.07A1.05,1.05,0,0,1,0,25.43a1,1,0,0,1,.85-.95,5.07,5.07,0,0,1,.55,0h9.22V24c0-2.61,0-5.22,0-7.83a5.42,5.42,0,0,1,5.57-5.55c2.59.07,5.19,0,7.79,0h.46c0-.14,0-.25,0-.37,0-1.6,0-3.2,0-4.8a.51.51,0,0,0-.3-.52A2.68,2.68,0,0,1,23,1.73,2.7,2.7,0,0,1,25.89,0a2.66,2.66,0,0,1,1,5,.53.53,0,0,0-.24.38c0,1.68,0,3.36,0,5a2.11,2.11,0,0,0,0,.21H41.48v-.46c0-2.93,0-5.85,0-8.78a2.42,2.42,0,0,1,.06-.66A1,1,0,0,1,42.62,0a1,1,0,0,1,.94.81,3.18,3.18,0,0,1,0,.62V10.6H58.49v-.47c0-2.93,0-5.85,0-8.78a2.09,2.09,0,0,1,.07-.66A1,1,0,0,1,59.65,0a1,1,0,0,1,.93.83,3.77,3.77,0,0,1,0,.58v9.21H69a5.33,5.33,0,0,1,5.47,5.47c0,2.62,0,5.25,0,7.87v.45l.33,0c1.63,0,3.26,0,4.89,0a.6.6,0,0,0,.43-.22,2.68,2.68,0,0,1,2.81-1.31A2.64,2.64,0,0,1,85,25a.75.75,0,0,0,.06.13v.79c0,.08,0,.17-.08.26a2.6,2.6,0,0,1-2.33,2,2.47,2.47,0,0,1-2.53-1.31.5.5,0,0,0-.51-.26h-4.8l-.34,0V41.46H75c2.89,0,5.77,0,8.66,0a1.29,1.29,0,0,1,1.39.84v.47a1.26,1.26,0,0,1-1.35.84c-2.92,0-5.83,0-8.74,0h-.5V58.47H75c2.89,0,5.77,0,8.66,0a1.29,1.29,0,0,1,1.39.84v.47a1.26,1.26,0,0,1-1.35.84c-2.91,0-5.83,0-8.74,0h-.54v.47c0,2.58,0,5.17,0,7.75a5.43,5.43,0,0,1-5.63,5.61c-2.59-.06-5.17,0-7.76,0h-.45V75c0,2.87,0,5.74,0,8.62a1.41,1.41,0,0,1-.76,1.45h-.63a1.38,1.38,0,0,1-.75-1.41c0-2.92,0-5.83,0-8.74,0-.15,0-.3,0-.46H43.6V75c0,2.89,0,5.78,0,8.67a1.38,1.38,0,0,1-.76,1.41h-.63a1.37,1.37,0,0,1-.75-1.41c0-2.92,0-5.83,0-8.74,0-.15,0-.3,0-.46H26.62a1.28,1.28,0,0,0,0,.17c0,1.71,0,3.41,0,5.12a.59.59,0,0,0,.28.39,2.62,2.62,0,0,1,1.29,2.37,2.53,2.53,0,0,1-1.46,2.27,6.37,6.37,0,0,1-.72.29ZM42.52,72.29H69A3.19,3.19,0,0,0,72.31,69q0-26.43,0-52.87a3.83,3.83,0,0,0-.13-1,3.15,3.15,0,0,0-3.24-2.34h-53A3.17,3.17,0,0,0,12.77,16v53a3.28,3.28,0,0,0,0,.63,3.17,3.17,0,0,0,3.29,2.72Z"/><path d="M33.27,24.69c0-2.36.89-4.21,3.14-5.13a5.08,5.08,0,0,1,6.13,1.57,5.08,5.08,0,0,1,6-1.61c2.32.9,3.24,2.76,3.24,5.17a7.86,7.86,0,0,1,9.66,9.75A5.13,5.13,0,0,1,65,38.56a5,5,0,0,1-2.06,5,7.87,7.87,0,0,1-2.21,13.56,18.71,18.71,0,0,1,0,2.12,6.11,6.11,0,0,1-8.31,5,.5.5,0,0,0-.58.16,6.34,6.34,0,0,1-8.27-.07,13.53,13.53,0,0,1-1-1.11c-.34.37-.67.77-1,1.1a6.32,6.32,0,0,1-8.26.07.55.55,0,0,0-.65-.11,6.16,6.16,0,0,1-8-3.93,6.27,6.27,0,0,1-.16-3.19,7.87,7.87,0,0,1-2.31-13.59,5.19,5.19,0,0,1,1.5-9.15,7.86,7.86,0,0,1,9.66-9.75ZM41.48,53v-.58q0-13.86,0-27.72c0-.26,0-.53,0-.79a3,3,0,0,0-2.69-2.62,2.89,2.89,0,0,0-3.15,1.94,3,3,0,0,0,.52,3A1.05,1.05,0,0,1,35.66,28a1.17,1.17,0,0,1-1.15-.3,5.5,5.5,0,0,0-5-.87A5.64,5.64,0,0,0,26,34.63c.45,1,0,1.68-1.05,1.75a2.9,2.9,0,0,0-2.15,1.1,3,3,0,0,0,1.77,4.89,1.41,1.41,0,0,1,.61.23,1,1,0,0,1-.35,1.86,5.71,5.71,0,0,0-2.84,8,5.35,5.35,0,0,0,3.81,2.79,1.2,1.2,0,0,1,1,.68,1.33,1.33,0,0,1-.08,1.07,4,4,0,0,0,5.71,5c.83-.46,1.13-.39,1.81.32a4.07,4.07,0,0,0,4.34,1.21,3.78,3.78,0,0,0,2.85-3.28,16.48,16.48,0,0,0,0-3.22,3.32,3.32,0,0,0-3.36-3.17,3.37,3.37,0,0,0-3.37,3.19,1.84,1.84,0,0,1-.11.62,1,1,0,0,1-1.19.61,1.1,1.1,0,0,1-.82-1.15,5.49,5.49,0,0,1,6.66-5.26A5.36,5.36,0,0,1,41.48,53ZM43.6,38.33v21a5,5,0,0,0,0,.78,3.91,3.91,0,0,0,2.55,3.36A4.19,4.19,0,0,0,51,62.29a1.11,1.11,0,0,1,1.6-.29,4,4,0,0,0,5.8-5,1.12,1.12,0,0,1,.91-1.69,5.7,5.7,0,0,0,.93-10.87,1.05,1.05,0,0,1-.73-1,1.1,1.1,0,0,1,.87-1c.15,0,.31-.06.46-.11A3,3,0,0,0,62.94,39a3,3,0,0,0-2.79-2.6c-1.1-.07-1.51-.73-1-1.74a5.69,5.69,0,0,0,.45-3.23,5.61,5.61,0,0,0-6.66-4.75,5.72,5.72,0,0,0-2.52,1.14A1,1,0,0,1,49,27.69a1.08,1.08,0,0,1,0-1.41l.21-.28a3.09,3.09,0,0,0,0-3.48,3,3,0,0,0-3-1.2,3,3,0,0,0-2.49,3.13v6c0,1.28,0,2.55,0,3.82a3.28,3.28,0,0,0,2.34,3,3.38,3.38,0,0,0,3.64-1.11A3.63,3.63,0,0,0,50.38,34a1,1,0,0,1,1.15-1,1,1,0,0,1,.95,1.18A5.07,5.07,0,0,1,51.6,37a5.33,5.33,0,0,1-5.41,2.45A5.26,5.26,0,0,1,43.6,38.33Z"/><path d="M34.61,38.61a4.73,4.73,0,0,1,1.9,2.53,6.59,6.59,0,0,1,.22,1.4,1,1,0,0,1-2.08.16,3.13,3.13,0,0,0-.76-1.94A2.74,2.74,0,0,0,31.67,40,4.7,4.7,0,0,1,28,38.62a1,1,0,0,1-.09-1.48,1,1,0,0,1,1.48-.09,3,3,0,0,0,1.48.76,2.59,2.59,0,0,0,2.4-4.25,1.28,1.28,0,0,1-.43-1.06,1,1,0,0,1,.73-.84,1.08,1.08,0,0,1,1.17.34,4.75,4.75,0,0,1,.45,5.91C35,38.15,34.79,38.37,34.61,38.61Z"/><path d="M54.05,49.89a4.65,4.65,0,0,1-.78,5.35,1,1,0,0,1-1.56.15,1,1,0,0,1,0-1.53,2.63,2.63,0,0,0-.09-3.74,2.67,2.67,0,0,0-3.5-.06,1.81,1.81,0,0,1-.69.41,1,1,0,0,1-1.12-.56,1,1,0,0,1,.22-1.26,4.66,4.66,0,0,1,5.61-.73.86.86,0,0,0,1,0,4.66,4.66,0,0,1,5.43.74,1.07,1.07,0,0,1,.13,1.54,1,1,0,0,1-1.54,0A2.65,2.65,0,0,0,54.05,49.89Z"/></g></g></svg>