<svg xmlns="http://www.w3.org/2000/svg" xmlns:xlink="http://www.w3.org/1999/xlink" viewBox="0 0 79.68 83.62"><defs><style>.cls-1{fill:url(#linear-gradient);}.cls-2{fill:url(#linear-gradient-2);}.cls-3{fill:url(#linear-gradient-3);}.cls-4{fill:url(#linear-gradient-4);}</style><linearGradient id="linear-gradient" x1="6.38" y1="15.61" x2="67.14" y2="76.38" gradientUnits="userSpaceOnUse"><stop offset="0" stop-color="#22d2e0"/><stop offset="1" stop-color="#85249f"/></linearGradient><linearGradient id="linear-gradient-2" x1="11.65" y1="10.34" x2="72.41" y2="71.11" xlink:href="#linear-gradient"/><linearGradient id="linear-gradient-3" x1="18.19" y1="3.8" x2="78.95" y2="64.56" xlink:href="#linear-gradient"/><linearGradient id="linear-gradient-4" x1="0.02" y1="21.97" x2="60.79" y2="82.73" xlink:href="#linear-gradient"/></defs><g id="Layer_2" data-name="Layer 2"><g id="Layer_1-2" data-name="Layer 1"><path class="cls-1" d="M78.81,50.06,73.18,41.4a39.39,39.39,0,0,0-9.91-29.5A35.41,35.41,0,0,0,36.71,0C14.4,0,1.94,18.91.21,32.33c-1.53,12,5.57,23.24,9.94,28.89a9.94,9.94,0,0,1,2.08,6V81.12a2.5,2.5,0,0,0,5,0V67.24a14.94,14.94,0,0,0-3.12-9.07c-3.9-5.05-10.24-15-8.94-25.2C6.67,21.35,17.44,5,36.71,5A30.53,30.53,0,0,1,59.57,15.25a34.43,34.43,0,0,1,8.55,26.54l-.09.87,6.58,10.13a.36.36,0,0,1,0,.36.41.41,0,0,1-.28.23l-6.26,1.31V66.6a7.14,7.14,0,0,1-7.64,7.11l-14.34-1v8.42a2.5,2.5,0,0,0,5,0V78.07l9,.63a12.14,12.14,0,0,0,13-12.1V58.75l2.29-.48a5.4,5.4,0,0,0,3.41-8.21Z"/><path class="cls-2" d="M46.4,24.29a2,2,0,0,0,2.83-2.83l-12-12-12,12a2,2,0,1,0,2.83,2.83l7.14-7.14V59.59a2,2,0,0,0,4,0V17.15Z"/><path class="cls-3" d="M49,40.3l4.6-4.6V51.53a2,2,0,0,0,4,0V35.7l4.6,4.6A2,2,0,0,0,65,37.47L55.59,28l-9.43,9.43A2,2,0,0,0,49,40.3Z"/><path class="cls-4" d="M19.26,28,9.83,37.47a2,2,0,1,0,2.83,2.83l4.6-4.6V51.53a2,2,0,0,0,4,0V35.7l4.6,4.6a2,2,0,0,0,2.83-2.83Z"/></g></g></svg>