<svg xmlns="http://www.w3.org/2000/svg" viewBox="0 0 242.28 194.58"><defs><style>.cls-1{fill:none;stroke:#000;stroke-linecap:round;stroke-miterlimit:10;stroke-width:6.38px;}</style></defs><g id="Layer_2" data-name="Layer 2"><g id="Layer_1-2" data-name="Layer 1"><path class="cls-1" d="M157.88,157.07H18.54A15.35,15.35,0,0,1,3.19,141.72V18.54A15.35,15.35,0,0,1,18.54,3.19H182.31a15.35,15.35,0,0,1,15.35,15.35V87.89"/><path class="cls-1" d="M194.36,88.42c-3.91,3.31-16.41,12.42-39.28,16.17a2.12,2.12,0,0,0-1.77,1.81c-1.42,10.46-7.27,70.26,41.79,84.9a2.18,2.18,0,0,0,1.24,0c49.06-14.64,43.21-74.44,41.79-84.9a2.14,2.14,0,0,0-1.77-1.81c-22.87-3.75-35.37-12.86-39.28-16.17A2.09,2.09,0,0,0,194.36,88.42Z"/><path class="cls-1" d="M209.48,132.54a13.77,13.77,0,1,0-19.85,12.33v12.82a6.09,6.09,0,1,0,12.18,0V144.87A13.76,13.76,0,0,0,209.48,132.54Z"/><path class="cls-1" d="M3.19,117.54s.18,14.12,12.88,14.12H152.34"/><line class="cls-1" x1="112.95" y1="34.6" x2="88.95" y2="100.95"/><path class="cls-1" d="M126.72,46.78l25.06,19.85a.57.57,0,0,1,0,.89l-25.07,20.4"/><path class="cls-1" d="M75.72,46.78,49.31,66.89a.57.57,0,0,0,0,.91L75.72,87.92"/><line class="cls-1" x1="79.54" y1="157.07" x2="69.42" y2="184.37"/><line class="cls-1" x1="120.95" y1="157.07" x2="130.84" y2="184.37"/><line class="cls-1" x1="143.54" y1="185.54" x2="57.42" y2="185.54"/></g></g></svg>