<svg xmlns="http://www.w3.org/2000/svg" viewBox="0 0 76.75 85.06"><g id="Layer_2" data-name="Layer 2"><g id="Layer_1-2" data-name="Layer 1"><path d="M38.61,0A40.54,40.54,0,0,0,45,2.91,25.45,25.45,0,0,0,53.3,4.35c.94,0,1.31.37,1.32,1.3a44,44,0,0,1-2.06,14.69A30.25,30.25,0,0,1,46.64,31a21.6,21.6,0,0,1-7.7,5.6,1.32,1.32,0,0,1-1.1,0,20.75,20.75,0,0,1-5.93-3.79,27.62,27.62,0,0,1-7-10.56,36.93,36.93,0,0,1-2.52-10.76c-.16-2-.18-4-.24-6A1,1,0,0,1,23.3,4.35,27.89,27.89,0,0,0,36.13,1.06c.68-.34,1.34-.71,2-1.06ZM24.26,6.56V6.9c.11,1.78.16,3.56.34,5.34a34,34,0,0,0,4,12.88,21,21,0,0,0,8.89,9,1.8,1.8,0,0,0,1.87,0,21.21,21.21,0,0,0,8.77-8.83A37.91,37.91,0,0,0,52.5,6.65a1.13,1.13,0,0,0,0-.14c-1.2-.14-2.37-.22-3.51-.42a32.82,32.82,0,0,1-10.15-3.6.82.82,0,0,0-.89,0A32.35,32.35,0,0,1,29,5.86C27.45,6.17,25.88,6.33,24.26,6.56Z"/><path d="M20.94,46.26,23.62,46a9.38,9.38,0,0,0,3.14-1,33.31,33.31,0,0,1,5.86-2.26c.66-.16,1.34-.24,2-.37A.71.71,0,0,0,35,42.3a9.94,9.94,0,0,1,10.36-2.24c1.14.35,2.26.76,3.37,1.2a18.81,18.81,0,0,0,8,1.17l2.76-.14.39,0a7.18,7.18,0,0,1,0-1.23,2.79,2.79,0,0,1,2.64-2.34l7.72-1.06A2.76,2.76,0,0,1,73.5,40c.34,2.27.64,4.55,1,6.82q.61,4.43,1.22,8.85c.35,2.53.73,5.06,1,7.6a2.82,2.82,0,0,1-2.66,3.31c-2.5.32-5,.69-7.48,1-1.69.23-2.62-.3-3.41-1.93l-1.54.87a4.39,4.39,0,0,1,.44,4.7,4.31,4.31,0,0,1-4,2.43,4.41,4.41,0,0,1-6,4.64,4.46,4.46,0,0,1-6.79,3.19A4.38,4.38,0,0,1,42,84.92a4.54,4.54,0,0,1-4.55-1.49,3.88,3.88,0,0,1-6.79-1.26A4,4,0,0,1,27,81.94a3.92,3.92,0,0,1-1.83-3.18,3.77,3.77,0,0,1-3-1.12,3.85,3.85,0,0,1-1.12-3,4.11,4.11,0,0,1-2.11-.7,3.76,3.76,0,0,1-1.65-3.34.55.55,0,0,0-.32-.58c-1.29-.8-2.58-1.62-3.89-2.45-.09.14-.16.28-.24.41a2.81,2.81,0,0,1-3.32,1.17c-2.6-.95-5.19-1.92-7.78-2.89A2.73,2.73,0,0,1,.16,62.76c.48-1.37,1-2.73,1.51-4.09q3.35-9,6.68-18A2.76,2.76,0,0,1,12.1,39l3,1.12c1.45.54,2.9,1.07,4.34,1.62a2.78,2.78,0,0,1,1.74,3.83ZM36.08,76.48l.28.11A3.76,3.76,0,0,1,38.89,81a1.15,1.15,0,0,0,.49,1.35,2.28,2.28,0,1,0,3-3.39l-1-.89c-.75-.68-1.51-1.35-2.25-2A1,1,0,0,1,40,74.21a2,2,0,0,1,.73.36c.39.31.75.66,1.12,1q2.17,2,4.36,3.92a2.1,2.1,0,0,0,2.13.46,2.25,2.25,0,0,0,.89-3.84c-.94-.88-1.91-1.73-2.87-2.59L43.7,71.12a1.06,1.06,0,0,1,.2-1.8,1.18,1.18,0,0,1,1.33.32l6.85,6.16a2.27,2.27,0,0,0,2.06.64,2.16,2.16,0,0,0,1.76-1.66,2.22,2.22,0,0,0-.78-2.36l-6.89-6.17a2.27,2.27,0,0,1-.3-.32A1.06,1.06,0,0,1,48,64.62a1,1,0,0,1,1.25-.23,3.28,3.28,0,0,1,.53.39c2.3,2.06,4.58,4.14,6.89,6.18a2.25,2.25,0,0,0,3.68-1.17,2.2,2.2,0,0,0-.75-2.3l-9.67-8.68-8-7.2c-.47-.42-.68-.41-1.11.07-.19.22-.39.43-.58.64a8.34,8.34,0,0,1-11.07,1.2,2.65,2.65,0,0,1-.45-4.18l3.52-3.93.25-.3L32.39,45c-1.33.56-2.67,1.13-4,1.67a16.86,16.86,0,0,1-3.11,1.19,46.31,46.31,0,0,1-4.72.5c-.3,0-.43.09-.53.37q-2.58,7-5.18,14c-.35,1-.7,1.89-1.05,2.85L16,66.9l2.16,1.35c.91-1,1.77-2,2.67-2.94a3.75,3.75,0,0,1,5.08-.38,12.79,12.79,0,0,1,1.38,1.53,4.38,4.38,0,0,1,2.59-1.72,3.8,3.8,0,0,1,3.12.72c1.62,1.25,1.88,3.11.77,5.36A4,4,0,0,1,36.08,76.48Zm24.17-32.1h-.31c-1.6.06-3.2.15-4.8.18A18.46,18.46,0,0,1,48,43.25a34.44,34.44,0,0,0-3.93-1.36,7.6,7.6,0,0,0-8,2.41l-5.76,6.42c-.41.46-.4.74.11,1.09a6.11,6.11,0,0,0,6,.68,7.59,7.59,0,0,0,2.86-2.29,2.66,2.66,0,0,1,4-.23L54,59.59l5.81,5.2c.12.11.22.22.43.1.81-.48,1.64-.93,2.45-1.41a.39.39,0,0,0,.16-.33c-.17-1.35-.36-2.7-.55-4-.41-3-.81-5.9-1.22-8.85C60.79,48.31,60.52,46.36,60.25,44.38ZM10.36,67.18a.81.81,0,0,0,.78-.64l8.07-21.73c.24-.62.1-.91-.54-1.15L11.52,41c-.74-.28-1-.17-1.25.56q-2.79,7.48-5.57,15l-2.49,6.7c-.2.54-.07.86.41,1l7.44,2.77ZM66,65.53l.57-.08,7.41-1c.56-.07.74-.32.67-.89s-.16-1.25-.25-1.87l-1.29-9.35c-.44-3.17-.87-6.34-1.31-9.51-.11-.8-.21-1.61-.33-2.41-.08-.5-.36-.75-.79-.69l-8,1.1c-.54.08-.76.35-.68.89l1.2,8.73c.44,3.14.87,6.29,1.31,9.43.23,1.68.46,3.35.7,5A.65.65,0,0,0,66,65.53ZM24.84,76.65A1.75,1.75,0,0,0,26.22,76c.8-.91,1.61-1.8,2.42-2.7,1.09-1.21,2.18-2.41,3.25-3.63a1.74,1.74,0,0,0-.12-2.47,1.71,1.71,0,0,0-2.49.18c-.81.9-1.62,1.79-2.42,2.69-1.1,1.22-2.2,2.44-3.28,3.67a1.67,1.67,0,0,0-.28,1.91A1.65,1.65,0,0,0,24.84,76.65Zm9.6-2.12A1.73,1.73,0,0,0,33.35,73a1.64,1.64,0,0,0-1.88.38q-1.91,2.07-3.75,4.2a1.68,1.68,0,0,0,.17,2.4,1.72,1.72,0,0,0,2.44-.13c1.22-1.33,2.42-2.69,3.63-4A1.79,1.79,0,0,0,34.44,74.53ZM21,72.47l.05.1a3.48,3.48,0,0,0,1.1-.51c1-1,1.92-2,2.81-3.13a1.67,1.67,0,0,0-.25-2.25,1.76,1.76,0,0,0-2.39,0c-.16.16-.3.33-.45.49-.7.78-1.41,1.56-2.1,2.35a1.69,1.69,0,0,0-.29,1.91A1.61,1.61,0,0,0,21,72.47ZM34.42,82.81a1.58,1.58,0,0,0,1.16-.48c.33-.36.67-.71,1-1.09a1.69,1.69,0,0,0-.27-2.31,1.73,1.73,0,0,0-2.33,0A10.61,10.61,0,0,0,33,80a1.62,1.62,0,0,0-.17,1.81A1.65,1.65,0,0,0,34.42,82.81Z"/><path d="M29.46,18.33a8.92,8.92,0,0,1,17.84,0,9,9,0,0,1-8.6,9A8.91,8.91,0,0,1,29.46,18.33Zm2.12,0a6.8,6.8,0,1,0,6.87-6.77A6.82,6.82,0,0,0,31.58,18.37Z"/><path d="M37.65,18.69,40.26,16a1.06,1.06,0,0,1,1-.38,1.07,1.07,0,0,1,.57,1.82l-1.89,1.89-1.46,1.44a1.06,1.06,0,0,1-1.65,0L35,18.94a1.06,1.06,0,0,1,0-1.52,1,1,0,0,1,1.51,0C36.83,17.79,37.19,18.21,37.65,18.69Z"/></g></g></svg>