<svg xmlns="http://www.w3.org/2000/svg" viewBox="0 0 199.97 188.5"><defs><style>.cls-1{fill:none;stroke:#000;stroke-linecap:round;stroke-miterlimit:10;stroke-width:6.38px;}</style></defs><g id="Layer_2" data-name="Layer 2"><g id="Layer_1-2" data-name="Layer 1"><path class="cls-1" d="M46.25,35.66H3.19V24.72A21.53,21.53,0,0,1,24.72,3.19h0A21.53,21.53,0,0,1,46.25,24.72V163.78a16.59,16.59,0,0,0,16.59,16.59h0a16.58,16.58,0,0,0,16.58-16.59V153.19h26"/><path class="cls-1" d="M25.42,3.19H150.54a21.71,21.71,0,0,1,21.71,21.7V71.31"/><line class="cls-1" x1="71.31" y1="35.66" x2="148.6" y2="35.66"/><line class="cls-1" x1="71.31" y1="58.6" x2="148.6" y2="58.6"/><line class="cls-1" x1="71.31" y1="81.54" x2="112.6" y2="81.54"/><line class="cls-1" x1="71.31" y1="104.48" x2="98.84" y2="104.48"/><line class="cls-1" x1="62.84" y1="180.37" x2="105.42" y2="180.37"/><circle class="cls-1" cx="155.13" cy="124.95" r="39.88"/><path class="cls-1" d="M132.72,125a22.41,22.41,0,0,1,22.41-22.41"/><path class="cls-1" d="M132.83,164.61h49a14.94,14.94,0,0,1,14.94,14.94v5.76a0,0,0,0,1,0,0H117.89a0,0,0,0,1,0,0v-5.76A14.94,14.94,0,0,1,132.83,164.61Z"/></g></g></svg>