<svg xmlns="http://www.w3.org/2000/svg" viewBox="0 0 52.56 56.91"><g id="Layer_2" data-name="Layer 2"><g id="Layer_1-2" data-name="Layer 1"><path d="M16,31.23v3.2a3,3,0,1,0,6,0v-3.2a3,3,0,1,0-6,0Z"/><path d="M33.56,28.24a3,3,0,0,0-3,3v3.2a3,3,0,0,0,6,0v-3.2A3,3,0,0,0,33.56,28.24Z"/><path d="M45.71,14.64V5.58a2.83,2.83,0,1,0-1.36,0V40.64a8.5,8.5,0,0,1-8.48,8.08H22.77l-7.16,5.44a.47.47,0,0,1-.76-.37V48.51a8.51,8.51,0,0,1-6.66-8.29V28.09a8.5,8.5,0,0,1,8.5-8.49s19.63,0,19.85,0v0h0v-14a2.84,2.84,0,1,0-1.37,0v5.84H16.69A16.7,16.7,0,0,0,0,28.09V40.22A16.71,16.71,0,0,0,16.69,56.91H35.87A16.71,16.71,0,0,0,52.56,40.22V28.09A16.64,16.64,0,0,0,45.71,14.64Z"/></g></g></svg>