<svg xmlns="http://www.w3.org/2000/svg" viewBox="0 0 251.42 56.91"><g id="Layer_2" data-name="Layer 2"><g id="Layer_1-2" data-name="Layer 1"><path d="M16,31.23v3.2a3,3,0,1,0,6,0v-3.2a3,3,0,1,0-6,0Z"/><path d="M33.56,28.24a3,3,0,0,0-3,3v3.2a3,3,0,0,0,6,0v-3.2A3,3,0,0,0,33.56,28.24Z"/><path d="M45.71,14.64V5.58a2.83,2.83,0,1,0-1.36,0V40.64a8.5,8.5,0,0,1-8.48,8.08H22.77l-7.16,5.44a.47.47,0,0,1-.76-.37V48.51a8.51,8.51,0,0,1-6.66-8.29V28.09a8.5,8.5,0,0,1,8.5-8.49s19.63,0,19.85,0v0h0v-14a2.84,2.84,0,1,0-1.37,0v5.84H16.69A16.7,16.7,0,0,0,0,28.09V40.22A16.71,16.71,0,0,0,16.69,56.91H35.87A16.71,16.71,0,0,0,52.56,40.22V28.09A16.64,16.64,0,0,0,45.71,14.64Z"/><path d="M79.79,23.68a10.66,10.66,0,0,1,4.45,4.22,12.66,12.66,0,0,1,1.57,6.37,12.42,12.42,0,0,1-1.57,6.32,10.6,10.6,0,0,1-4.45,4.19,14.35,14.35,0,0,1-6.67,1.49H64.7V22.2h8.42A14.34,14.34,0,0,1,79.79,23.68Zm-1,16.41a7.87,7.87,0,0,0,2.07-5.82,8,8,0,0,0-2.07-5.88A7.8,7.8,0,0,0,73,26.27H69.53V42.16H73A7.94,7.94,0,0,0,78.81,40.09Z"/><path d="M89.76,24.08a2.83,2.83,0,0,1,0-4A3.18,3.18,0,0,1,94,20a2.85,2.85,0,0,1,0,4,3.18,3.18,0,0,1-4.24,0Zm4.5,3.08V46.27H89.43V27.16Z"/><path d="M98.93,31.51a8.42,8.42,0,0,1,3.14-3.45,8.31,8.31,0,0,1,4.43-1.21,7.85,7.85,0,0,1,3.74.86,7.56,7.56,0,0,1,2.57,2.18V27.16h4.86V46.27h-4.86v-2.8a7.21,7.21,0,0,1-2.57,2.23,7.93,7.93,0,0,1-3.78.88,8.15,8.15,0,0,1-4.39-1.24,8.72,8.72,0,0,1-3.14-3.51,11.2,11.2,0,0,1-1.16-5.18A11,11,0,0,1,98.93,31.51Zm13.19,2.19a4.81,4.81,0,0,0-1.86-1.93,5,5,0,0,0-2.52-.68,4.85,4.85,0,0,0-2.48.66,4.93,4.93,0,0,0-1.85,1.91,6,6,0,0,0-.71,3,6.2,6.2,0,0,0,.71,3,5.11,5.11,0,0,0,1.86,2,4.74,4.74,0,0,0,2.47.68,5,5,0,0,0,2.52-.67,4.87,4.87,0,0,0,1.86-1.93,6.93,6.93,0,0,0,0-6Z"/><path d="M127.22,20.75V46.27h-4.83V20.75Z"/><path d="M135.5,45.35A8.81,8.81,0,0,1,132,41.89a10.4,10.4,0,0,1-1.26-5.18,10.2,10.2,0,0,1,1.3-5.17,9,9,0,0,1,3.53-3.46,10.78,10.78,0,0,1,10,0,8.92,8.92,0,0,1,3.54,3.46,10.2,10.2,0,0,1,1.29,5.17,9.94,9.94,0,0,1-1.33,5.18,9.16,9.16,0,0,1-3.58,3.46,10.41,10.41,0,0,1-5.06,1.23A10,10,0,0,1,135.5,45.35Zm7.43-3.62a4.59,4.59,0,0,0,1.84-1.91,6.47,6.47,0,0,0,.69-3.11A5.74,5.74,0,0,0,144,32.52a4.72,4.72,0,0,0-3.5-1.46,4.6,4.6,0,0,0-3.46,1.46,5.86,5.86,0,0,0-1.4,4.19A5.9,5.9,0,0,0,137,40.9a4.49,4.49,0,0,0,3.43,1.47A5,5,0,0,0,142.93,41.73Z"/><path d="M165.22,27.7a7,7,0,0,1,2.56,2.19V27.16h4.86V46.4a10.35,10.35,0,0,1-1.07,4.75,7.93,7.93,0,0,1-3.21,3.31,10.3,10.3,0,0,1-5.17,1.22,11,11,0,0,1-6.67-1.9,7,7,0,0,1-3-5.17h4.79A3.58,3.58,0,0,0,160,50.7a5.78,5.78,0,0,0,3.05.77,4.75,4.75,0,0,0,3.42-1.26,5.06,5.06,0,0,0,1.31-3.81v-3a7.53,7.53,0,0,1-2.57,2.24,7.66,7.66,0,0,1-3.74.9,8.28,8.28,0,0,1-4.42-1.24,8.67,8.67,0,0,1-3.15-3.51,11.2,11.2,0,0,1-1.16-5.18,11,11,0,0,1,1.16-5.14,8.26,8.26,0,0,1,7.57-4.66A7.92,7.92,0,0,1,165.22,27.7Zm1.87,6a4.77,4.77,0,0,0-1.87-1.93,5,5,0,0,0-2.51-.68,4.86,4.86,0,0,0-4.33,2.57,6,6,0,0,0-.71,3,6.2,6.2,0,0,0,.71,3,5.11,5.11,0,0,0,1.86,2,4.72,4.72,0,0,0,2.47.68,4.94,4.94,0,0,0,2.51-.67,4.83,4.83,0,0,0,1.87-1.93,6.93,6.93,0,0,0,0-6Z"/><path d="M180.46,45.73a7.4,7.4,0,0,1-2.94-2.29,5.8,5.8,0,0,1-1.19-3.21h4.86a2.61,2.61,0,0,0,1.09,1.83,3.77,3.77,0,0,0,2.36.72,3.62,3.62,0,0,0,2.15-.55,1.67,1.67,0,0,0,.78-1.41,1.5,1.5,0,0,0-.95-1.4,18,18,0,0,0-3-1,24.91,24.91,0,0,1-3.5-1.07,5.92,5.92,0,0,1-2.34-1.69,4.48,4.48,0,0,1-1-3.06,4.94,4.94,0,0,1,.91-2.9,6.19,6.19,0,0,1,2.62-2.07,9.78,9.78,0,0,1,4-.76,8.21,8.21,0,0,1,5.45,1.71,6.35,6.35,0,0,1,2.24,4.6H187.4a2.52,2.52,0,0,0-1-1.81,3.54,3.54,0,0,0-2.26-.67,3.59,3.59,0,0,0-2,.48,1.54,1.54,0,0,0-.71,1.35,1.58,1.58,0,0,0,1,1.46,14.7,14.7,0,0,0,3,1,24.09,24.09,0,0,1,3.41,1.07,6,6,0,0,1,2.33,1.71,4.63,4.63,0,0,1,1,3,5.11,5.11,0,0,1-.91,3,6.08,6.08,0,0,1-2.62,2.06,10,10,0,0,1-4,.74A10.18,10.18,0,0,1,180.46,45.73Z"/><path d="M214.43,27.16,202.6,55.3h-5.13l4.13-9.52L194,27.16h5.41l4.93,13.35,5-13.35Z"/><path d="M236.66,41.68h-9.59l-1.58,4.59h-5.07l8.65-24.11h5.62l8.66,24.11h-5.1Zm-1.31-3.86-3.48-10.07-3.49,10.07Z"/><path d="M251.42,22.2V46.27h-4.83V22.2Z"/></g></g></svg>