<svg xmlns="http://www.w3.org/2000/svg" viewBox="0 0 39.26 47"><defs><style>.cls-1{fill:none;stroke:#000;stroke-miterlimit:10;stroke-width:2px;}</style></defs><g id="Layer_2" data-name="Layer 2"><g id="Layer_1-2" data-name="Layer 1"><path class="cls-1" d="M8.63,23.54v3.12a2.92,2.92,0,1,0,5.83,0V23.54a2.92,2.92,0,1,0-5.83,0Z"/><path class="cls-1" d="M25.73,20.62a2.92,2.92,0,0,0-2.92,2.92v3.12a2.92,2.92,0,1,0,5.84,0V23.54A2.92,2.92,0,0,0,25.73,20.62Z"/><path class="cls-1" d="M36.26,5.53V32.72A8.29,8.29,0,0,1,28,40.59H15.21l-7,5.31a.46.46,0,0,1-.74-.36V40.39A8.29,8.29,0,0,1,1,32.31V20.49A8.3,8.3,0,0,1,9.28,12.2l19.36,0v0h0V5.53"/><path d="M28.65,1.5A1.5,1.5,0,1,1,27.15,3a1.5,1.5,0,0,1,1.5-1.5m0-1.5a3,3,0,1,0,3,3,3,3,0,0,0-3-3Z"/><path d="M36.26,1.5A1.5,1.5,0,1,1,34.76,3a1.5,1.5,0,0,1,1.5-1.5m0-1.5a3,3,0,1,0,3,3,3,3,0,0,0-3-3Z"/></g></g></svg>