<svg version="1.1" id="Layer_1" xmlns="http://www.w3.org/2000/svg" xmlns:xlink="http://www.w3.org/1999/xlink" x="0px" y="0px"
	 width="100%" viewBox="0 0 1920 692" enable-background="new 0 0 1920 692" xml:space="preserve">
<path fill="none" opacity="1.000000" stroke="#000000" stroke-linecap="round" stroke-linejoin="round" stroke-width="16.000000"
	d="
M1781.000000,224.000000 
	C1770.857910,191.619827 1754.809448,162.517395 1733.037354,136.468826 
	C1711.905029,111.185966 1686.950073,90.664001 1657.990112,75.018188 
	C1636.682983,63.506847 1614.201782,55.061111 1590.494995,50.023445 
	C1575.667480,46.872578 1560.661377,45.244286 1545.506348,44.387550 
	C1528.003052,43.398067 1510.641479,44.763920 1493.529907,47.675461 
	C1461.291138,53.160870 1431.049072,64.374458 1402.961060,81.435905 
	C1368.029419,102.654419 1339.890137,130.714249 1318.091675,165.058212 
	C1301.889648,190.584900 1290.972168,218.499344 1284.633789,248.028717 
	C1281.396484,263.110443 1279.834961,278.501068 1279.442261,293.998535 
	C1278.832520,318.064575 1281.424683,341.706635 1287.479492,365.005341 
	C1293.537231,388.315369 1302.634277,410.249237 1314.870117,431.076294 
	C1328.703369,454.622345 1345.602051,475.543213 1366.070679,493.419067 
	C1400.609497,523.582642 1440.201538,543.756836 1485.476196,552.621338 
	C1503.044678,556.061218 1520.702393,558.175049 1538.497925,557.874023 
	C1583.582886,557.111267 1625.868042,545.755554 1665.023193,523.040039 
	C1689.657349,508.748718 1711.264160,490.798950 1729.927734,469.436798 
	C1752.060303,444.103912 1768.633911,415.324432 1779.380371,383.459656 
	C1787.173950,360.350555 1791.552124,336.496368 1792.590698,312.003845 
	C1793.759766,284.432495 1790.596802,257.479919 1782.994507,231.001572 
	C1782.369019,228.823074 1781.666748,226.666656 1781.000000,224.499985 
"/>
<path fill="none" opacity="1.000000" stroke="#000000" stroke-linecap="round" stroke-linejoin="round" stroke-width="4.000000"
	d="
M1779.000000,376.000000 
	C1772.512207,373.398560 1766.305908,376.211548 1760.001465,377.011444 
	C1751.162354,378.132965 1742.340942,379.394440 1733.498169,380.484711 
	C1722.172485,381.881042 1710.860840,383.530151 1699.491699,384.390686 
	C1689.502441,385.146759 1679.495972,386.003021 1669.495972,386.396759 
	C1637.013794,387.675812 1604.513672,389.340607 1572.003174,388.390106 
	C1545.999023,387.629852 1519.985474,387.143188 1493.988647,385.705048 
	C1475.159912,384.663422 1456.335571,383.441040 1437.505981,382.392609 
	C1423.309082,381.602142 1409.188477,379.485687 1394.994019,378.595520 
	C1380.113037,377.662292 1365.312134,375.986450 1350.513062,374.379364 
	C1337.491943,372.965393 1324.450317,371.623596 1311.464233,369.747986 
	C1305.653809,368.908752 1299.562012,366.932526 1293.500000,369.000000 
"/>
<path fill="none" opacity="1.000000" stroke="#000000" stroke-linecap="round" stroke-linejoin="round" stroke-width="4.000000"
	d="
M1300.500000,212.000000 
	C1308.396851,215.035248 1316.796387,215.858047 1325.010254,217.447189 
	C1333.965210,219.179749 1342.988525,220.573486 1352.003052,221.980469 
	C1362.156494,223.565231 1372.317749,225.118149 1382.504395,226.466431 
	C1392.484009,227.787277 1402.493408,228.893616 1412.501953,229.981522 
	C1420.992310,230.904404 1429.493286,231.745193 1438.001831,232.479050 
	C1447.489624,233.297394 1457.019287,233.859894 1466.474731,234.763809 
	C1473.979004,235.481171 1481.515015,235.494553 1489.022339,236.289200 
	C1499.935303,237.444305 1511.008667,236.991257 1521.998291,237.535110 
	C1547.989990,238.821381 1574.011353,239.016129 1599.995483,238.327408 
	C1622.165161,237.739792 1644.354492,237.233368 1666.513428,235.694092 
	C1678.654541,234.850708 1690.829468,234.085724 1702.994141,233.396881 
	C1715.354004,232.696991 1727.675293,231.250305 1739.997314,229.973694 
	C1750.010620,228.936279 1760.008301,227.731720 1769.995605,226.464951 
	C1773.523315,226.017471 1777.000000,225.166656 1780.500000,224.499985 
"/>
<path fill="none" opacity="1.000000" stroke="#000000" stroke-linecap="round" stroke-linejoin="round" stroke-width="4.000000"
	d="
M1320.500000,171.000000 
	C1326.188110,173.770569 1332.492798,173.444763 1338.514893,174.407181 
	C1348.797852,176.050537 1359.193481,176.939804 1369.523315,178.325912 
	C1376.136108,179.213257 1382.833740,179.830139 1389.501587,180.483444 
	C1401.995972,181.707611 1414.496826,182.869370 1427.000854,183.990234 
	C1440.496948,185.200043 1453.997192,186.366776 1467.500854,187.489334 
	C1478.163086,188.375687 1488.848633,189.010681 1499.494629,190.055328 
	C1506.489136,190.741684 1513.507935,190.735977 1520.512939,191.352722 
	C1532.298950,192.390381 1544.162720,192.638763 1556.000854,192.971359 
	C1581.329224,193.682938 1606.662720,195.172791 1631.996338,194.383636 
	C1653.170044,193.724075 1674.360107,193.469620 1695.516968,191.702805 
	C1707.680908,190.686966 1719.873779,189.761963 1731.978882,188.322205 
	C1740.346436,187.326965 1748.919556,186.904709 1757.000000,184.000000 
"/>
<path fill="none" opacity="1.000000" stroke="#000000" stroke-linecap="round" stroke-linejoin="round" stroke-width="4.000000"
	d="
M1092.000000,403.000000 
	C1085.731201,399.389252 1079.505005,402.537506 1073.532471,403.670807 
	C1058.950806,406.437653 1044.327271,408.364655 1029.499756,408.464813 
	C1014.494751,408.566132 999.459717,409.074707 984.504883,407.454865 
	C971.780334,406.076599 959.105591,404.322968 946.489929,402.056030 
	C916.618958,396.688446 888.133362,386.647919 859.472107,377.083588 
	C840.233948,370.663727 820.538818,365.958435 800.523682,362.367889 
	C776.162842,357.997711 751.682129,355.675537 727.005005,356.628906 
	C707.683960,357.375336 688.450012,359.529816 669.993103,365.980347 
	C669.547546,366.136078 669.000000,366.000000 668.500000,366.000000 
"/>
<path fill="none" opacity="1.000000" stroke="#000000" stroke-linecap="round" stroke-linejoin="round" stroke-width="3.000000"
	d="
M698.000000,183.000000 
	C699.903198,184.328552 701.999634,183.482758 703.999939,183.477966 
	C721.341309,183.436447 738.728088,182.880096 755.986572,184.632248 
	C771.568970,186.214249 787.081787,188.420258 802.536804,191.302567 
	C826.289124,195.732300 849.264832,202.551987 872.014954,210.456985 
	C889.705566,216.603973 906.429382,224.953735 923.470398,232.566254 
	C944.508850,241.964462 966.389099,248.600998 989.028259,252.328278 
	C1003.673889,254.739502 1018.545349,255.365128 1033.507568,254.659866 
	C1048.514404,253.952484 1063.124512,251.593903 1077.489624,247.464050 
	C1084.844482,245.349625 1092.100830,242.812347 1098.946167,239.392181 
	C1101.584961,238.073761 1104.423828,238.122787 1107.000000,237.000000 
"/>
<path fill="none" opacity="1.000000" stroke="#000000" stroke-linecap="round" stroke-linejoin="round" stroke-width="4.000000"
	d="
M1362.500000,123.000000 
	C1370.034424,127.148010 1378.442871,128.937775 1386.543701,131.353592 
	C1402.729858,136.180603 1419.059326,140.641083 1435.530640,144.364700 
	C1451.556396,147.987625 1467.811890,150.622559 1484.006470,153.463257 
	C1498.309082,155.972107 1512.634766,158.392380 1527.010986,160.422363 
	C1536.953857,161.826370 1547.048950,162.157379 1556.989014,163.577042 
	C1573.597168,165.949036 1590.349365,166.659882 1607.011230,168.392090 
	C1618.786621,169.616302 1630.658936,170.101013 1642.501587,170.443649 
	C1666.329468,171.133041 1690.165039,171.612488 1714.000732,171.947693 
	C1724.329712,172.092941 1734.666504,171.591049 1745.000122,171.566849 
	C1746.954346,171.562256 1748.427612,170.814270 1750.000000,170.000000 
"/>
<path fill="none" opacity="1.000000" stroke="#000000" stroke-linecap="round" stroke-linejoin="round" stroke-width="4.000000"
	d="
M1749.500000,434.000000 
	C1745.797241,430.829742 1741.733887,433.075256 1738.017578,433.619934 
	C1725.383667,435.471619 1712.730103,437.026825 1700.000610,438.007507 
	C1689.664307,438.803833 1679.341797,439.796173 1668.998047,440.470703 
	C1652.005127,441.578888 1635.004883,442.596893 1617.997925,443.459076 
	C1609.510498,443.889343 1601.004761,443.549164 1592.495483,443.884094 
	C1577.678467,444.467255 1562.833618,444.356445 1547.999756,444.474457 
	C1545.834595,444.491699 1543.666626,444.166656 1541.500000,444.000000 
"/>
<path fill="none" opacity="1.000000" stroke="#000000" stroke-linecap="round" stroke-linejoin="round" stroke-width="4.000000"
	d="
M1439.500000,439.999969 
	C1426.166626,439.166656 1412.816284,438.539337 1399.505615,437.431885 
	C1389.643433,436.611389 1379.829834,435.195465 1370.000854,433.992645 
	C1357.997070,432.523590 1345.996338,431.028198 1334.002686,429.479218 
	C1331.171631,429.113556 1328.067505,429.116791 1325.594849,428.234131 
	C1322.981445,427.301178 1321.446777,428.194397 1319.500000,429.000000 
"/>
<path fill="none" opacity="1.000000" stroke="#000000" stroke-linecap="round" stroke-linejoin="round" stroke-width="3.000000"
	d="
M1541.500000,441.500000 
	C1539.013916,425.605347 1528.164795,418.091370 1514.019409,413.440796 
	C1494.039551,406.872009 1474.897949,408.331665 1456.515869,418.528687 
	C1448.352905,423.056976 1442.520752,429.950653 1440.748169,439.048370 
	C1439.761841,444.110382 1441.788940,449.512909 1444.999756,454.000153 
	C1452.040405,463.839294 1462.127441,468.769836 1473.505005,471.478943 
	C1489.584106,475.307526 1505.423828,474.228912 1520.445679,467.380951 
	C1531.245850,462.457520 1540.089844,455.261719 1541.000000,442.000000 
"/>
<path fill="none" opacity="1.000000" stroke="#000000" stroke-linecap="round" stroke-linejoin="round" stroke-width="7.000000"
	d="
M310.000000,313.000000 
	C310.000000,322.169678 310.000000,331.339386 310.000000,340.338806 
	C318.936340,343.219971 328.570435,340.813660 332.499298,334.999542 
	C336.118866,329.643127 335.458221,320.743317 331.978119,316.518005 
	C327.936493,311.610901 318.925934,308.859467 310.500000,312.500000 
"/>
<path fill="none" opacity="1.000000" stroke="#000000" stroke-linecap="round" stroke-linejoin="round" stroke-width="9.000000"
	d="
M931.000000,313.000000 
	C931.000000,322.169678 931.000000,331.339386 931.000000,340.362427 
	C940.536682,342.986359 949.437439,340.728485 953.057373,335.036499 
	C955.805115,330.716064 955.634277,319.865051 952.067749,315.938477 
	C948.456482,311.962646 938.302063,308.876984 931.500000,312.500000 
"/>
<path fill="none" opacity="1.000000" stroke="#000000" stroke-linecap="round" stroke-linejoin="round" stroke-width="6.000000"
	d="
M1707.500000,319.500000 
	C1706.314819,311.435028 1701.988647,307.168274 1695.000488,306.981537 
	C1689.497559,306.834503 1685.275269,308.495789 1682.951782,313.979584 
	C1680.784912,319.093353 1681.367310,325.591522 1685.021729,329.479645 
	C1688.778320,333.476562 1693.601562,333.859222 1698.481812,332.437683 
	C1704.534790,330.674561 1706.950562,325.931091 1707.500000,320.000000 
"/>
<path fill="none" opacity="1.000000" stroke="#000000" stroke-linecap="round" stroke-linejoin="round" stroke-width="9.000000"
	d="
M856.000000,312.000000 
	C856.000000,318.166656 855.911926,324.334991 856.026367,330.499512 
	C856.128052,335.977661 858.682068,339.658295 863.000000,341.000000 
	C867.929382,342.531647 873.691956,340.904327 876.467224,336.976837 
	C877.908569,334.937042 877.981506,332.427734 877.991699,329.999969 
	C878.016846,324.000061 878.000000,318.000000 878.000000,312.000000 
"/>
<path fill="none" opacity="1.000000" stroke="#000000" stroke-linecap="round" stroke-linejoin="round" stroke-width="7.000000"
	d="
M194.500000,310.750000 
	C198.975311,316.415009 199.747375,323.618317 202.462723,330.015808 
	C203.747116,333.041931 204.482819,336.280273 206.472244,339.020142 
	C207.946747,341.050842 209.039352,341.039490 210.526474,339.019501 
	C213.632812,334.800049 214.545792,329.686737 216.517670,325.007446 
	C218.519089,320.258026 218.909485,314.830322 222.500000,310.750000 
"/>
<path fill="none" opacity="1.000000" stroke="#000000" stroke-linecap="round" stroke-linejoin="round" stroke-width="6.000000"
	d="
M1456.500000,312.500000 
	C1452.393433,309.701019 1448.681885,306.250000 1442.991455,306.928741 
	C1437.637817,307.567261 1433.662109,310.354279 1432.000000,315.500000 
	C1430.404053,320.441162 1432.596680,327.993652 1436.500000,331.000000 
	C1439.720215,333.480225 1447.542603,333.783936 1450.990845,331.486267 
	C1452.875732,330.230255 1454.666626,328.833313 1456.500000,327.500000 
"/>
<path fill="none" opacity="1.000000" stroke="#000000" stroke-linecap="round" stroke-linejoin="round" stroke-width="7.000000"
	d="
M1718.000000,307.000000 
	C1718.000000,312.666656 1717.861816,318.337646 1718.038574,323.998810 
	C1718.217651,329.736145 1721.803711,333.000000 1727.500000,333.000000 
	C1733.871460,333.000000 1736.534912,330.656769 1736.984253,324.498840 
	C1737.239258,321.005280 1737.369629,317.501221 1737.486572,313.999542 
	C1737.558838,311.835297 1737.500000,309.666656 1737.500000,307.500000 
"/>
<path fill="none" opacity="1.000000" stroke="#000000" stroke-linecap="round" stroke-linejoin="round" stroke-width="8.000000"
	d="
M1368.500000,307.500000 
	C1368.714111,313.498688 1368.059814,319.513275 1368.980225,325.503052 
	C1369.769043,330.636719 1372.471069,332.963409 1378.000000,332.999969 
	C1383.471436,333.036163 1387.090210,330.478485 1387.409546,325.494202 
	C1387.792358,319.518738 1387.500000,313.500000 1387.500000,307.500000 
"/>
<path fill="none" opacity="1.000000" stroke="#000000" stroke-linecap="round" stroke-linejoin="round" stroke-width="4.000000"
	d="
M1473.000000,268.500000 
	C1475.500000,268.500000 1478.008911,268.633881 1480.497925,268.468231 
	C1484.127930,268.226685 1487.000000,265.256744 1487.000000,262.000000 
	C1487.000000,258.743256 1484.128540,255.700882 1480.497803,255.553665 
	C1477.758423,255.442612 1474.954102,255.075806 1472.000000,256.114594 
	C1472.000000,263.998260 1472.000000,271.999146 1472.000000,280.000000 
"/>
<path fill="none" opacity="1.000000" stroke="#000000" stroke-linecap="round" stroke-linejoin="round" stroke-width="5.000000"
	d="
M816.000000,268.500000 
	C818.666687,268.500000 821.337708,268.597137 823.998962,268.477203 
	C827.980713,268.297791 830.000000,266.042053 830.000000,262.000000 
	C830.000000,257.957947 827.980591,255.626007 823.999084,255.547028 
	C821.088074,255.489273 818.122253,255.055679 814.936279,256.119507 
	C815.396423,264.166016 814.420410,272.343506 815.500000,280.500000 
"/>
<path fill="none" opacity="1.000000" stroke="#000000" stroke-linecap="round" stroke-linejoin="round" stroke-width="5.000000"
	d="
M246.000000,268.500000 
	C248.666672,268.500000 251.337708,268.597168 253.998978,268.477203 
	C257.980713,268.297791 260.000000,266.042053 260.000000,262.000000 
	C260.000000,257.957947 257.980591,255.626007 253.999069,255.547028 
	C251.088058,255.489258 248.122223,255.055679 244.936295,256.119507 
	C245.396393,264.166016 244.420425,272.343506 245.500000,280.500000 
"/>
<path fill="none" opacity="1.000000" stroke="#000000" stroke-linecap="round" stroke-linejoin="round" stroke-width="7.000000"
	d="
M258.500000,341.500000 
	C255.148438,334.071564 252.981567,326.231812 250.463669,318.511841 
	C250.055634,317.260834 249.184448,316.156067 248.496460,315.002106 
	C246.840714,312.224976 245.253983,312.286835 243.477936,314.985474 
	C241.246674,318.375793 240.075485,322.201691 239.069580,326.018341 
	C237.661438,331.361053 235.635864,336.440674 233.500000,341.500000 
"/>
<path fill="none" opacity="1.000000" stroke="#000000" stroke-linecap="round" stroke-linejoin="round" stroke-width="7.000000"
	d="
M837.000000,326.000000 
	C837.215454,324.699188 837.961182,323.570007 839.024231,323.049500 
	C842.533081,321.331421 842.041565,318.040100 841.323547,315.550903 
	C840.493469,312.673218 837.700623,310.987946 834.500366,311.027924 
	C821.356079,311.192047 821.124939,308.825409 822.435730,324.505371 
	C822.711304,327.801758 822.123962,331.165283 822.015991,334.500519 
	C821.950928,336.509796 821.793030,338.545013 822.584412,340.552338 
	C827.442688,342.385284 832.601013,341.849854 837.457581,340.803162 
	C840.527344,340.141571 843.202515,337.658173 842.528870,333.495331 
	C841.949646,329.915344 838.186646,326.160858 834.498962,326.028656 
	C830.836975,325.897430 827.166687,326.000000 823.500000,326.000000 
"/>
<path fill="none" opacity="1.000000" stroke="#000000" stroke-linecap="round" stroke-linejoin="round" stroke-width="7.000000"
	d="
M374.000000,342.750000 
	C369.675446,340.464081 369.433716,335.871948 368.033447,331.987946 
	C366.067749,326.535645 364.699615,320.839722 362.385193,315.550232 
	C360.501648,311.245361 358.973999,311.490479 356.479828,315.487396 
	C353.573822,320.144348 351.840698,325.400513 350.765198,330.555328 
	C349.867035,334.860321 347.714478,338.250610 346.000000,342.000000 
"/>
<path fill="none" opacity="1.000000" stroke="#000000" stroke-linecap="round" stroke-linejoin="round" stroke-width="4.000000"
	d="
M1568.000000,270.500000 
	C1573.588257,270.500000 1579.176514,270.500000 1584.804321,270.500000 
	C1584.064087,263.691101 1582.599243,261.846832 1576.492310,261.059265 
	C1572.147339,260.498932 1568.702393,263.020599 1567.500000,267.000000 
	C1565.885254,272.344147 1567.395142,276.538300 1572.000000,279.500031 
	C1575.256348,281.594452 1578.765015,280.762360 1583.027344,277.031189 
	C1583.664307,276.473633 1584.666626,276.333344 1585.500000,276.000000 
"/>
<path fill="none" opacity="1.000000" stroke="#000000" stroke-linecap="round" stroke-linejoin="round" stroke-width="6.000000"
	d="
M1574.500000,312.000000 
	C1572.460205,311.157837 1570.534546,310.176544 1568.984375,308.514526 
	C1566.939087,306.321442 1564.105225,306.018677 1561.525757,306.611938 
	C1558.859863,307.225128 1556.501831,308.587128 1555.914551,311.985229 
	C1555.342163,315.296997 1557.346680,316.684631 1559.529175,317.949615 
	C1561.387817,319.026825 1563.459717,319.787750 1565.509766,320.470825 
	C1568.380737,321.427460 1571.089600,322.568146 1571.452759,326.004974 
	C1571.705811,328.399078 1571.495728,330.876251 1568.992310,332.235901 
	C1565.690063,334.029388 1562.191895,334.205200 1559.048706,332.174591 
	C1556.876465,330.771149 1555.067749,328.803223 1552.500000,328.000000 
"/>
<path fill="none" opacity="1.000000" stroke="#000000" stroke-linecap="round" stroke-linejoin="round" stroke-width="3.000000"
	d="
M198.500000,634.500000 
	C195.014282,635.559875 192.479477,637.353882 192.468292,641.499939 
	C192.460190,644.502258 193.111374,646.987671 195.991013,648.516907 
	C198.368317,649.779419 200.793808,650.021423 202.966309,648.453308 
	C205.414780,646.686096 207.113327,643.989868 206.358856,641.036072 
	C205.689178,638.414307 204.684738,635.318115 201.001358,634.984985 
	C200.325150,634.923828 199.666656,634.666687 198.999985,634.500061 
"/>
<path fill="none" opacity="1.000000" stroke="#000000" stroke-linecap="round" stroke-linejoin="round" stroke-width="3.000000"
	d="
M1569.500000,634.500000 
	C1566.014282,635.559875 1563.479370,637.353882 1563.468140,641.499939 
	C1563.460083,644.502258 1564.111328,646.987671 1566.991089,648.516846 
	C1569.368408,649.779297 1571.793823,650.021484 1573.966309,648.453369 
	C1576.414795,646.686096 1578.113159,643.989868 1577.358765,641.036072 
	C1576.689087,638.414307 1575.684814,635.318176 1572.001343,634.984985 
	C1571.325195,634.923828 1570.666626,634.666687 1570.000000,634.500000 
"/>
<path fill="none" opacity="1.000000" stroke="#000000" stroke-linecap="round" stroke-linejoin="round" stroke-width="3.000000"
	d="
M260.500000,598.500000 
	C257.014282,599.559875 254.479462,601.353882 254.468277,605.499939 
	C254.460175,608.502258 255.111404,610.987610 257.991028,612.516846 
	C260.368347,613.779358 262.793793,614.021423 264.966309,612.453308 
	C267.414764,610.686096 269.113373,607.989868 268.358856,605.036072 
	C267.689240,602.414307 266.684723,599.318115 263.001373,598.984985 
	C262.325165,598.923828 261.666656,598.666626 261.000000,598.500000 
"/>
<path fill="none" opacity="1.000000" stroke="#000000" stroke-linecap="round" stroke-linejoin="round" stroke-width="4.000000"
	d="
M948.500000,279.000000 
	C951.038269,273.840332 956.908752,271.644257 959.529663,266.515167 
	C961.273865,263.101715 961.769592,259.890808 959.526123,256.482788 
	C957.546997,253.476242 954.894348,253.834824 951.995300,254.478790 
	C948.699219,255.210968 947.002319,257.279907 946.500000,260.500000 
"/>
<path fill="none" opacity="1.000000" stroke="#000000" stroke-linecap="round" stroke-linejoin="round" stroke-width="6.000000"
	d="
M1359.500000,334.500000 
	C1355.812744,332.406677 1355.252441,328.492981 1354.011108,324.996063 
	C1352.300781,320.178223 1350.667480,315.333069 1348.999390,310.500183 
	C1348.572388,309.263031 1347.701050,308.465637 1346.155640,307.804260 
	C1341.459595,312.545929 1341.115967,319.148987 1338.906738,324.964569 
	C1337.621948,328.346893 1337.128906,332.372894 1333.500000,334.500000 
"/>
<path fill="none" opacity="1.000000" stroke="#000000" stroke-linecap="round" stroke-linejoin="round" stroke-width="8.000000"
	d="
M1315.500000,307.500000 
	C1315.500000,315.834167 1315.500000,324.168335 1315.500000,332.238892 
	C1319.203369,334.229797 1322.907104,333.269897 1326.500000,333.500000 
"/>
<path fill="none" opacity="1.000000" stroke="#000000" stroke-linecap="round" stroke-linejoin="round" stroke-width="3.000000"
	d="
M792.000000,597.500000 
	C790.849609,593.739746 787.675476,594.194885 785.021912,594.632751 
	C783.343628,594.909790 781.444031,595.862915 781.420898,598.499329 
	C781.399536,600.931335 782.117004,602.419312 784.499695,603.001282 
	C785.834717,603.327454 787.212463,603.544678 788.490784,604.024597 
	C791.461487,605.139832 793.511414,608.555420 792.500000,610.500000 
	C791.409485,612.596741 786.152222,614.233826 784.024536,612.959045 
	C782.725159,612.180603 781.666687,611.000000 780.500000,610.000000 
"/>
<path fill="none" opacity="1.000000" stroke="#000000" stroke-linecap="round" stroke-linejoin="round" stroke-width="3.000000"
	d="
M743.000000,633.500000 
	C741.849609,629.739746 738.675415,630.194824 736.021912,630.632812 
	C734.343567,630.909729 732.443970,631.862915 732.420837,634.499329 
	C732.399536,636.931335 733.117004,638.419250 735.499695,639.001221 
	C736.834778,639.327393 738.212463,639.544678 739.490784,640.024597 
	C742.461487,641.139832 744.511414,644.555420 743.500061,646.500000 
	C742.409485,648.596741 737.152161,650.233826 735.024475,648.959106 
	C733.725098,648.180603 732.666687,647.000000 731.500000,646.000000 
"/>
<path fill="none" opacity="1.000000" stroke="#000000" stroke-linecap="round" stroke-linejoin="round" stroke-width="4.000000"
	d="
M165.500000,640.500000 
	C168.180405,640.276550 170.959381,641.102173 173.514191,639.522949 
	C175.255325,638.446594 176.967453,637.134033 176.400818,635.026672 
	C175.783020,632.729004 174.650848,630.389709 171.499603,630.487061 
	C169.322601,630.554321 167.141861,630.500000 164.500000,630.500000 
	C164.500000,636.823792 164.500000,642.661926 164.500000,648.500000 
"/>
<path fill="none" opacity="1.000000" stroke="#000000" stroke-linecap="round" stroke-linejoin="round" stroke-width="4.000000"
	d="
M310.000000,264.000000 
	C307.303040,263.757538 305.637634,261.156891 302.490692,261.339264 
	C298.661835,261.561188 295.637054,262.096741 293.975037,265.989349 
	C291.908752,270.828796 292.672821,275.359131 296.517517,278.478424 
	C299.651215,281.020874 302.995239,281.570709 306.520355,279.028198 
	C307.534088,278.297058 308.469330,277.150696 310.000000,277.500000 
"/>
<path fill="none" opacity="1.000000" stroke="#000000" stroke-linecap="round" stroke-linejoin="round" stroke-width="4.000000"
	d="
M880.000000,264.000000 
	C877.303040,263.757538 875.637634,261.156891 872.490662,261.339264 
	C868.661865,261.561157 865.637085,262.096771 863.975098,265.989349 
	C861.908752,270.828796 862.672791,275.359131 866.517517,278.478424 
	C869.651245,281.020874 872.995300,281.570740 876.520386,279.028229 
	C877.534058,278.297058 878.469360,277.150696 880.000000,277.500000 
"/>
<path fill="none" opacity="1.000000" stroke="#000000" stroke-linecap="round" stroke-linejoin="round" stroke-width="4.000000"
	d="
M904.500000,265.000000 
	C901.369934,263.252594 898.937683,260.184113 894.461426,261.352173 
	C891.869873,262.028442 890.947998,263.438568 890.553345,265.510162 
	C890.140259,267.678619 891.258911,268.995941 893.491150,269.536499 
	C895.532837,270.030975 897.542908,270.728851 899.488525,271.527924 
	C901.645996,272.413971 903.659485,273.565277 902.996765,276.499268 
	C902.397644,279.151306 900.891541,280.438873 898.003540,280.574707 
	C894.897400,280.720734 892.101501,280.151581 890.639709,277.425110 
	C889.998535,276.229309 889.111511,276.573578 888.500000,276.000000 
"/>
<path fill="none" opacity="1.000000" stroke="#000000" stroke-linecap="round" stroke-linejoin="round" stroke-width="4.000000"
	d="
M334.500000,265.000000 
	C331.369934,263.252594 328.937653,260.184143 324.461426,261.352203 
	C321.869843,262.028473 320.948029,263.438568 320.553375,265.510162 
	C320.140289,267.678619 321.258972,268.995941 323.491150,269.536499 
	C325.532867,270.031006 327.542908,270.728851 329.488525,271.527924 
	C331.645996,272.413971 333.659424,273.565247 332.996735,276.499268 
	C332.397705,279.151306 330.891541,280.438873 328.003510,280.574707 
	C324.897400,280.720734 322.101501,280.151581 320.639679,277.425110 
	C319.998566,276.229309 319.111481,276.573578 318.500000,276.000000 
"/>
<path fill="none" opacity="1.000000" stroke="#000000" stroke-linecap="round" stroke-linejoin="round" stroke-width="8.000000"
	d="
M1585.000000,321.000000 
	C1588.331299,320.792450 1591.658447,321.236053 1595.012939,320.564728 
	C1598.815552,319.803741 1600.057373,317.649872 1600.057373,314.000000 
	C1600.057373,310.350128 1598.858398,307.983490 1595.000732,307.494598 
	C1594.662231,307.451752 1594.337036,307.312347 1593.999512,307.253021 
	C1584.606689,305.603363 1583.404297,306.626129 1583.490723,316.000092 
	C1583.541382,321.499603 1583.500000,327.000000 1583.500000,332.500000 
"/>
<path fill="none" opacity="1.000000" stroke="#000000" stroke-linecap="round" stroke-linejoin="round" stroke-width="6.000000"
	d="
M1515.000000,318.000000 
	C1513.666626,319.166656 1512.378906,320.390930 1510.989868,321.487183 
	C1508.608643,323.366608 1508.479492,326.140533 1509.140259,328.460052 
	C1509.947998,331.295349 1512.219360,333.208954 1515.498169,333.519409 
	C1520.406128,333.984161 1524.640869,332.743195 1528.026611,328.371552 
	C1530.866943,332.189240 1534.416382,334.276123 1538.500000,335.500000 
"/>
<path fill="none" opacity="1.000000" stroke="#000000" stroke-linecap="round" stroke-linejoin="round" stroke-width="4.000000"
	d="
M1239.500000,285.500031 
	C1244.505493,290.505585 1249.511108,295.511139 1255.000000,301.000061 
	C1249.511108,306.488922 1244.505615,311.494476 1239.500000,316.500031 
"/>
<path fill="none" opacity="1.000000" stroke="#000000" stroke-linecap="round" stroke-linejoin="round" stroke-width="3.000000"
	d="
M1563.000000,602.500000 
	C1562.517822,600.648926 1561.291260,599.639404 1559.514038,598.963135 
	C1556.853027,597.950562 1554.656006,599.047913 1553.634033,601.067810 
	C1552.504395,603.300232 1554.279907,604.807922 1556.499023,605.503113 
	C1557.504761,605.818176 1558.516602,606.124329 1559.496582,606.508850 
	C1561.536377,607.309387 1563.985718,608.459900 1562.851074,610.931580 
	C1561.789185,613.244568 1559.300903,614.147217 1556.484375,613.039673 
	C1554.717041,612.344604 1553.482178,611.351074 1553.000000,609.500000 
"/>
<path fill="none" opacity="1.000000" stroke="#000000" stroke-linecap="round" stroke-linejoin="round" stroke-width="5.000000"
	d="
M1511.000000,280.000000 
	C1511.000000,276.666656 1510.892944,273.329254 1511.020508,270.000793 
	C1511.373901,260.780518 1504.305298,259.581116 1498.535767,262.569061 
	C1497.686401,263.008972 1497.027466,263.652069 1496.000000,263.500000 
"/>
<path fill="none" opacity="1.000000" stroke="#000000" stroke-linecap="round" stroke-linejoin="round" stroke-width="3.000000"
	d="
M387.500000,598.500000 
	C390.539459,599.707153 393.499786,600.869019 393.542053,604.999573 
	C393.574341,608.159912 393.230103,610.894287 390.011810,612.523376 
	C386.231903,614.436707 382.191132,613.010254 380.499969,609.000000 
	C378.794525,604.955811 380.732300,600.631714 385.003998,599.010559 
	C385.642029,598.768433 386.333313,598.666626 387.000000,598.500000 
"/>
<path fill="none" opacity="1.000000" stroke="#000000" stroke-linecap="round" stroke-linejoin="round" stroke-width="9.000000"
	d="
M296.000000,312.000000 
	C296.000000,321.666656 296.000000,331.333344 296.000000,341.000000 
"/>
<path fill="none" opacity="1.000000" stroke="#000000" stroke-linecap="round" stroke-linejoin="round" stroke-width="5.000000"
	d="
M380.000000,280.000000 
	C380.000000,271.665833 380.000000,263.331665 380.000000,254.722580 
	C378.342865,254.640625 376.921448,254.570312 375.500000,254.500000 
"/>
<path fill="none" opacity="1.000000" stroke="#000000" stroke-linecap="round" stroke-linejoin="round" stroke-width="9.000000"
	d="
M892.000000,312.000000 
	C892.000000,321.666656 892.000000,331.333344 892.000000,341.000000 
"/>
<path fill="none" opacity="1.000000" stroke="#000000" stroke-linecap="round" stroke-linejoin="round" stroke-width="4.000000"
	d="
M927.500000,276.500000 
	C921.411804,282.245850 914.730164,281.828308 911.499939,275.500031 
	C909.765076,272.101318 911.461792,264.749237 914.500000,262.500000 
	C917.217590,260.488098 923.140869,261.086853 926.020935,263.474731 
	C928.226562,265.303406 928.210266,267.552368 927.726501,270.500000 
	C922.510437,270.500000 917.255188,270.500000 912.000000,270.500000 
"/>
<path fill="none" opacity="1.000000" stroke="#000000" stroke-linecap="round" stroke-linejoin="round" stroke-width="9.000000"
	d="
M272.000000,312.000000 
	C272.000000,320.166656 271.990082,328.333374 272.003754,336.500000 
	C272.011719,341.253204 272.633942,341.882416 277.500214,341.990295 
	C279.998993,342.045715 282.500000,342.000000 285.000000,342.000000 
"/>
<path fill="none" opacity="1.000000" stroke="#000000" stroke-linecap="round" stroke-linejoin="round" stroke-width="9.000000"
	d="
M907.000000,312.000000 
	C907.000000,320.166656 906.990112,328.333374 907.003784,336.500000 
	C907.011780,341.253204 907.633911,341.882416 912.500244,341.990295 
	C914.998962,342.045715 917.500000,342.000000 920.000000,342.000000 
"/>
<path fill="none" opacity="1.000000" stroke="#000000" stroke-linecap="round" stroke-linejoin="round" stroke-width="4.000000"
	d="
M357.500000,276.500000 
	C351.411804,282.245850 344.730225,281.828278 341.499969,275.500000 
	C339.765167,272.101318 341.461792,264.749237 344.499969,262.499969 
	C347.217560,260.488098 353.140839,261.086853 356.020935,263.474731 
	C358.226593,265.303406 358.210236,267.552368 357.726532,270.500000 
	C352.510437,270.500000 347.255219,270.500000 342.000000,270.500000 
"/>
<path fill="none" opacity="1.000000" stroke="#000000" stroke-linecap="round" stroke-linejoin="round" stroke-width="8.000000"
	d="
M430.000000,311.000000 
	C426.500000,311.000000 422.999817,311.022430 419.500061,310.991699 
	C417.368439,310.972961 415.573547,311.679321 415.557678,314.000397 
	C415.526978,318.499054 416.269653,323.038452 415.877563,327.489227 
	C415.484100,331.954956 415.415344,336.333344 415.993866,340.878754 
	C420.440155,342.077332 424.999207,341.264160 429.500000,341.500000 
"/>
<path fill="none" opacity="1.000000" stroke="#000000" stroke-linecap="round" stroke-linejoin="round" stroke-width="9.000000"
	d="
M393.000000,313.000000 
	C393.000000,322.333344 393.000000,331.666656 393.000000,341.000000 
"/>
<path fill="none" opacity="1.000000" stroke="#000000" stroke-linecap="round" stroke-linejoin="round" stroke-width="3.000000"
	d="
M985.500000,638.500000 
	C984.833374,638.166626 984.041504,637.966980 983.519897,637.478699 
	C979.512146,633.727051 976.700134,633.568237 973.500000,637.000000 
	C970.830139,639.863098 970.830139,644.830139 973.500000,647.500000 
	C976.336975,650.336975 980.163269,650.256958 983.411560,646.914062 
	C984.092590,646.213196 984.744629,645.881714 985.500000,645.500000 
"/>
<path fill="none" opacity="1.000000" stroke="#000000" stroke-linecap="round" stroke-linejoin="round" stroke-width="3.000000"
	d="
M811.500000,602.000000 
	C806.743896,598.242432 802.820740,597.730713 800.000000,600.500000 
	C798.170959,602.295654 797.848206,609.074341 799.500061,610.999939 
	C802.159424,614.100220 805.946899,614.287537 809.501526,611.501953 
	C810.157349,610.988098 810.833313,610.500000 811.500000,610.000000 
"/>
<path fill="none" opacity="1.000000" stroke="#000000" stroke-linecap="round" stroke-linejoin="round" stroke-width="4.000000"
	d="
M1609.500000,266.500000 
	C1613.557617,266.441193 1616.661743,267.727417 1618.034302,271.988953 
	C1619.077393,275.227631 1617.725220,277.675598 1615.448730,279.433563 
	C1611.988770,282.105499 1606.690552,280.416687 1603.502441,275.998230 
	C1603.151123,275.511200 1602.833374,275.000000 1602.500000,274.500000 
"/>
<path fill="none" opacity="1.000000" stroke="#000000" stroke-linecap="round" stroke-linejoin="round" stroke-width="3.000000"
	d="
M264.500000,638.000000 
	C259.743927,634.242432 255.820755,633.730713 252.999985,636.500000 
	C251.170975,638.295654 250.848190,645.074341 252.500000,647.000000 
	C255.159393,650.100281 258.946899,650.287537 262.501556,647.502014 
	C263.157349,646.988098 263.833313,646.500000 264.500000,646.000000 
"/>
<path fill="none" opacity="1.000000" stroke="#000000" stroke-linecap="round" stroke-linejoin="round" stroke-width="3.000000"
	d="
M1603.500000,635.000000 
	C1600.663818,636.546387 1601.388916,639.635193 1600.558838,642.020447 
	C1599.792358,644.223022 1599.290771,646.509277 1597.770752,648.853577 
	C1594.749634,644.956848 1595.404053,639.695557 1592.399658,635.770508 
	C1589.911987,639.033691 1589.893433,643.168640 1588.000000,646.500000 
"/>
<path fill="none" opacity="1.000000" stroke="#000000" stroke-linecap="round" stroke-linejoin="round" stroke-width="3.000000"
	d="
M918.500000,601.500000 
	C916.286194,601.503784 915.444702,598.799866 912.996216,598.928467 
	C910.022644,599.084534 907.117371,599.212524 906.053650,602.517273 
	C905.046387,605.646667 904.746826,608.803345 907.476013,611.524048 
	C910.258240,614.297729 913.063782,613.785034 915.993103,611.988770 
	C916.822327,611.480225 917.175171,610.180847 918.500000,610.500000 
"/>
<path fill="none" opacity="1.000000" stroke="#000000" stroke-linecap="round" stroke-linejoin="round" stroke-width="7.000000"
	d="
M1611.000000,307.000000 
	C1611.000000,315.666656 1611.000000,324.333344 1611.000000,333.000000 
"/>
<path fill="none" opacity="1.000000" stroke="#000000" stroke-linecap="round" stroke-linejoin="round" stroke-width="3.000000"
	d="
M215.500000,598.500000 
	C218.772491,599.725220 218.071259,603.217957 219.447433,605.531250 
	C220.237259,606.858887 220.360397,608.565247 221.025192,609.988220 
	C223.371094,615.009827 222.803543,617.784058 218.500000,621.500000 
"/>
<path fill="none" opacity="1.000000" stroke="#000000" stroke-linecap="round" stroke-linejoin="round" stroke-width="7.000000"
	d="
M1756.000000,308.500000 
	C1756.000000,316.666656 1756.000000,324.833344 1756.000000,333.000000 
"/>
<path fill="none" opacity="1.000000" stroke="#000000" stroke-linecap="round" stroke-linejoin="round" stroke-width="3.000000"
	d="
M1579.500000,602.000000 
	C1577.149536,601.398132 1576.583740,597.401733 1572.951660,598.881470 
	C1571.417603,599.506348 1569.577148,599.029541 1569.474121,601.498901 
	C1569.390869,603.490295 1569.629517,605.085205 1571.996338,605.520081 
	C1573.184082,605.738281 1574.338013,606.151550 1575.499023,606.503296 
	C1577.724487,607.177429 1579.201904,608.518677 1578.458618,610.987549 
	C1577.589844,613.873718 1575.085083,613.030151 1573.000000,612.998962 
	C1570.680420,612.964233 1569.684937,611.407654 1569.000000,609.500000 
"/>
<path fill="none" opacity="1.000000" stroke="#000000" stroke-linecap="round" stroke-linejoin="round" stroke-width="3.000000"
	d="
M925.500000,638.000000 
	C923.149597,637.398132 922.583679,633.401611 918.951660,634.881348 
	C917.417664,635.506287 915.577026,635.029541 915.474060,637.498901 
	C915.391052,639.490295 915.629517,641.085144 917.996338,641.520081 
	C919.184143,641.738342 920.337891,642.151550 921.499023,642.503235 
	C923.724548,643.177368 925.201904,644.518677 924.458740,646.987549 
	C923.589905,649.873718 921.085144,649.030151 919.000000,648.998962 
	C916.680359,648.964233 915.684937,647.407654 915.000000,645.500000 
"/>
<path fill="none" opacity="1.000000" stroke="#000000" stroke-linecap="round" stroke-linejoin="round" stroke-width="4.000000"
	d="
M1559.500000,264.500000 
	C1557.836304,262.399292 1555.740967,260.632477 1553.018677,261.106903 
	C1550.657227,261.518402 1547.332275,261.144104 1546.995361,264.999603 
	C1546.705566,268.317200 1549.255005,269.745178 1551.549683,270.291016 
	C1553.028198,270.642731 1554.364502,271.475433 1555.989136,271.621368 
	C1558.281860,271.827362 1560.151978,273.867157 1559.828857,275.973755 
	C1559.446289,278.468781 1557.474854,280.332550 1554.501099,280.517731 
	C1551.016724,280.734741 1548.251465,279.663666 1546.500000,276.500000 
"/>
<path fill="none" opacity="1.000000" stroke="#000000" stroke-linecap="round" stroke-linejoin="round" stroke-width="3.000000"
	d="
M1546.000000,635.500000 
	C1542.837280,630.955750 1537.680786,629.022034 1534.000000,631.000000 
	C1529.822998,633.244629 1527.777588,638.925781 1529.499878,643.500061 
	C1531.059937,647.643616 1535.439941,649.937866 1540.000000,649.000061 
	C1544.206787,648.134827 1546.060547,645.710754 1546.500000,640.499512 
	C1543.541138,639.592712 1540.500610,640.154907 1537.500000,640.000000 
"/>
<path fill="none" opacity="1.000000" stroke="#000000" stroke-linecap="round" stroke-linejoin="round" stroke-width="7.000000"
	d="
M1644.000000,307.000000 
	C1644.000000,312.500000 1643.792603,318.010895 1644.080688,323.495758 
	C1644.243286,326.591003 1640.978149,329.289856 1643.250000,332.500000 
"/>
<path fill="none" opacity="1.000000" stroke="#000000" stroke-linecap="round" stroke-linejoin="round" stroke-width="4.000000"
	d="
M270.000000,263.500000 
	C271.450317,263.900635 272.030396,262.581696 273.025116,262.046722 
	C277.998993,259.371826 283.338531,261.898804 284.467682,267.506500 
	C285.333618,271.807129 285.399292,276.166656 284.500000,280.500000 
"/>
<path fill="none" opacity="1.000000" stroke="#000000" stroke-linecap="round" stroke-linejoin="round" stroke-width="3.000000"
	d="
M983.500000,602.500000 
	C978.895142,605.084839 977.260315,607.991089 979.000000,610.500000 
	C981.411621,613.978271 985.239929,614.348083 989.496582,611.494873 
	C990.287842,610.964478 991.667175,611.000549 991.460205,609.069458 
	C988.969910,606.857788 985.863098,604.721130 983.638916,601.890869 
	C982.294861,600.180481 979.502014,597.553955 983.009216,595.012695 
	C985.675842,593.080444 987.919800,593.458618 989.500000,596.500000 
"/>
<path fill="none" opacity="1.000000" stroke="#000000" stroke-linecap="round" stroke-linejoin="round" stroke-width="6.000000"
	d="
M1642.000000,329.000000 
	C1639.227417,329.049042 1638.308594,326.708801 1637.030884,324.977173 
	C1634.754150,321.891754 1632.549927,318.738403 1630.542969,315.473541 
	C1629.304077,313.458069 1627.674561,312.198517 1625.500000,311.500000 
"/>
<path fill="none" opacity="1.000000" stroke="#000000" stroke-linecap="round" stroke-linejoin="round" stroke-width="3.000000"
	d="
M813.500000,646.000000 
	C807.783936,650.515991 804.596069,650.527222 801.445923,646.542725 
	C799.145264,643.632690 800.187134,640.816772 801.054138,638.016785 
	C802.002075,634.955200 805.071533,634.413391 807.485168,634.650879 
	C811.169189,635.013550 813.216248,637.695618 813.505737,641.513000 
	C809.333313,642.204224 805.166687,642.373474 801.000000,641.500000 
"/>
<path fill="none" opacity="1.000000" stroke="#000000" stroke-linecap="round" stroke-linejoin="round" stroke-width="6.000000"
	d="
M1418.500000,328.500000 
	C1415.663086,327.837585 1414.048340,325.674347 1412.516968,323.488129 
	C1410.448975,320.535767 1408.502319,317.498474 1406.499146,314.500549 
	C1405.387695,312.837341 1404.455200,310.938568 1402.000000,311.000000 
"/>
<path fill="none" opacity="1.000000" stroke="#000000" stroke-linecap="round" stroke-linejoin="round" stroke-width="7.000000"
	d="
M1400.750000,307.500000 
	C1403.021851,310.710144 1399.756592,313.408997 1399.919189,316.504242 
	C1400.207275,321.989105 1400.000000,327.500000 1400.000000,333.000000 
"/>
<path fill="none" opacity="1.000000" stroke="#000000" stroke-linecap="round" stroke-linejoin="round" stroke-width="5.000000"
	d="
M839.000000,264.000000 
	C841.545105,264.150665 842.774719,261.494812 845.492188,261.351929 
	C851.139709,261.055023 853.785339,262.968231 854.023926,268.498962 
	C854.196472,272.498901 853.406067,276.538635 854.500000,280.500000 
"/>
<path fill="none" opacity="1.000000" stroke="#000000" stroke-linecap="round" stroke-linejoin="round" stroke-width="3.000000"
	d="
M1508.500000,610.000000 
	C1502.783936,614.515991 1499.595947,614.527283 1496.446045,610.542725 
	C1494.145264,607.632690 1495.187256,604.816833 1496.054199,602.016785 
	C1497.002075,598.955261 1500.071533,598.413330 1502.485107,598.650940 
	C1506.169312,599.013550 1508.216187,601.695618 1508.505737,605.513000 
	C1504.333374,606.204224 1500.166626,606.373474 1496.000000,605.500000 
"/>
<path fill="none" opacity="1.000000" stroke="#000000" stroke-linecap="round" stroke-linejoin="round" stroke-width="3.000000"
	d="
M374.500000,646.000000 
	C368.783936,650.515991 365.595978,650.527283 362.445892,646.542786 
	C360.145203,643.632690 361.187225,640.816833 362.054138,638.016785 
	C363.002075,634.955261 366.071503,634.413330 368.485138,634.650940 
	C372.169220,635.013550 374.216248,637.695618 374.505768,641.513000 
	C370.333344,642.204224 366.166656,642.373474 362.000000,641.500000 
"/>
<path fill="none" opacity="1.000000" stroke="#000000" stroke-linecap="round" stroke-linejoin="round" stroke-width="4.000000"
	d="
M1537.250000,265.000000 
	C1535.532837,265.363251 1535.026123,263.759674 1534.000000,263.000000 
	C1530.175781,260.168732 1525.546021,260.839722 1521.935913,263.925018 
	C1518.322266,267.013428 1518.722900,273.439941 1521.054688,276.963776 
	C1523.704224,280.967804 1528.479370,281.611694 1533.000488,279.000824 
	C1534.164062,278.328857 1535.333374,277.666656 1536.500000,276.999969 
"/>
<path fill="none" opacity="1.000000" stroke="#000000" stroke-linecap="round" stroke-linejoin="round" stroke-width="3.000000"
	d="
M317.500000,610.000000 
	C315.901306,610.228516 315.175873,611.701416 313.975830,612.461853 
	C310.965698,614.369202 307.885712,613.774597 305.565491,611.435059 
	C302.915436,608.762939 302.967865,605.333313 304.515411,602.007141 
	C305.922760,598.982422 308.492615,598.565918 311.503540,598.973755 
	C315.421936,599.504395 316.728851,601.875244 316.500122,605.504944 
	C312.533569,606.472107 308.498810,605.804993 304.500000,606.000000 
"/>
<path fill="none" opacity="1.000000" stroke="#000000" stroke-linecap="round" stroke-linejoin="round" stroke-width="3.000000"
	d="
M857.500000,610.000000 
	C851.783936,614.515991 848.596069,614.527222 845.445923,610.542725 
	C843.145264,607.632690 844.187134,604.816772 845.054138,602.016785 
	C846.002075,598.955200 849.071533,598.413330 851.485168,598.650940 
	C855.169189,599.013550 857.216248,601.695618 857.505737,605.513000 
	C853.333313,606.204224 849.166687,606.373474 845.000000,605.500000 
"/>
<path fill="none" opacity="1.000000" stroke="#000000" stroke-linecap="round" stroke-linejoin="round" stroke-width="8.000000"
	d="
M1420.500000,307.500000 
	C1419.891602,314.492249 1421.870483,321.635651 1419.113525,328.545288 
	C1418.711792,329.552032 1419.833374,331.166656 1420.250000,332.499969 
"/>
<path fill="none" opacity="1.000000" stroke="#000000" stroke-linecap="round" stroke-linejoin="round" stroke-width="3.000000"
	d="
M1597.500000,610.000000 
	C1595.500488,610.445251 1594.993774,612.921692 1592.510376,613.126404 
	C1588.952026,613.419739 1585.352783,611.974304 1584.500000,609.000000 
	C1583.449951,605.337402 1585.179321,600.396057 1588.000000,598.999939 
	C1590.751953,597.637817 1594.435303,599.239746 1596.554321,602.464355 
	C1597.105469,603.303223 1597.700928,603.952942 1597.379395,605.389893 
	C1593.607910,606.628540 1589.506226,605.741882 1585.500000,606.000000 
"/>
<path fill="none" opacity="1.000000" stroke="#000000" stroke-linecap="round" stroke-linejoin="round" stroke-width="3.000000"
	d="
M965.500000,610.000000 
	C963.500488,610.445251 962.993774,612.921814 960.510437,613.126526 
	C956.952026,613.419800 953.352661,611.974304 952.499939,609.000000 
	C951.449829,605.337463 953.179382,600.396118 956.000000,599.000061 
	C958.751953,597.637939 962.435303,599.239746 964.554199,602.464417 
	C965.105469,603.303223 965.700989,603.952942 965.379333,605.389893 
	C961.607910,606.628540 957.506287,605.741882 953.500000,606.000000 
"/>
<path fill="none" opacity="1.000000" stroke="#000000" stroke-linecap="round" stroke-linejoin="round" stroke-width="3.000000"
	d="
M1044.500000,646.000000 
	C1042.500488,646.445251 1041.993774,648.921753 1039.510376,649.126465 
	C1035.952026,649.419739 1032.352661,647.974304 1031.500000,645.000000 
	C1030.449829,641.337402 1032.179321,636.396179 1035.000000,635.000061 
	C1037.751953,633.637939 1041.435303,635.239746 1043.554199,638.464355 
	C1044.105469,639.303223 1044.700928,639.952942 1044.379395,641.389893 
	C1040.607910,642.628540 1036.506226,641.741882 1032.500000,642.000000 
"/>
<path fill="none" opacity="1.000000" stroke="#000000" stroke-linecap="round" stroke-linejoin="round" stroke-width="8.000000"
	d="
M1623.750000,307.500000 
	C1624.984253,309.792236 1624.644653,312.043762 1624.072388,314.516754 
	C1622.702148,320.437744 1623.811523,326.504028 1623.500000,332.500000 
"/>
<path fill="none" opacity="1.000000" stroke="#000000" stroke-linecap="round" stroke-linejoin="round" stroke-width="3.000000"
	d="
M1424.000000,598.500000 
	C1417.804077,600.768921 1417.117676,601.719360 1417.500122,607.500000 
	C1417.706665,610.622375 1420.823975,613.500000 1424.000000,613.500000 
	C1427.176025,613.500000 1430.293579,610.622375 1430.500122,607.500000 
	C1430.880859,601.743774 1430.239868,600.782349 1424.500000,598.500000 
"/>
<path fill="none" opacity="1.000000" stroke="#000000" stroke-linecap="round" stroke-linejoin="round" stroke-width="3.000000"
	d="
M831.500000,637.500000 
	C829.429993,637.845337 829.241821,635.305359 827.507935,634.960022 
	C824.310303,634.323181 821.563477,634.949951 819.526001,637.520630 
	C817.645447,639.893555 818.204651,645.405823 820.520081,647.477539 
	C822.885681,649.594177 825.788940,650.033569 828.453857,648.423645 
	C830.886353,646.954285 833.196350,645.323547 832.628052,641.481079 
	C832.049072,637.566711 832.500000,633.500000 832.500000,629.500000 
"/>
<path fill="none" opacity="1.000000" stroke="#000000" stroke-linecap="round" stroke-linejoin="round" stroke-width="3.000000"
	d="
M775.000000,634.500000 
	C770.917664,635.339722 768.405457,637.431885 768.459290,642.000488 
	C768.499451,645.402527 769.802185,647.772705 773.002502,648.993469 
	C775.258423,649.854004 780.693481,648.018433 782.000000,646.000000 
	C783.443237,643.770325 782.042480,639.006653 780.096191,636.910706 
	C778.717590,635.426025 777.053345,635.237305 775.500000,634.500000 
"/>
<path fill="none" opacity="1.000000" stroke="#000000" stroke-linecap="round" stroke-linejoin="round" stroke-width="3.000000"
	d="
M901.000000,634.500000 
	C896.917664,635.339722 894.405518,637.431885 894.459351,642.000488 
	C894.499512,645.402527 895.802185,647.772705 899.002502,648.993469 
	C901.258484,649.853943 906.693604,648.018494 908.000061,646.000061 
	C909.443359,643.770386 908.042419,639.006714 906.096191,636.910706 
	C904.717590,635.426025 903.053345,635.237305 901.500000,634.500000 
"/>
<path fill="none" opacity="1.000000" stroke="#000000" stroke-linecap="round" stroke-linejoin="round" stroke-width="3.000000"
	d="
M823.000000,598.500000 
	C818.917664,599.339722 816.405518,601.431885 816.459473,606.000488 
	C816.499512,609.402527 817.802185,611.772705 821.002502,612.993469 
	C823.258423,613.854004 828.693542,612.018494 830.000061,610.000061 
	C831.443237,607.770325 830.042542,603.006653 828.096191,600.910645 
	C826.717590,599.426025 825.053345,599.237305 823.500000,598.500000 
"/>
<path fill="none" opacity="1.000000" stroke="#000000" stroke-linecap="round" stroke-linejoin="round" stroke-width="4.000000"
	d="
M1475.500000,648.500000 
	C1475.500000,643.333313 1475.544434,638.166077 1475.471436,633.000427 
	C1475.451172,631.569397 1476.330688,629.430115 1473.500000,629.500000 
"/>
<path fill="none" opacity="1.000000" stroke="#000000" stroke-linecap="round" stroke-linejoin="round" stroke-width="3.000000"
	d="
M919.500000,599.500000 
	C918.771362,603.308899 919.189331,607.237366 919.278748,610.993347 
	C919.376709,615.106445 919.140808,618.428101 915.462891,620.431885 
	C912.163513,622.229431 909.138489,620.811646 906.491821,618.509399 
	C906.219543,618.272583 905.833313,618.166626 905.500000,618.000000 
"/>
<path fill="none" opacity="1.000000" stroke="#000000" stroke-linecap="round" stroke-linejoin="round" stroke-width="3.000000"
	d="
M1690.000000,602.500000 
	C1685.588745,607.069946 1685.099609,610.998901 1689.045288,612.906433 
	C1692.206299,614.434570 1695.405762,613.492371 1698.000000,611.000000 
"/>
<path fill="none" opacity="1.000000" stroke="#000000" stroke-linecap="round" stroke-linejoin="round" stroke-width="3.000000"
	d="
M1635.500000,601.500000 
	C1637.569946,601.845337 1637.758179,599.305420 1639.492065,598.960083 
	C1642.689697,598.323181 1645.436768,598.949890 1647.474121,601.520569 
	C1649.354614,603.893494 1648.795288,609.405823 1646.479980,611.477600 
	C1644.114380,613.594177 1641.303711,613.898743 1638.517456,612.466064 
	C1635.556641,610.943604 1633.888184,608.793335 1634.391235,604.985657 
	C1634.888916,601.218079 1634.500000,597.333313 1634.500000,593.500000 
"/>
<path fill="none" opacity="1.000000" stroke="#000000" stroke-linecap="round" stroke-linejoin="round" stroke-width="3.000000"
	d="
M224.500000,637.500000 
	C217.645493,632.263123 213.885483,635.045959 211.975739,639.990601 
	C210.786041,643.070923 212.149536,645.312561 213.998581,647.501221 
	C215.949539,649.810486 218.821991,649.680847 220.929901,648.826965 
	C223.362518,647.841553 226.091705,646.460632 225.615585,642.486145 
	C225.103836,638.214172 225.500000,633.833313 225.500000,629.500000 
"/>
<path fill="none" opacity="1.000000" stroke="#000000" stroke-linecap="round" stroke-linejoin="round" stroke-width="3.000000"
	d="
M1487.500000,601.500000 
	C1480.645508,596.263123 1476.885620,599.046021 1474.975830,603.990662 
	C1473.786133,607.070984 1475.149536,609.312500 1476.998535,611.501221 
	C1478.949585,613.810425 1481.822021,613.680786 1483.929932,612.826965 
	C1486.362549,611.841431 1489.091797,610.460632 1488.615723,606.486145 
	C1488.103882,602.214111 1488.500000,597.833313 1488.500000,593.500000 
"/>
<path fill="none" opacity="1.000000" stroke="#000000" stroke-linecap="round" stroke-linejoin="round" stroke-width="4.000000"
	d="
M848.000000,629.500000 
	C846.872559,635.808044 847.807739,642.170349 847.500000,648.500000 
"/>
<path fill="none" opacity="1.000000" stroke="#000000" stroke-linecap="round" stroke-linejoin="round" stroke-width="4.000000"
	d="
M1413.500000,594.500000 
	C1409.992065,594.500000 1406.484131,594.500000 1402.500000,594.500000 
	C1402.500000,600.823792 1402.500000,606.661926 1402.500000,612.500000 
"/>
<path fill="none" opacity="1.000000" stroke="#000000" stroke-linecap="round" stroke-linejoin="round" stroke-width="4.000000"
	d="
M1655.500000,593.500000 
	C1655.500000,599.833313 1655.500000,606.166687 1655.500000,612.500000 
"/>
<path fill="none" opacity="1.000000" stroke="#000000" stroke-linecap="round" stroke-linejoin="round" stroke-width="4.000000"
	d="
M837.500000,593.500000 
	C837.500000,599.833313 837.500000,606.166687 837.500000,612.500000 
"/>
<path fill="none" opacity="1.000000" stroke="#000000" stroke-linecap="round" stroke-linejoin="round" stroke-width="4.000000"
	d="
M881.500000,594.500000 
	C878.324585,594.500000 875.149109,594.500000 871.750000,594.500000 
	C871.750000,600.823792 871.750000,606.661926 871.750000,612.591309 
	C874.795776,613.417297 878.166504,612.836853 881.500000,613.000000 
"/>
<path fill="none" opacity="1.000000" stroke="#000000" stroke-linecap="round" stroke-linejoin="round" stroke-width="4.000000"
	d="
M1608.500000,631.500000 
	C1608.500000,635.333313 1608.487793,639.166748 1608.502930,643.000000 
	C1608.524536,648.466980 1608.895142,648.829041 1614.500000,649.000000 
"/>
<path fill="none" opacity="1.000000" stroke="#000000" stroke-linecap="round" stroke-linejoin="round" stroke-width="3.000000"
	d="
M356.500000,602.000000 
	C351.457703,597.772522 349.528137,597.772522 345.486359,602.014282 
	C346.367004,604.332886 348.240387,605.406067 350.499817,606.000732 
	C352.937195,606.642151 356.005646,606.841431 355.431732,610.489258 
	C355.025665,613.070190 350.751373,614.051758 347.514404,612.470520 
	C346.913544,612.177002 346.500000,611.500000 346.000000,611.000000 
"/>
<path fill="none" opacity="1.000000" stroke="#000000" stroke-linecap="round" stroke-linejoin="round" stroke-width="4.000000"
	d="
M932.500000,631.500000 
	C932.500000,637.000000 932.500000,642.500000 932.500000,647.999939 
	C933.941223,649.460571 935.786743,648.899536 937.500000,649.000000 
"/>
<path fill="none" opacity="1.000000" stroke="#000000" stroke-linecap="round" stroke-linejoin="round" stroke-width="4.000000"
	d="
M381.500000,631.500000 
	C381.500000,637.000000 381.500000,642.500000 381.500000,647.999939 
	C382.941223,649.460571 384.786774,648.899536 386.500000,649.000000 
"/>
<path fill="none" opacity="1.000000" stroke="#000000" stroke-linecap="round" stroke-linejoin="round" stroke-width="4.000000"
	d="
M270.500000,631.500000 
	C270.500000,635.333313 270.487823,639.166748 270.502930,643.000000 
	C270.524475,648.466980 270.895172,648.829041 276.500000,649.000000 
"/>
<path fill="none" opacity="1.000000" stroke="#000000" stroke-linecap="round" stroke-linejoin="round" stroke-width="4.000000"
	d="
M275.500000,595.500000 
	C275.500000,601.000000 275.500000,606.500000 275.500000,611.999939 
	C276.941223,613.460571 278.786774,612.899536 280.500000,613.000000 
"/>
<path fill="none" opacity="1.000000" stroke="#000000" stroke-linecap="round" stroke-linejoin="round" stroke-width="4.000000"
	d="
M370.500000,595.500000 
	C370.500000,599.333313 370.487793,603.166748 370.502899,607.000000 
	C370.524475,612.466980 370.895142,612.829041 376.500000,613.000000 
"/>
<path fill="none" opacity="1.000000" stroke="#000000" stroke-linecap="round" stroke-linejoin="round" stroke-width="3.000000"
	d="
M333.500000,602.000000 
	C328.457703,597.772522 326.528137,597.772522 322.486359,602.014282 
	C323.367004,604.332886 325.240356,605.406128 327.499786,606.000793 
	C329.937195,606.642151 333.005676,606.841492 332.431732,610.489258 
	C332.025665,613.070190 327.751373,614.051758 324.514374,612.470520 
	C323.913544,612.177002 323.500000,611.500000 323.000000,611.000000 
"/>
<path fill="none" opacity="1.000000" stroke="#000000" stroke-linecap="round" stroke-linejoin="round" stroke-width="4.000000"
	d="
M1613.000000,266.500031 
	C1613.333374,266.166687 1613.617798,265.754242 1614.007812,265.512573 
	C1617.028809,263.640564 1619.026611,261.119293 1617.423584,257.534149 
	C1616.006226,254.364197 1610.438843,252.899826 1607.020630,254.542969 
	C1605.390991,255.326385 1603.734375,256.350952 1603.500000,258.500000 
"/>
<path fill="none" opacity="1.000000" stroke="#000000" stroke-linecap="round" stroke-linejoin="round" stroke-width="4.000000"
	d="
M408.500000,630.500000 
	C405.656891,630.500000 402.813782,630.500000 399.500000,630.500000 
	C399.500000,636.823792 399.500000,642.661926 399.500000,648.500000 
"/>
<path fill="none" opacity="1.000000" stroke="#000000" stroke-linecap="round" stroke-linejoin="round" stroke-width="7.000000"
	d="
M1469.000000,320.000000 
	C1474.666626,320.000000 1480.333374,320.000000 1486.000000,320.000000 
"/>
<path fill="none" opacity="1.000000" stroke="#000000" stroke-linecap="round" stroke-linejoin="round" stroke-width="5.000000"
	d="
M268.500000,253.500000 
	C269.523590,262.500000 269.255585,271.500000 268.500000,280.500000 
"/>
<path fill="none" opacity="1.000000" stroke="#000000" stroke-linecap="round" stroke-linejoin="round" stroke-width="4.000000"
	d="
M422.500000,631.500000 
	C422.500000,635.666687 422.695190,639.845154 422.442963,643.996521 
	C422.209015,647.847534 423.877289,649.289368 427.500000,649.000000 
"/>
<path fill="none" opacity="1.000000" stroke="#000000" stroke-linecap="round" stroke-linejoin="round" stroke-width="7.000000"
	d="
M351.000000,334.000000 
	C356.500000,335.795197 362.000000,335.357147 367.500000,334.000000 
"/>
<path fill="none" opacity="1.000000" stroke="#000000" stroke-linecap="round" stroke-linejoin="round" stroke-width="7.000000"
	d="
M238.000000,334.000000 
	C243.500000,335.691376 249.000000,335.425842 254.500000,334.000000 
"/>
<path fill="none" opacity="1.000000" stroke="#000000" stroke-linecap="round" stroke-linejoin="round" stroke-width="3.000000"
	d="
M1437.000000,598.500000 
	C1437.000000,600.666687 1436.985474,602.833435 1437.003662,605.000000 
	C1437.027710,607.884583 1436.758301,610.737000 1439.967529,612.557190 
	C1443.274048,614.432495 1445.478882,612.276245 1448.000000,611.000000 
"/>
<path fill="none" opacity="1.000000" stroke="#000000" stroke-linecap="round" stroke-linejoin="round" stroke-width="4.000000"
	d="
M991.500000,631.500000 
	C991.500000,635.666687 991.695190,639.845154 991.442993,643.996521 
	C991.209045,647.847534 992.877319,649.289368 996.500000,649.000000 
"/>
<path fill="none" opacity="1.000000" stroke="#000000" stroke-linecap="round" stroke-linejoin="round" stroke-width="5.000000"
	d="
M838.500000,253.500000 
	C838.050049,262.500000 837.617065,271.500000 838.500000,280.500000 
"/>
<path fill="none" opacity="1.000000" stroke="#000000" stroke-linecap="round" stroke-linejoin="round" stroke-width="4.000000"
	d="
M953.500000,635.500000 
	C953.500000,638.166687 953.452759,640.834351 953.512146,643.499756 
	C953.584595,646.756531 956.078003,649.433533 959.000000,649.500000 
	C961.661743,649.560486 965.415588,646.147217 965.484680,643.499573 
	C965.554199,640.834717 965.500000,638.166687 965.500000,635.500000 
"/>
<path fill="none" opacity="1.000000" stroke="#000000" stroke-linecap="round" stroke-linejoin="round" stroke-width="5.000000"
	d="
M1495.000000,254.000000 
	C1495.000000,262.666656 1495.000000,271.333344 1495.000000,280.000000 
"/>
<path fill="none" opacity="1.000000" stroke="#000000" stroke-linecap="round" stroke-linejoin="round" stroke-width="3.000000"
	d="
M1001.500000,635.500000 
	C1001.500000,638.000000 1001.209106,640.541260 1001.556885,642.991943 
	C1002.448975,649.278870 1006.364807,651.069153 1010.967834,647.952515 
	C1012.284912,647.060608 1012.779114,647.771179 1013.500000,648.500000 
"/>
<path fill="none" opacity="1.000000" stroke="#000000" stroke-linecap="round" stroke-linejoin="round" stroke-width="3.000000"
	d="
M232.500000,635.500000 
	C232.500000,638.000000 232.209106,640.541260 232.556870,642.991943 
	C233.449020,649.278931 237.364868,651.069153 241.967834,647.952515 
	C243.284988,647.060669 243.779099,647.771179 244.500000,648.500000 
"/>
<path fill="none" opacity="1.000000" stroke="#000000" stroke-linecap="round" stroke-linejoin="round" stroke-width="3.000000"
	d="
M235.500000,620.500000 
	C235.500000,615.666687 235.790115,610.810608 235.414581,606.006653 
	C235.071274,601.615173 237.653656,600.219788 240.989105,598.970886 
	C244.518158,597.649475 246.997574,599.608215 248.357040,602.078674 
	C250.059296,605.172119 249.460648,608.780762 246.948059,611.451111 
	C244.653748,613.889526 241.898529,614.329590 238.940842,612.077698 
	C238.348846,611.626953 237.654572,610.530212 236.500000,611.000000 
"/>
<path fill="none" opacity="1.000000" stroke="#000000" stroke-linecap="round" stroke-linejoin="round" stroke-width="3.000000"
	d="
M1616.000000,602.500000 
	C1618.153931,600.591736 1619.748413,597.660828 1623.509521,598.972595 
	C1627.554688,600.383362 1627.670654,603.561584 1627.514648,607.000671 
	C1627.431763,608.830200 1627.500000,610.666687 1627.500000,612.500000 
"/>
<path fill="none" opacity="1.000000" stroke="#000000" stroke-linecap="round" stroke-linejoin="round" stroke-width="3.000000"
	d="
M751.500000,636.500000 
	C759.002197,632.800537 762.488892,635.019104 762.499695,643.500000 
	C762.501831,645.166687 762.500000,646.833313 762.500000,648.500000 
"/>
<path fill="none" opacity="1.000000" stroke="#000000" stroke-linecap="round" stroke-linejoin="round" stroke-width="3.000000"
	d="
M855.500000,635.500000 
	C856.136536,636.650513 856.813171,636.820007 858.020874,636.031982 
	C863.004089,632.780884 867.002380,635.072998 867.476929,642.001587 
	C867.624634,644.158142 867.500000,646.333313 867.500000,648.500000 
"/>
<path fill="none" opacity="1.000000" stroke="#000000" stroke-linecap="round" stroke-linejoin="round" stroke-width="3.000000"
	d="
M1456.500000,599.500000 
	C1457.136597,600.650513 1457.770386,600.671021 1459.027710,600.056641 
	C1464.923950,597.175476 1468.463501,599.458008 1468.498047,606.000000 
	C1468.509521,608.166626 1468.500000,610.333313 1468.500000,612.500000 
"/>
<path fill="none" opacity="1.000000" stroke="#000000" stroke-linecap="round" stroke-linejoin="round" stroke-width="3.000000"
	d="
M327.500000,635.500000 
	C326.851227,639.291931 324.984100,636.345581 324.033081,635.925171 
	C319.664490,633.993713 316.348938,634.782227 314.500000,638.500000 
	C312.940704,641.635376 314.445526,646.702576 317.503357,648.494263 
	C319.765472,649.819641 321.859344,649.905945 324.058472,648.070007 
	C324.937500,647.336182 326.734283,645.526733 327.500000,648.500000 
"/>
<path fill="none" opacity="1.000000" stroke="#000000" stroke-linecap="round" stroke-linejoin="round" stroke-width="3.000000"
	d="
M1620.500000,636.500000 
	C1628.002197,632.800537 1631.489136,635.019104 1631.499878,643.500000 
	C1631.501953,645.166687 1631.500000,646.833313 1631.500000,648.500000 
"/>
<path fill="none" opacity="1.000000" stroke="#000000" stroke-linecap="round" stroke-linejoin="round" stroke-width="4.000000"
	d="
M286.500000,601.500000 
	C289.224426,599.346558 291.838989,597.026733 295.529785,599.962524 
	C297.271606,601.348083 297.619324,602.971680 297.527069,605.001221 
	C297.413696,607.496094 297.500000,610.000000 297.500000,612.500000 
"/>
<path fill="none" opacity="1.000000" stroke="#000000" stroke-linecap="round" stroke-linejoin="round" stroke-width="3.000000"
	d="
M618.500061,285.999939 
	C623.419189,290.916962 628.338318,295.833984 633.505554,300.999054 
	C628.170898,306.332123 623.085449,311.416046 617.999939,316.499969 
"/>
<path fill="none" opacity="1.000000" stroke="#000000" stroke-linecap="round" stroke-linejoin="round" stroke-width="3.000000"
	d="
M1698.500000,597.000000 
	C1697.666626,596.333313 1696.790527,595.713074 1696.008423,594.990967 
	C1693.960815,593.100220 1692.272705,593.742371 1690.476318,595.475403 
	C1688.295532,597.579224 1689.402466,600.398926 1690.622070,601.342041 
	C1695.510132,605.121216 1698.582642,610.959106 1704.500000,613.500000 
"/>
<path fill="none" opacity="1.000000" stroke="#000000" stroke-linecap="round" stroke-linejoin="round" stroke-width="4.000000"
	d="
M935.000000,601.000000 
	C936.620789,600.605164 937.568298,599.060913 939.491821,598.901428 
	C942.916809,598.617310 945.337341,600.128479 945.474426,603.501038 
	C945.596191,606.496094 945.500000,609.500000 945.500000,612.500000 
"/>
<path fill="none" opacity="1.000000" stroke="#000000" stroke-linecap="round" stroke-linejoin="round" stroke-width="4.000000"
	d="
M888.000000,601.000000 
	C889.620789,600.605164 890.568298,599.060913 892.491821,598.901428 
	C895.916809,598.617371 898.337341,600.128479 898.474487,603.501038 
	C898.596252,606.496094 898.500000,609.500000 898.500000,612.500000 
"/>
<path fill="none" opacity="1.000000" stroke="#000000" stroke-linecap="round" stroke-linejoin="round" stroke-width="6.000000"
	d="
M1525.000000,309.000000 
	C1523.036743,305.208221 1519.363525,306.207855 1516.528320,306.672485 
	C1513.261108,307.207855 1512.756592,315.311310 1516.066895,317.393616 
	C1520.608398,320.250397 1523.399292,324.792877 1527.688599,327.894775 
	C1528.419189,326.606079 1530.179077,325.986267 1530.574585,324.014954 
	C1530.960938,322.088257 1532.752563,321.193481 1534.500000,320.500000 
"/>
<path fill="none" opacity="1.000000" stroke="#000000" stroke-linecap="round" stroke-linejoin="round" stroke-width="5.000000"
	d="
M944.500000,280.000000 
	C950.833313,280.000000 957.166687,280.000000 963.500000,280.000000 
"/>
<path fill="none" opacity="1.000000" stroke="#000000" stroke-linecap="round" stroke-linejoin="round" stroke-width="3.000000"
	d="
M1659.500000,598.500000 
	C1661.661743,598.338257 1662.337524,600.777283 1662.307739,601.492004 
	C1662.200439,604.067749 1663.617310,606.434631 1664.708740,607.837646 
	C1668.286377,612.436584 1666.673218,616.333313 1664.500000,620.500000 
"/>
<path fill="none" opacity="1.000000" stroke="#000000" stroke-linecap="round" stroke-linejoin="round" stroke-width="6.000000"
	d="
M1339.500000,326.500000 
	C1344.166626,328.111481 1348.833374,328.111481 1353.500000,326.500000 
"/>
<path fill="none" opacity="1.000000" stroke="#000000" stroke-linecap="round" stroke-linejoin="round" stroke-width="6.000000"
	d="
M1670.500000,319.500000 
	C1665.833374,319.500000 1661.166626,319.500000 1656.500000,319.500000 
"/>
<path fill="none" opacity="1.000000" stroke="#000000" stroke-linecap="round" stroke-linejoin="round" stroke-width="3.000000"
	d="
M306.000000,635.000000 
	C301.978882,638.253967 301.961273,643.910095 298.382538,648.248657 
	C296.071167,643.812927 294.035583,639.906433 292.000000,636.000000 
"/>
<path fill="none" opacity="1.000000" stroke="#000000" stroke-linecap="round" stroke-linejoin="round" stroke-width="4.000000"
	d="
M289.000000,629.500000 
	C291.559784,633.741272 288.883484,638.174805 289.455902,642.505798 
	C289.715698,644.471497 289.500000,646.500000 289.500000,648.500000 
"/>
<path fill="none" opacity="1.000000" stroke="#000000" stroke-linecap="round" stroke-linejoin="round" stroke-width="3.000000"
	d="
M230.500000,598.500000 
	C226.683105,599.863403 228.100006,604.133850 226.054520,606.546204 
	C225.025879,607.759338 225.435608,609.841736 224.000000,611.000000 
"/>
<path fill="none" opacity="1.000000" stroke="#000000" stroke-linecap="round" stroke-linejoin="round" stroke-width="3.000000"
	d="
M1674.500000,599.000000 
	C1671.431030,600.574341 1671.984131,604.077209 1670.515503,606.509338 
	C1669.437012,608.295349 1668.500000,610.166687 1667.500000,612.000000 
"/>
<path fill="none" opacity="1.000000" stroke="#000000" stroke-linecap="round" stroke-linejoin="round" stroke-width="4.000000"
	d="
M338.500000,599.500000 
	C338.500000,603.833313 338.500000,608.166687 338.500000,612.500000 
"/>
<path fill="none" opacity="1.000000" stroke="#000000" stroke-linecap="round" stroke-linejoin="round" stroke-width="4.000000"
	d="
M933.500000,599.500000 
	C933.500000,603.833313 933.500000,608.166687 933.500000,612.500000 
"/>
<path fill="none" opacity="1.000000" stroke="#000000" stroke-linecap="round" stroke-linejoin="round" stroke-width="5.000000"
	d="
M311.000000,262.000000 
	C311.134674,268.167542 310.505096,274.355713 311.500000,280.500000 
"/>
<path fill="none" opacity="1.000000" stroke="#000000" stroke-linecap="round" stroke-linejoin="round" stroke-width="4.000000"
	d="
M1603.500000,599.500000 
	C1603.500000,603.833313 1603.500000,608.166687 1603.500000,612.500000 
"/>
<path fill="none" opacity="1.000000" stroke="#000000" stroke-linecap="round" stroke-linejoin="round" stroke-width="4.000000"
	d="
M307.500000,630.500000 
	C306.284393,636.500000 308.185364,642.500000 307.500000,648.500000 
"/>
<path fill="none" opacity="1.000000" stroke="#000000" stroke-linecap="round" stroke-linejoin="round" stroke-width="4.000000"
	d="
M886.500000,599.500000 
	C886.500000,603.833313 886.500000,608.166687 886.500000,612.500000 
"/>
<path fill="none" opacity="1.000000" stroke="#000000" stroke-linecap="round" stroke-linejoin="round" stroke-width="4.000000"
	d="
M414.500000,635.500000 
	C414.500000,639.833313 414.500000,644.166687 414.500000,648.500000 
"/>
<path fill="none" opacity="1.000000" stroke="#000000" stroke-linecap="round" stroke-linejoin="round" stroke-width="4.000000"
	d="
M878.000000,628.500000 
	C875.239014,629.569946 874.474304,631.782410 874.491821,634.500061 
	C874.521851,639.166565 874.500000,643.833313 874.500000,648.500000 
"/>
<path fill="none" opacity="1.000000" stroke="#000000" stroke-linecap="round" stroke-linejoin="round" stroke-width="4.000000"
	d="
M926.500000,599.500000 
	C926.500000,603.833313 926.500000,608.166687 926.500000,612.500000 
"/>
<path fill="none" opacity="1.000000" stroke="#000000" stroke-linecap="round" stroke-linejoin="round" stroke-width="4.000000"
	d="
M1449.500000,599.500000 
	C1449.500000,603.833313 1449.500000,608.166687 1449.500000,612.500000 
"/>
<path fill="none" opacity="1.000000" stroke="#000000" stroke-linecap="round" stroke-linejoin="round" stroke-width="5.000000"
	d="
M881.000000,262.000000 
	C881.134644,268.167542 880.505127,274.355713 881.500000,280.500000 
"/>
<path fill="none" opacity="1.000000" stroke="#000000" stroke-linecap="round" stroke-linejoin="round" stroke-width="8.000000"
	d="
M1487.500000,307.500000 
	C1487.500000,315.833344 1487.500000,324.166656 1487.500000,332.500000 
"/>
<path fill="none" opacity="1.000000" stroke="#000000" stroke-linecap="round" stroke-linejoin="round" stroke-width="3.000000"
	d="
M1582.000000,634.500000 
	C1583.508423,638.610657 1583.806274,643.108643 1586.000000,647.000000 
"/>
<path fill="none" opacity="1.000000" stroke="#000000" stroke-linecap="round" stroke-linejoin="round" stroke-width="4.000000"
	d="
M346.500000,629.500000 
	C346.989166,633.654175 345.435913,637.971802 347.500000,642.000000 
"/>
<path fill="none" opacity="1.000000" stroke="#000000" stroke-linecap="round" stroke-linejoin="round" stroke-width="8.000000"
	d="
M1467.500000,307.500000 
	C1467.500000,315.833344 1467.500000,324.166656 1467.500000,332.500000 
"/>
<path fill="none" opacity="1.000000" stroke="#000000" stroke-linecap="round" stroke-linejoin="round" stroke-width="3.000000"
	d="
M1531.500000,613.500000 
	C1534.225342,611.962097 1534.611816,609.067993 1535.480103,606.493286 
	C1536.730591,602.784180 1537.219849,598.731689 1540.369507,595.702393 
	C1544.561279,601.010376 1543.567749,608.399475 1548.500000,613.000000 
"/>
<path fill="none" opacity="1.000000" stroke="#000000" stroke-linecap="round" stroke-linejoin="round" stroke-width="4.000000"
	d="
M1013.500000,635.500000 
	C1013.223083,639.495422 1014.086548,643.538330 1013.000000,647.500000 
"/>
<path fill="none" opacity="1.000000" stroke="#000000" stroke-linecap="round" stroke-linejoin="round" stroke-width="4.000000"
	d="
M244.500000,635.500000 
	C244.223099,639.495422 245.086533,643.538330 244.000000,647.500000 
"/>
<path fill="none" opacity="1.000000" stroke="#000000" stroke-linecap="round" stroke-linejoin="round" stroke-width="4.000000"
	d="
M183.000000,637.000000 
	C181.900711,640.792786 182.778976,644.671570 182.500000,648.500000 
"/>
<path fill="none" opacity="1.000000" stroke="#000000" stroke-linecap="round" stroke-linejoin="round" stroke-width="4.000000"
	d="
M1457.000000,601.000000 
	C1455.900757,604.792786 1456.778931,608.671570 1456.500000,612.500000 
"/>
<path fill="none" opacity="1.000000" stroke="#000000" stroke-linecap="round" stroke-linejoin="round" stroke-width="4.000000"
	d="
M856.000000,637.000000 
	C854.900696,640.792786 855.778992,644.671570 855.500000,648.500000 
"/>
<path fill="none" opacity="1.000000" stroke="#000000" stroke-linecap="round" stroke-linejoin="round" stroke-width="4.000000"
	d="
M943.000000,637.000000 
	C941.900696,640.792786 942.778992,644.671570 942.500000,648.500000 
"/>
<path fill="none" opacity="1.000000" stroke="#000000" stroke-linecap="round" stroke-linejoin="round" stroke-width="4.000000"
	d="
M885.000000,637.000000 
	C883.900696,640.792786 884.778992,644.671570 884.500000,648.500000 
"/>
<path fill="none" opacity="1.000000" stroke="#000000" stroke-linecap="round" stroke-linejoin="round" stroke-width="4.000000"
	d="
M750.500000,629.500000 
	C750.500000,635.833313 750.500000,642.166687 750.500000,648.500000 
"/>
<path fill="none" opacity="1.000000" stroke="#000000" stroke-linecap="round" stroke-linejoin="round" stroke-width="4.000000"
	d="
M336.000000,637.000000 
	C334.900696,640.792786 335.778961,644.671570 335.500000,648.500000 
"/>
<path fill="none" opacity="1.000000" stroke="#000000" stroke-linecap="round" stroke-linejoin="round" stroke-width="5.000000"
	d="
M1538.000000,262.000000 
	C1538.000000,268.000000 1538.000000,274.000000 1538.000000,280.000000 
"/>
<path fill="none" opacity="1.000000" stroke="#000000" stroke-linecap="round" stroke-linejoin="round" stroke-width="4.000000"
	d="
M1554.000000,637.000000 
	C1552.900757,640.792786 1553.778931,644.671570 1553.500000,648.500000 
"/>
<path fill="none" opacity="1.000000" stroke="#000000" stroke-linecap="round" stroke-linejoin="round" stroke-width="4.000000"
	d="
M1619.500000,629.500000 
	C1619.500000,635.833313 1619.500000,642.166687 1619.500000,648.500000 
"/>
<path fill="none" opacity="1.000000" stroke="#000000" stroke-linecap="round" stroke-linejoin="round" stroke-width="3.000000"
	d="
M1243.500000,301.000000 
	C1239.833374,301.000000 1236.166626,301.000000 1232.500000,301.000000 
"/>
<path fill="none" opacity="1.000000" stroke="#000000" stroke-linecap="round" stroke-linejoin="round" stroke-width="4.000000"
	d="
M209.500000,603.500000 
	C205.833328,603.500000 202.166672,603.500000 198.500000,603.500000 
"/>
<path fill="none" opacity="1.000000" stroke="#000000" stroke-linecap="round" stroke-linejoin="round" stroke-width="3.000000"
	d="
M1225.500000,301.000000 
	C1221.833374,301.000000 1218.166626,301.000000 1214.500000,301.000000 
"/>
<path fill="none" opacity="1.000000" stroke="#000000" stroke-linecap="round" stroke-linejoin="round" stroke-width="3.000000"
	d="
M603.500000,301.000000 
	C599.833313,301.000000 596.166687,301.000000 592.500000,301.000000 
"/>
<path fill="none" opacity="1.000000" stroke="#000000" stroke-linecap="round" stroke-linejoin="round" stroke-width="3.000000"
	d="
M549.500000,301.000000 
	C545.833313,301.000000 542.166687,301.000000 538.500000,301.000000 
"/>
<path fill="none" opacity="1.000000" stroke="#000000" stroke-linecap="round" stroke-linejoin="round" stroke-width="3.000000"
	d="
M1171.500000,301.000000 
	C1167.833374,301.000000 1164.166626,301.000000 1160.500000,301.000000 
"/>
<path fill="none" opacity="1.000000" stroke="#000000" stroke-linecap="round" stroke-linejoin="round" stroke-width="3.000000"
	d="
M531.500000,301.000000 
	C527.833313,301.000000 524.166687,301.000000 520.500000,301.000000 
"/>
<path fill="none" opacity="1.000000" stroke="#000000" stroke-linecap="round" stroke-linejoin="round" stroke-width="3.000000"
	d="
M1189.500000,301.000000 
	C1185.833374,301.000000 1182.166626,301.000000 1178.500000,301.000000 
"/>
<path fill="none" opacity="1.000000" stroke="#000000" stroke-linecap="round" stroke-linejoin="round" stroke-width="3.000000"
	d="
M585.500000,301.000000 
	C581.833313,301.000000 578.166687,301.000000 574.500000,301.000000 
"/>
<path fill="none" opacity="1.000000" stroke="#000000" stroke-linecap="round" stroke-linejoin="round" stroke-width="3.000000"
	d="
M621.500000,301.000000 
	C617.833313,301.000000 614.166687,301.000000 610.500000,301.000000 
"/>
<path fill="none" opacity="1.000000" stroke="#000000" stroke-linecap="round" stroke-linejoin="round" stroke-width="3.000000"
	d="
M1207.500000,301.000000 
	C1203.833374,301.000000 1200.166626,301.000000 1196.500000,301.000000 
"/>
<path fill="none" opacity="1.000000" stroke="#000000" stroke-linecap="round" stroke-linejoin="round" stroke-width="3.000000"
	d="
M1153.500000,301.000000 
	C1149.833374,301.000000 1146.166626,301.000000 1142.500000,301.000000 
"/>
<path fill="none" opacity="1.000000" stroke="#000000" stroke-linecap="round" stroke-linejoin="round" stroke-width="3.000000"
	d="
M567.500000,301.000000 
	C563.833313,301.000000 560.166687,301.000000 556.500000,301.000000 
"/>
<path fill="none" opacity="1.000000" stroke="#000000" stroke-linecap="round" stroke-linejoin="round" stroke-width="7.000000"
	d="
M404.000000,311.000000 
	C397.000000,310.939941 390.000000,312.165924 383.000000,311.000000 
"/>
<path fill="none" opacity="1.000000" stroke="#000000" stroke-linecap="round" stroke-linejoin="round" stroke-width="4.000000"
	d="
M285.500000,593.500000 
	C285.500000,599.833313 285.500000,606.166687 285.500000,612.500000 
"/>
<path fill="none" opacity="1.000000" stroke="#000000" stroke-linecap="round" stroke-linejoin="round" stroke-width="4.000000"
	d="
M1020.500000,635.500000 
	C1020.500000,639.833313 1020.500000,644.166687 1020.500000,648.500000 
"/>
<path fill="none" opacity="1.000000" stroke="#000000" stroke-linecap="round" stroke-linejoin="round" stroke-width="4.000000"
	d="
M1520.500000,597.500000 
	C1514.454590,600.881836 1513.636475,606.354553 1514.500000,612.500000 
"/>
<path fill="none" opacity="1.000000" stroke="#000000" stroke-linecap="round" stroke-linejoin="round" stroke-width="4.000000"
	d="
M795.500000,633.500000 
	C789.454529,636.881836 788.636414,642.354553 789.500000,648.500000 
"/>
<path fill="none" opacity="1.000000" stroke="#000000" stroke-linecap="round" stroke-linejoin="round" stroke-width="4.000000"
	d="
M211.000000,593.500000 
	C209.860794,599.807739 210.658508,606.166443 210.500000,612.500000 
"/>
<path fill="none" opacity="1.000000" stroke="#000000" stroke-linecap="round" stroke-linejoin="round" stroke-width="4.000000"
	d="
M1605.000000,601.000000 
	C1607.424561,599.209045 1610.021240,598.032166 1612.988770,599.522278 
	C1616.215942,601.142700 1615.456177,604.241211 1615.494995,607.000061 
	C1615.520874,608.833008 1615.500000,610.666687 1615.500000,612.500000 
"/>
<path fill="none" opacity="1.000000" stroke="#000000" stroke-linecap="round" stroke-linejoin="round" stroke-width="3.000000"
	d="
M1504.500000,635.000000 
	C1507.500000,638.000000 1510.500000,641.000000 1513.500000,644.000000 
"/>
<path fill="none" opacity="1.000000" stroke="#000000" stroke-linecap="round" stroke-linejoin="round" stroke-width="4.000000"
	d="
M327.500000,637.500000 
	C327.240967,640.661804 328.042938,643.879456 327.000000,647.000000 
"/>
<path fill="none" opacity="1.000000" stroke="#000000" stroke-linecap="round" stroke-linejoin="round" stroke-width="4.000000"
	d="
M1536.000000,608.000000 
	C1538.945190,609.153687 1542.008667,608.176331 1545.000000,608.500000 
"/>
<path fill="none" opacity="1.000000" stroke="#000000" stroke-linecap="round" stroke-linejoin="round" stroke-width="4.000000"
	d="
M197.500000,594.500000 
	C197.500000,600.500000 197.500000,606.500000 197.500000,612.500000 
"/>
<path fill="none" opacity="1.000000" stroke="#000000" stroke-linecap="round" stroke-linejoin="round" stroke-width="7.000000"
	d="
M1765.000000,307.000000 
	C1759.333374,307.000000 1753.666626,307.000000 1748.000000,307.000000 
"/>
<path fill="none" opacity="1.000000" stroke="#000000" stroke-linecap="round" stroke-linejoin="round" stroke-width="3.000000"
	d="
M356.500000,634.500000 
	C352.935059,635.935059 351.377197,639.377197 349.000000,642.000000 
"/>
<path fill="none" opacity="1.000000" stroke="#000000" stroke-linecap="round" stroke-linejoin="round" stroke-width="4.000000"
	d="
M1411.500000,604.000000 
	C1408.883667,603.028442 1406.164673,603.698975 1403.500000,603.500000 
"/>
<path fill="none" opacity="1.000000" stroke="#000000" stroke-linecap="round" stroke-linejoin="round" stroke-width="4.000000"
	d="
M880.500000,604.000000 
	C877.883667,603.028442 875.164673,603.698975 872.500000,603.500000 
"/>
<path fill="none" opacity="1.000000" stroke="#000000" stroke-linecap="round" stroke-linejoin="round" stroke-width="3.000000"
	d="
M346.500000,648.500000 
	C346.912598,646.313171 345.383179,643.678162 348.043793,641.890015 
	C351.450195,643.800903 352.531128,648.286926 356.500000,649.500000 
"/>
<path fill="none" opacity="1.000000" stroke="#000000" stroke-linecap="round" stroke-linejoin="round" stroke-width="3.000000"
	d="
M1027.500000,635.000000 
	C1024.870483,634.322449 1023.799927,637.386414 1021.500000,637.500000 
"/>
<path fill="none" opacity="1.000000" stroke="#000000" stroke-linecap="round" stroke-linejoin="round" stroke-width="3.000000"
	d="
M341.500000,633.500000 
	C339.789001,635.033691 338.453491,637.693848 335.500000,635.500000 
"/>
<path fill="none" opacity="1.000000" stroke="#000000" stroke-linecap="round" stroke-linejoin="round" stroke-width="3.000000"
	d="
M276.500000,635.000000 
	C273.500000,635.000000 270.500000,635.000000 267.500000,635.000000 
"/>
<path fill="none" opacity="1.000000" stroke="#000000" stroke-linecap="round" stroke-linejoin="round" stroke-width="3.000000"
	d="
M376.500000,599.000000 
	C373.500000,599.000000 370.500000,599.000000 367.500000,599.000000 
"/>
<path fill="none" opacity="1.000000" stroke="#000000" stroke-linecap="round" stroke-linejoin="round" stroke-width="3.000000"
	d="
M1614.500000,635.000000 
	C1611.500000,635.000000 1608.500000,635.000000 1605.500000,635.000000 
"/>
<path fill="none" opacity="1.000000" stroke="#000000" stroke-linecap="round" stroke-linejoin="round" stroke-width="3.000000"
	d="
M1559.500000,635.000000 
	C1557.964355,634.960510 1556.679199,635.404297 1555.449463,636.440002 
	C1554.796265,636.990112 1553.885742,636.395142 1553.500000,635.500000 
"/>
<path fill="none" opacity="1.000000" stroke="#000000" stroke-linecap="round" stroke-linejoin="round" stroke-width="3.000000"
	d="
M948.500000,635.000000 
	C946.964355,634.960510 945.679138,635.404175 944.449402,636.439941 
	C943.796265,636.989990 942.885803,636.395142 942.500000,635.500000 
"/>
<path fill="none" opacity="1.000000" stroke="#000000" stroke-linecap="round" stroke-linejoin="round" stroke-width="3.000000"
	d="
M890.500000,635.000000 
	C888.964355,634.960510 887.679138,635.404175 886.449402,636.439941 
	C885.796265,636.989990 884.885803,636.395142 884.500000,635.500000 
"/>
<path fill="none" opacity="1.000000" stroke="#000000" stroke-linecap="round" stroke-linejoin="round" stroke-width="3.000000"
	d="
M188.500000,635.000000 
	C186.964340,634.960510 185.679123,635.404175 184.449356,636.439880 
	C183.796188,636.989929 182.885773,636.395142 182.500000,635.500000 
"/>
<path fill="none" opacity="1.000000" stroke="#000000" stroke-linecap="round" stroke-linejoin="round" stroke-width="3.000000"
	d="
M386.500000,635.000000 
	C383.833344,635.000000 381.166656,635.000000 378.500000,635.000000 
"/>
<path fill="none" opacity="1.000000" stroke="#000000" stroke-linecap="round" stroke-linejoin="round" stroke-width="3.000000"
	d="
M996.500000,635.000000 
	C993.833313,635.000000 991.166687,635.000000 988.500000,635.000000 
"/>
<path fill="none" opacity="1.000000" stroke="#000000" stroke-linecap="round" stroke-linejoin="round" stroke-width="3.000000"
	d="
M937.500000,635.000000 
	C934.500000,635.000000 931.500000,635.000000 928.500000,635.000000 
"/>
<path fill="none" opacity="1.000000" stroke="#000000" stroke-linecap="round" stroke-linejoin="round" stroke-width="3.000000"
	d="
M879.500000,635.000000 
	C876.833313,635.000000 874.166687,635.000000 871.500000,635.000000 
"/>
<path fill="none" opacity="1.000000" stroke="#000000" stroke-linecap="round" stroke-linejoin="round" stroke-width="3.000000"
	d="
M427.500000,635.000000 
	C424.833344,635.000000 422.166656,635.000000 419.500000,635.000000 
"/>
<path fill="none" opacity="1.000000" stroke="#000000" stroke-linecap="round" stroke-linejoin="round" stroke-width="3.000000"
	d="
M280.500000,599.000000 
	C277.833344,599.000000 275.166656,599.000000 272.500000,599.000000 
"/>
<path fill="none" opacity="1.000000" stroke="#000000" stroke-linecap="round" stroke-linejoin="round" stroke-width="3.000000"
	d="
M1488.000000,629.500000 
	C1483.583252,632.739807 1481.743286,641.413452 1484.499878,646.000061 
	C1486.804688,649.835022 1492.683838,650.338257 1494.353027,646.437134 
	C1496.232910,642.043762 1496.371338,637.137817 1494.472900,632.511169 
	C1493.400269,629.897400 1491.146729,629.206482 1488.500000,629.500000 
"/>
<path fill="none" opacity="1.000000" stroke="#000000" stroke-linecap="round" stroke-linejoin="round" stroke-width="3.000000"
	d="
M373.500000,403.500000 
	C367.060913,407.269073 365.314606,413.345428 369.505096,417.494843 
	C372.223938,420.187012 375.582977,420.728729 378.973145,419.429871 
	C382.395966,418.118408 384.395966,413.475555 383.461029,409.509186 
	C382.619843,405.940521 380.096741,404.007843 376.497742,403.516449 
	C375.679657,403.404755 374.833344,403.500000 374.000000,403.500000 
"/>
<path fill="none" opacity="1.000000" stroke="#000000" stroke-linecap="round" stroke-linejoin="round" stroke-width="3.000000"
	d="
M233.000000,362.500000 
	C229.032272,363.681458 225.280762,365.221283 222.495193,368.495911 
	C217.287430,374.617981 216.721375,381.681244 219.657974,387.925720 
	C222.822144,394.654083 228.928162,398.328156 236.493805,397.892426 
	C244.158432,397.450958 249.704208,393.198242 252.454727,385.982758 
	C256.652191,374.971466 247.939285,361.454651 233.500000,362.500000 
"/>
<path fill="none" opacity="1.000000" stroke="#000000" stroke-linecap="round" stroke-linejoin="round" stroke-width="3.000000"
	d="
M432.500000,265.000000 
	C428.557648,265.596588 425.794830,267.397919 424.413940,271.470825 
	C423.272430,274.837555 424.759705,277.174561 426.535431,279.472626 
	C428.734863,282.319061 432.176605,282.017456 434.959106,281.333557 
	C437.820129,280.630341 440.174500,278.441132 440.499512,274.999969 
	C440.841492,271.379547 439.982147,268.550049 436.612122,266.329834 
	C435.346710,265.496155 433.861938,266.211029 433.000000,265.000000 
"/>
<path fill="none" opacity="1.000000" stroke="#000000" stroke-linecap="round" stroke-linejoin="round" stroke-width="3.000000"
	d="
M223.500000,206.500000 
	C216.869812,212.014114 216.243698,216.583435 221.498016,221.002365 
	C224.382782,223.428497 227.490997,223.210403 230.477463,221.461533 
	C234.020996,219.386444 235.824142,215.389969 234.408737,212.038544 
	C233.192245,209.158051 231.355820,206.403000 227.499893,206.495682 
	C226.333893,206.523712 225.166672,206.500000 224.000000,206.500000 
"/>
<path fill="none" opacity="1.000000" stroke="#000000" stroke-linecap="round" stroke-linejoin="round" stroke-width="3.000000"
	d="
M336.000000,190.499969 
	C333.833313,191.499969 331.420166,192.168762 329.546814,193.562866 
	C324.197601,197.543564 323.803802,206.700302 328.549286,210.944885 
	C334.077026,215.889084 339.957489,215.924026 345.440796,210.934921 
	C350.235992,206.571884 350.067474,197.416183 344.089417,193.367966 
	C341.633575,191.704926 339.125305,191.186707 336.500000,190.500000 
"/>
<path fill="none" opacity="1.000000" stroke="#000000" stroke-linecap="round" stroke-linejoin="round" stroke-width="16.000000"
	d="
M307.000000,117.000000 
	C299.868439,118.135300 292.648132,118.339081 285.479492,119.355270 
	C264.418793,122.340736 244.595123,128.910767 226.031021,139.056763 
	C182.534744,162.829163 153.200455,198.631958 137.615509,245.538376 
	C132.636978,260.522400 130.195770,276.132080 129.453949,291.997833 
	C127.697693,329.559601 136.405609,364.455200 156.042252,396.474091 
	C180.193619,435.854614 214.448822,462.505310 258.502197,476.493042 
	C273.466675,481.244507 288.799316,483.834503 304.498749,484.528198 
	C349.462677,486.514954 389.902008,473.718658 425.420502,446.396667 
	C460.100128,419.719971 482.145325,384.420258 492.364594,341.967407 
	C495.621155,328.439026 497.216034,314.474121 496.935822,300.501282 
	C495.991577,253.419495 480.449188,211.971497 448.501923,176.998260 
	C426.905762,153.356628 400.946045,136.494766 370.507782,126.476349 
	C354.406219,121.176689 337.956604,117.995148 321.000153,117.494881 
	C316.499146,117.362099 312.000000,117.166664 307.500000,117.000000 
"/>
<path fill="none" opacity="1.000000" stroke="#000000" stroke-linecap="round" stroke-linejoin="round" stroke-width="16.000000"
	d="
M878.500000,70.500000 
	C869.334412,71.509834 860.125000,71.900993 850.988342,73.430275 
	C809.583069,80.360672 772.752625,97.096252 740.481201,123.977440 
	C722.473145,138.977692 707.289856,156.351212 694.427795,175.952637 
	C678.182861,200.709488 667.325500,227.675964 661.688660,256.536865 
	C657.020508,280.438324 656.409973,304.620514 659.338013,329.019440 
	C664.595581,372.829498 681.101013,411.851501 708.648193,445.880035 
	C739.420898,483.893036 778.647278,509.821686 825.999146,523.003174 
	C842.365845,527.559204 858.991089,530.138428 875.993347,531.115417 
	C905.641663,532.819031 934.558350,529.024292 962.447937,519.349854 
	C1002.811218,505.348511 1036.952393,482.009186 1064.588745,449.074493 
	C1087.521240,421.745514 1103.242920,390.898254 1111.906250,356.476379 
	C1117.551880,334.044037 1119.338379,311.187042 1118.089600,287.995178 
	C1115.437500,238.737244 1098.495605,194.860428 1067.856201,156.615250 
	C1037.309082,118.485329 998.025513,92.629608 950.975708,79.084381 
	C934.538086,74.352142 917.697876,71.546509 900.504395,70.885788 
	C893.329834,70.610077 886.166077,70.690857 879.000000,70.500000 
"/>
</svg>