<svg xmlns="http://www.w3.org/2000/svg" xmlns:xlink="http://www.w3.org/1999/xlink" viewBox="0 0 80.62 80.62"><defs><style>.cls-1{fill:url(#linear-gradient);}.cls-2{fill:url(#linear-gradient-2);}.cls-3{fill:url(#linear-gradient-3);}</style><linearGradient id="linear-gradient" x1="12.23" y1="12.23" x2="67.37" y2="67.37" gradientUnits="userSpaceOnUse"><stop offset="0" stop-color="#22d2e0"/><stop offset="1" stop-color="#85249f"/></linearGradient><linearGradient id="linear-gradient-2" x1="8.07" y1="16.39" x2="63.21" y2="71.53" xlink:href="#linear-gradient"/><linearGradient id="linear-gradient-3" x1="16.2" y1="8.26" x2="71.34" y2="63.4" xlink:href="#linear-gradient"/></defs><g id="Layer_2" data-name="Layer 2"><g id="Layer_1-2" data-name="Layer 1"><path class="cls-1" d="M40.83,0A40.31,40.31,0,1,0,80.62,40.83,40.31,40.31,0,0,0,40.83,0ZM26.43,58.83a46.72,46.72,0,0,1,0-37,49.55,49.55,0,0,0,27.76,0,46.68,46.68,0,0,1,0,37,49,49,0,0,0-27.76,0Zm12,1.8V74.81A45.45,45.45,0,0,1,28.18,62.26,45.12,45.12,0,0,1,38.39,60.63Zm-24,3.65A35.18,35.18,0,0,1,5,42.23H18.88A50.35,50.35,0,0,0,22.9,60,49.53,49.53,0,0,0,14.38,64.28Zm24-58.48V20A41.06,41.06,0,0,1,28.2,18.32,45.71,45.71,0,0,1,38.39,5.8Zm-5.5,0c-1.36,1.51-2.73,3-4,4.63-1.63,2.13-3,4.45-4.54,6.74a44.35,44.35,0,0,1-7.22-3.5A35.25,35.25,0,0,1,32.89,5.76Zm-10,14.85a50.42,50.42,0,0,0-4,17.78H5a35.23,35.23,0,0,1,9.35-22A50.82,50.82,0,0,0,22.91,20.61ZM42.24,20V5.81A46,46,0,0,1,52.45,18.36,45.21,45.21,0,0,1,42.24,20ZM52.45,62.25A45.73,45.73,0,0,1,42.22,74.83V60.64A45.41,45.41,0,0,1,52.45,62.25Zm-4.68,12.6a49.63,49.63,0,0,0,8.3-11.42A44.42,44.42,0,0,1,63.45,67,35.19,35.19,0,0,1,47.77,74.85ZM57.72,60a50.26,50.26,0,0,0,4-17.78H75.6a35.23,35.23,0,0,1-9.35,22.05A49.62,49.62,0,0,0,57.72,60Zm4-21.61a50.41,50.41,0,0,0-4-17.79,50,50,0,0,0,8.53-4.28A35.2,35.2,0,0,1,75.6,38.4Zm1.71-24.77a45.16,45.16,0,0,1-7.38,3.56A49.38,49.38,0,0,0,47.76,5.77,35.22,35.22,0,0,1,63.45,13.63ZM17.18,67a43.94,43.94,0,0,1,7.37-3.56,49.42,49.42,0,0,0,8.3,11.42A35.2,35.2,0,0,1,17.18,67Z"/><path class="cls-2" d="M51.17,54.08c.88.18,1.36-.23,1.37-1.13V49.08c0-1.28,0-2.55,0-3.82a3.71,3.71,0,0,0-1.73-3.18C49.21,41,47.57,40,46,38.94a1.8,1.8,0,0,0-2-.06,7.34,7.34,0,0,1-7.3,0,1.78,1.78,0,0,0-2,.07c-1.53,1-3.07,2-4.62,3a3.94,3.94,0,0,0-2,3.6c0,2.39,0,4.77,0,7.15,0,1.26.43,1.61,1.64,1.35a51.9,51.9,0,0,1,11.66-1.09A53.72,53.72,0,0,1,51.17,54.08Z"/><path class="cls-3" d="M40.27,38.25a5.9,5.9,0,1,0-5.85-6A5.88,5.88,0,0,0,40.27,38.25Z"/></g></g></svg>