<svg xmlns="http://www.w3.org/2000/svg" viewBox="0 0 44.27 43.47"><defs><style>.cls-1{fill:none;stroke:#000;stroke-miterlimit:10;stroke-width:2px;}</style></defs><g id="Layer_2" data-name="Layer 2"><g id="Layer_1-2" data-name="Layer 1"><path class="cls-1" d="M9.31,20.86h11a4.42,4.42,0,0,1,4.42,4.42h0a4.42,4.42,0,0,1-4.42,4.43h-5a4.42,4.42,0,0,0-4.42,4.42v.71a4.42,4.42,0,0,0,4.42,4.42H28.48"/><circle class="cls-1" cx="6.03" cy="20.86" r="3.21"/><circle cx="6.03" cy="6.02" r="2.02"/><circle class="cls-1" cx="31.69" cy="39.26" r="3.21"/><path class="cls-1" d="M11.06,6c0,2.78-5,8.48-5,8.48S1,8.81,1,6A5,5,0,0,1,11.06,6Z"/><line class="cls-1" x1="31.69" y1="36.06" x2="31.69" y2="21.69"/><polyline class="cls-1" points="31.69 23.06 41.86 23.06 38.14 26.78 41.67 30.31 31.69 30.31"/></g></g></svg>