<svg xmlns="http://www.w3.org/2000/svg" xmlns:xlink="http://www.w3.org/1999/xlink" viewBox="0 0 80.44 80.44"><defs><style>.cls-1{fill:url(#linear-gradient);}.cls-2{fill:url(#linear-gradient-2);}.cls-3{fill:url(#linear-gradient-3);}.cls-4{fill:url(#linear-gradient-4);}</style><linearGradient id="linear-gradient" x1="11.6" y1="11.6" x2="67.61" y2="67.61" gradientUnits="userSpaceOnUse"><stop offset="0" stop-color="#22d2e0"/><stop offset="1" stop-color="#85249f"/></linearGradient><linearGradient id="linear-gradient-2" x1="11.6" y1="11.6" x2="67.61" y2="67.6" xlink:href="#linear-gradient"/><linearGradient id="linear-gradient-3" x1="11.6" y1="11.6" x2="67.61" y2="67.6" xlink:href="#linear-gradient"/><linearGradient id="linear-gradient-4" x1="38.19" y1="-14.98" x2="94.19" y2="41.02" xlink:href="#linear-gradient"/></defs><g id="Layer_2" data-name="Layer 2"><g id="Layer_1-2" data-name="Layer 1"><path class="cls-1" d="M40.22,80.44A40.22,40.22,0,1,1,80.44,40.22,40.26,40.26,0,0,1,40.22,80.44Zm0-75.56A35.34,35.34,0,1,0,75.56,40.22,35.38,35.38,0,0,0,40.22,4.88Z"/><path class="cls-2" d="M40.22,61.35A21.13,21.13,0,1,1,61.35,40.22,21.16,21.16,0,0,1,40.22,61.35Zm0-37.38A16.25,16.25,0,1,0,56.48,40.22,16.27,16.27,0,0,0,40.22,24Z"/><path class="cls-3" d="M40.22,51.24a11,11,0,1,1,11-11A11,11,0,0,1,40.22,51.24Zm0-17.16a6.14,6.14,0,1,0,6.14,6.14A6.15,6.15,0,0,0,40.22,34.08Z"/><circle class="cls-4" cx="68.27" cy="15.09" r="10.08"/></g></g></svg>