<svg xmlns="http://www.w3.org/2000/svg" viewBox="0 0 181.1 199.44"><defs><style>.cls-1{fill:none;stroke:#000;stroke-linecap:round;stroke-linejoin:round;stroke-width:6.38px;}</style></defs><g id="Layer_2" data-name="Layer 2"><g id="Layer_1-2" data-name="Layer 1"><path class="cls-1" d="M67.47,23.31V63a9.62,9.62,0,0,1-1.73,5.51L8.36,151.18c-13.21,19,.41,45.07,23.58,45.07H149.16c23.18,0,36.8-26.06,23.56-45.09L115.43,68.79a9.69,9.69,0,0,1-1.73-5.51v-40"/><path class="cls-1" d="M113.7,23.31h2.47a10.06,10.06,0,0,0,10.06-10.06h0A10.05,10.05,0,0,0,116.17,3.19H65A10.05,10.05,0,0,0,54.94,13.25h0A10.06,10.06,0,0,0,65,23.31h2.47"/><path class="cls-1" d="M125.09,121.42A34.54,34.54,0,1,0,74.53,152l2.85,31.06h26.41L106.65,152A34.54,34.54,0,0,0,125.09,121.42Z"/><line class="cls-1" x1="76.19" y1="170.13" x2="104.88" y2="170.13"/><line class="cls-1" x1="90.53" y1="170.13" x2="90.53" y2="130.6"/><circle class="cls-1" cx="90.53" cy="122.13" r="7.02"/></g></g></svg>