<svg xmlns="http://www.w3.org/2000/svg" viewBox="0 0 325.88 62.34"><g id="Layer_2" data-name="Layer 2"><g id="Layer_1-2" data-name="Layer 1"><path d="M37.82,16.79H50.73L33.94,0V12.9A3.89,3.89,0,0,0,37.82,16.79Z"/><path d="M32.42,12.9V0H3.88A3.88,3.88,0,0,0,0,3.88V58.45a3.89,3.89,0,0,0,3.88,3.89H19.56V53.11A17.3,17.3,0,0,1,3.8,35.9V34.24a1.52,1.52,0,1,1,3,0V35.9a14.25,14.25,0,1,0,28.49,0V34.24a1.52,1.52,0,1,1,3,0V35.9A17.3,17.3,0,0,1,22.59,53.11v9.23H46.84a3.89,3.89,0,0,0,3.89-3.89V18.31H37.82A5.41,5.41,0,0,1,32.42,12.9Zm-.89,14.81H29a.71.71,0,0,0-.72.71v2.06a.71.71,0,0,0,.72.71h2.5V35.9a10.45,10.45,0,0,1-20.9,0V31.19h2.43a.71.71,0,0,0,.72-.71V28.42a.71.71,0,0,0-.72-.71H10.63V21.17a10.45,10.45,0,1,1,20.9,0Z"/><path d="M18.22,20.74a1.74,1.74,0,0,0-1.74,1.74v12.6a1.74,1.74,0,0,0,3.48,0V22.48A1.74,1.74,0,0,0,18.22,20.74Z"/><path d="M24.18,25.16a1.74,1.74,0,0,0-1.74,1.74V32a1.74,1.74,0,1,0,3.48,0V26.9A1.74,1.74,0,0,0,24.18,25.16Z"/><path d="M92.75,22V46.43h-4.9V30.54L81.3,46.43H77.59L71,30.54V46.43h-4.9V22h5.57l7.77,18.16L87.21,22Z"/><path d="M115.46,38.2H101.29a4.79,4.79,0,0,0,1.46,3.29,4.53,4.53,0,0,0,3.19,1.19,4,4,0,0,0,3.89-2.34h5.28a8.79,8.79,0,0,1-3.22,4.6,9.41,9.41,0,0,1-5.85,1.8,10.1,10.1,0,0,1-5-1.24A8.75,8.75,0,0,1,97.56,42a10.72,10.72,0,0,1-1.24-5.25,11,11,0,0,1,1.22-5.28A8.57,8.57,0,0,1,101,28a11,11,0,0,1,10,0,8.36,8.36,0,0,1,3.39,3.38,10.16,10.16,0,0,1,1.21,5A12,12,0,0,1,115.46,38.2Zm-4.93-3.29a3.87,3.87,0,0,0-1.37-3,4.83,4.83,0,0,0-3.25-1.14,4.48,4.48,0,0,0-3.07,1.1,4.88,4.88,0,0,0-1.52,3.06Z"/><path d="M137.05,38.2H122.88a4.84,4.84,0,0,0,1.47,3.29,4.49,4.49,0,0,0,3.19,1.19,4,4,0,0,0,3.88-2.34h5.29a8.9,8.9,0,0,1-3.22,4.6,9.43,9.43,0,0,1-5.85,1.8,10.07,10.07,0,0,1-5-1.24A8.77,8.77,0,0,1,119.15,42a10.72,10.72,0,0,1-1.24-5.25,11.06,11.06,0,0,1,1.22-5.28,8.57,8.57,0,0,1,3.43-3.5,11,11,0,0,1,10,0,8.44,8.44,0,0,1,3.4,3.38,10.27,10.27,0,0,1,1.21,5A10.81,10.81,0,0,1,137.05,38.2Zm-4.93-3.29a3.84,3.84,0,0,0-1.37-3,4.81,4.81,0,0,0-3.25-1.14,4.47,4.47,0,0,0-3.06,1.1,4.89,4.89,0,0,0-1.53,3.06Z"/><path d="M146.47,31.06v9.38a1.87,1.87,0,0,0,.47,1.42,2.34,2.34,0,0,0,1.59.44h2.28v4.13h-3.08q-6.19,0-6.2-6V31.06h-2.31V27h2.31v-4.8h4.94V27h4.34v4Z"/><path d="M154.68,23.91a2.87,2.87,0,0,1,0-4.1,3.23,3.23,0,0,1,4.3,0,2.87,2.87,0,0,1,0,4.1,3.23,3.23,0,0,1-4.3,0ZM159.24,27V46.43h-4.9V27Z"/><path d="M180.42,29a8.36,8.36,0,0,1,2.13,6.1V46.43h-4.9V35.72a5,5,0,0,0-1.15-3.55,4.09,4.09,0,0,0-3.15-1.25,4.19,4.19,0,0,0-3.2,1.25A4.93,4.93,0,0,0,169,35.72V46.43h-4.9V27H169v2.41a6.71,6.71,0,0,1,2.51-2,7.67,7.67,0,0,1,3.34-.72A7.46,7.46,0,0,1,180.42,29Z"/><path d="M198.62,27.58a7.06,7.06,0,0,1,2.59,2.22V27h4.93V46.57a10.45,10.45,0,0,1-1.08,4.81,8.11,8.11,0,0,1-3.26,3.36A10.35,10.35,0,0,1,196.55,56a11.23,11.23,0,0,1-6.77-1.92,7.15,7.15,0,0,1-3-5.25h4.86a3.66,3.66,0,0,0,1.67,2.12,5.81,5.81,0,0,0,3.09.78,4.8,4.8,0,0,0,3.47-1.27,5.17,5.17,0,0,0,1.33-3.87v-3a7.36,7.36,0,0,1-2.61,2.27,7.74,7.74,0,0,1-3.8.91,8.35,8.35,0,0,1-4.48-1.26,8.76,8.76,0,0,1-3.2-3.55A11.42,11.42,0,0,1,186,36.66a11.23,11.23,0,0,1,1.17-5.21,8.54,8.54,0,0,1,3.19-3.5,8.44,8.44,0,0,1,4.49-1.23A8.18,8.18,0,0,1,198.62,27.58Zm1.89,6.09a5,5,0,0,0-1.89-2,5.14,5.14,0,0,0-2.56-.68,4.88,4.88,0,0,0-4.39,2.61,6.05,6.05,0,0,0-.72,3,6.3,6.3,0,0,0,.72,3.07,5.24,5.24,0,0,0,1.89,2,4.77,4.77,0,0,0,2.5.7,5.14,5.14,0,0,0,2.56-.68,5,5,0,0,0,1.89-2,6.41,6.41,0,0,0,.7-3.07A6.35,6.35,0,0,0,200.51,33.67Z"/><path d="M227.83,33.23A6.8,6.8,0,0,1,224.92,36a10.57,10.57,0,0,1-5,1h-4.09v9.38h-4.9V22h9a10.92,10.92,0,0,1,4.83,1,6.86,6.86,0,0,1,3,2.69,8,8,0,0,1,.07,7.56Zm-5.1-1.06a3.4,3.4,0,0,0,1-2.61q0-3.57-4-3.57h-3.88v7.1h3.88A4.27,4.27,0,0,0,222.73,32.17Z"/><path d="M232.55,23.91a2.87,2.87,0,0,1,0-4.1,3.24,3.24,0,0,1,4.31,0,2.9,2.9,0,0,1,0,4.1,3.24,3.24,0,0,1-4.31,0ZM237.12,27V46.43h-4.9V27Z"/><path d="M246.85,20.53v25.9H242V20.53Z"/><path d="M255.25,45.5A8.9,8.9,0,0,1,251.73,42a10.52,10.52,0,0,1-1.28-5.25,10.29,10.29,0,0,1,1.32-5.25A9.08,9.08,0,0,1,255.35,28a10.93,10.93,0,0,1,10.15,0,9.11,9.11,0,0,1,3.59,3.51,10.38,10.38,0,0,1,1.31,5.25A10.15,10.15,0,0,1,269.06,42a9.35,9.35,0,0,1-3.65,3.52,10.51,10.51,0,0,1-5.12,1.24A10.18,10.18,0,0,1,255.25,45.5Zm7.54-3.67a4.7,4.7,0,0,0,1.87-1.95,6.49,6.49,0,0,0,.7-3.15,5.83,5.83,0,0,0-1.45-4.25A4.78,4.78,0,0,0,260.36,31a4.68,4.68,0,0,0-3.52,1.49,5.94,5.94,0,0,0-1.42,4.25A6,6,0,0,0,256.81,41a4.54,4.54,0,0,0,3.48,1.48A5.11,5.11,0,0,0,262.79,41.83Z"/><path d="M279.71,31.06v9.38a1.87,1.87,0,0,0,.47,1.42,2.35,2.35,0,0,0,1.6.44h2.27v4.13H281q-6.2,0-6.19-6V31.06h-2.31V27h2.31v-4.8h4.93V27h4.34v4Z"/><path d="M310.9,41.77h-9.73l-1.61,4.66h-5.15L303.2,22h5.7l8.79,24.47h-5.18Zm-1.33-3.92L306,27.63,302.5,37.85Z"/><path d="M325.88,22V46.43H321V22Z"/></g></g></svg>