<svg xmlns="http://www.w3.org/2000/svg" viewBox="0 0 50.73 62.34"><g id="Layer_2" data-name="Layer 2"><g id="Layer_1-2" data-name="Layer 1"><path d="M37.82,16.79H50.73L33.94,0V12.9A3.89,3.89,0,0,0,37.82,16.79Z"/><path d="M32.42,12.9V0H3.88A3.88,3.88,0,0,0,0,3.88V58.45a3.89,3.89,0,0,0,3.88,3.89H19.56V53.11A17.3,17.3,0,0,1,3.8,35.9V34.24a1.52,1.52,0,1,1,3,0V35.9a14.25,14.25,0,1,0,28.49,0V34.24a1.52,1.52,0,1,1,3,0V35.9A17.3,17.3,0,0,1,22.59,53.11v9.23H46.84a3.89,3.89,0,0,0,3.89-3.89V18.31H37.82A5.41,5.41,0,0,1,32.42,12.9Zm-.89,14.81H29a.71.71,0,0,0-.72.71v2.06a.71.71,0,0,0,.72.71h2.5V35.9a10.45,10.45,0,0,1-20.9,0V31.19h2.43a.71.71,0,0,0,.72-.71V28.42a.71.71,0,0,0-.72-.71H10.63V21.17a10.45,10.45,0,1,1,20.9,0Z"/><path d="M18.22,20.74a1.74,1.74,0,0,0-1.74,1.74v12.6a1.74,1.74,0,0,0,3.48,0V22.48A1.74,1.74,0,0,0,18.22,20.74Z"/><path d="M24.18,25.16a1.74,1.74,0,0,0-1.74,1.74V32a1.74,1.74,0,1,0,3.48,0V26.9A1.74,1.74,0,0,0,24.18,25.16Z"/></g></g></svg>