<svg xmlns="http://www.w3.org/2000/svg" xmlns:xlink="http://www.w3.org/1999/xlink" viewBox="0 0 47.1 57.88"><defs><style>.cls-1{fill:url(#linear-gradient);}.cls-2{fill:url(#linear-gradient-2);}.cls-3{fill:url(#linear-gradient-3);}.cls-4{fill:url(#linear-gradient-4);}</style><linearGradient id="linear-gradient" x1="4.75" y1="56.72" x2="37.85" y2="9.86" gradientUnits="userSpaceOnUse"><stop offset="0" stop-color="#a479ff"/><stop offset="0.5" stop-color="#527bfe"/><stop offset="1" stop-color="#32befc"/></linearGradient><linearGradient id="linear-gradient-2" x1="4.2" y1="56.33" x2="37.3" y2="9.47" xlink:href="#linear-gradient"/><linearGradient id="linear-gradient-3" x1="-1.27" y1="52.47" x2="31.83" y2="5.6" xlink:href="#linear-gradient"/><linearGradient id="linear-gradient-4" x1="2.72" y1="55.28" x2="35.82" y2="8.42" xlink:href="#linear-gradient"/></defs><g id="Layer_2" data-name="Layer 2"><g id="Layer_1-2" data-name="Layer 1"><path class="cls-1" d="M35.12,15.59h12L31.51,0V12A3.61,3.61,0,0,0,35.12,15.59Z"/><path class="cls-2" d="M30.1,12V0H3.61A3.61,3.61,0,0,0,0,3.61V54.27a3.61,3.61,0,0,0,3.61,3.61H18.16V49.32a16.07,16.07,0,0,1-14.64-16V31.79a1.41,1.41,0,0,1,2.82,0v1.55a13.23,13.23,0,0,0,26.46,0V31.79a1.41,1.41,0,1,1,2.82,0v1.55A16.07,16.07,0,0,1,21,49.32v8.56H43.49a3.6,3.6,0,0,0,3.61-3.61V17h-12A5,5,0,0,1,30.1,12Zm-.83,13.75H27a.65.65,0,0,0-.66.66V28.3A.66.66,0,0,0,27,29h2.32v4.38a9.7,9.7,0,0,1-19.4,0V29h2.26a.67.67,0,0,0,.66-.66V26.39a.66.66,0,0,0-.66-.66H9.87V19.65a9.7,9.7,0,0,1,19.4,0Z"/><path class="cls-3" d="M16.92,19.26a1.61,1.61,0,0,0-1.62,1.62V32.57a1.62,1.62,0,1,0,3.23,0V20.88A1.61,1.61,0,0,0,16.92,19.26Z"/><path class="cls-4" d="M22.45,23.36A1.63,1.63,0,0,0,20.83,25v4.73a1.62,1.62,0,0,0,3.24,0V25A1.63,1.63,0,0,0,22.45,23.36Z"/></g></g></svg>