<svg xmlns="http://www.w3.org/2000/svg" viewBox="0 0 169.3 218.67"><defs><style>.cls-1{fill:none;stroke:#000;stroke-linecap:round;stroke-miterlimit:10;stroke-width:6.38px;}</style></defs><g id="Layer_2" data-name="Layer 2"><g id="Layer_1-2" data-name="Layer 1"><path class="cls-1" d="M60.18,141.61C32.42,35.25,84.65,3.72,84.65,3.72s52.24,31.53,24.47,137.89Z"/><line class="cls-1" x1="84.65" y1="115.67" x2="84.65" y2="141.61"/><path class="cls-1" d="M116.57,101l17.36,18.52v41.8a.65.65,0,0,1-1.08.5l-23.62-20.24"/><path class="cls-1" d="M52.74,101,35.37,119.55v41.8a.66.66,0,0,0,1.09.5l23.61-20.24"/><circle class="cls-1" cx="84.48" cy="65.55" r="12.35"/><path class="cls-1" d="M84.44,162.78c3.28.06,10.65,0,12.35,5.18,1.94,5.9-6.11,25.71-12.35,25.71s-14.76-14.42-11.5-27C74,162.76,81.57,162.74,84.44,162.78Z"/><path class="cls-1" d="M64.87,25.34,9.63,54.7A12.12,12.12,0,0,0,3.19,65.41v90.26a12.13,12.13,0,0,0,5.2,10l68.52,47.68a12.14,12.14,0,0,0,13.76.07l70.14-47.76a12.12,12.12,0,0,0,5.3-10V65.41a12.11,12.11,0,0,0-6.43-10.71L103.1,24.63"/></g></g></svg>