<svg xmlns="http://www.w3.org/2000/svg" viewBox="0 0 85.07 85.07"><g id="Layer_2" data-name="Layer 2"><g id="Layer_1-2" data-name="Layer 1"><path d="M38.6,85.07l-.74-.22a4.84,4.84,0,0,1-3.1-3.65c-.58-2.25-1.06-4.51-1.57-6.78a.54.54,0,0,0-.43-.47,30.86,30.86,0,0,1-5.58-2.32.45.45,0,0,0-.53,0l-5.42,3.41a6.76,6.76,0,0,1-3,1.11,3.84,3.84,0,0,1-3.19-1c-1.75-1.7-3.5-3.41-5.17-5.19a4.09,4.09,0,0,1-.78-4.34A9.1,9.1,0,0,1,10,63.83c1.1-1.81,2.24-3.6,3.38-5.4a.47.47,0,0,0,0-.56,31.55,31.55,0,0,1-2.31-5.58.49.49,0,0,0-.42-.39L4.19,50.41A5.8,5.8,0,0,1,1,48.63a3.73,3.73,0,0,1-1-2.51C0,43.7,0,41.27,0,38.84a4.08,4.08,0,0,1,2.17-3.4,10.18,10.18,0,0,1,3.23-1.08l5.25-1.17a.49.49,0,0,0,.42-.38,30.62,30.62,0,0,1,2.3-5.55.57.57,0,0,0,0-.67q-1.72-2.7-3.43-5.42a6.54,6.54,0,0,1-1.07-2.92,3.88,3.88,0,0,1,1-3.19c1.7-1.75,3.4-3.5,5.18-5.17a4,4,0,0,1,4.34-.75A8.17,8.17,0,0,1,21.2,10c1.84,1.12,3.65,2.29,5.47,3.42a.62.62,0,0,0,.48,0,32.86,32.86,0,0,1,5.63-2.32.51.51,0,0,0,.4-.45c.49-2.19,1-4.37,1.49-6.55a5.57,5.57,0,0,1,2-3.32A3.67,3.67,0,0,1,39,0c2.38,0,4.75,0,7.13,0a4.21,4.21,0,0,1,3.75,2.59,14.52,14.52,0,0,1,1,3.5c.36,1.51.7,3,1,4.56a.51.51,0,0,0,.4.45,30.69,30.69,0,0,1,5.62,2.33.45.45,0,0,0,.53-.06c1.89-1.2,3.78-2.41,5.69-3.58a5.29,5.29,0,0,1,4.47-.75,4.38,4.38,0,0,1,1.76,1.15c1.45,1.46,2.89,2.94,4.37,4.37a4.41,4.41,0,0,1,1.05,5.25,12,12,0,0,1-.92,1.73c-1,1.69-2.1,3.36-3.16,5a.57.57,0,0,0,0,.67A31.24,31.24,0,0,1,74,32.78a.52.52,0,0,0,.44.41c2.19.48,4.37,1,6.55,1.48a5.16,5.16,0,0,1,3.6,2.51,10,10,0,0,1,.52,1.42v7.88a10.94,10.94,0,0,1-.76,1.79,5.31,5.31,0,0,1-3.38,2.13c-2.17.52-4.36,1-6.55,1.5a.47.47,0,0,0-.41.38,31.71,31.71,0,0,1-2.31,5.55.56.56,0,0,0,0,.63q1.59,2.51,3.17,5a12.1,12.1,0,0,1,.88,1.57c.73,1.74.78,3.48-.57,4.94-1.67,1.79-3.43,3.51-5.19,5.21a3.82,3.82,0,0,1-3.17,1,6.83,6.83,0,0,1-3-1.1l-5.43-3.42a.45.45,0,0,0-.53,0A30.28,30.28,0,0,1,52.32,74a.54.54,0,0,0-.43.47c-.5,2.26-1,4.53-1.56,6.78a4.84,4.84,0,0,1-3.11,3.64c-.24.09-.49.15-.74.23ZM11.27,67.21a1.57,1.57,0,0,0,.44,1.22q2.43,2.44,4.87,4.87a1.67,1.67,0,0,0,1.71.46,7.17,7.17,0,0,0,1.61-.69c2-1.25,4.07-2.54,6.09-3.84a1.51,1.51,0,0,1,1.72,0,28.44,28.44,0,0,0,6.53,2.69A1.43,1.43,0,0,1,35.35,73c.42,1.9.84,3.79,1.29,5.68a20.65,20.65,0,0,0,.71,2.56,2,2,0,0,0,2.15,1.39c2,0,4.07,0,6.1,0a2.09,2.09,0,0,0,2.08-1.27,5.14,5.14,0,0,0,.37-1c.57-2.42,1.13-4.85,1.66-7.28a1.51,1.51,0,0,1,1.2-1.28,27.43,27.43,0,0,0,6.41-2.65,1.59,1.59,0,0,1,1.83.06c2,1.29,4,2.55,6,3.81a5.41,5.41,0,0,0,1,.54,2,2,0,0,0,2.31-.32c1.6-1.59,3.19-3.19,4.79-4.79a1.72,1.72,0,0,0,.5-1.32,3.9,3.9,0,0,0-.68-1.9q-2-3.16-3.95-6.3a1.33,1.33,0,0,1-.06-1.51,30.53,30.53,0,0,0,2.79-6.74,1.29,1.29,0,0,1,1-1q2.73-.6,5.44-1.24c1-.23,1.94-.46,2.88-.78a1.79,1.79,0,0,0,1.38-1.65c0-2.35,0-4.7,0-7.05a1.56,1.56,0,0,0-.5-1.12A3.75,3.75,0,0,0,80.23,37c-2.33-.54-4.65-1.09-7-1.58a1.69,1.69,0,0,1-1.43-1.35,27.88,27.88,0,0,0-2.64-6.33,1.54,1.54,0,0,1,0-1.73c1.3-2,2.57-4,3.83-6.09a5.85,5.85,0,0,0,.63-1.31,1.87,1.87,0,0,0-.37-2l-4.85-4.84a1.66,1.66,0,0,0-1.25-.48,3.91,3.91,0,0,0-2,.68c-2,1.29-4.11,2.58-6.15,3.89a1.57,1.57,0,0,1-1.79.06,27.08,27.08,0,0,0-6.48-2.7A1.44,1.44,0,0,1,49.72,12c-.44-2-.88-4-1.37-6.06a15,15,0,0,0-.79-2.46,1.78,1.78,0,0,0-1.77-1.07c-2.17,0-4.34,0-6.5,0a1.89,1.89,0,0,0-1.77,1A5.12,5.12,0,0,0,37,4.68c-.58,2.48-1.14,5-1.71,7.47a1.23,1.23,0,0,1-.94,1,28.37,28.37,0,0,0-6.69,2.77A1.44,1.44,0,0,1,26,15.87c-2-1.29-4-2.56-6.05-3.82a5.34,5.34,0,0,0-1.11-.58,2,2,0,0,0-2.22.25q-2.46,2.43-4.9,4.89a1.6,1.6,0,0,0-.47,1.17,3.63,3.63,0,0,0,.64,2c1.31,2.09,2.63,4.2,4,6.29a1.45,1.45,0,0,1,.06,1.65,27.84,27.84,0,0,0-2.73,6.55A1.46,1.46,0,0,1,12,35.36c-1.89.42-3.79.84-5.67,1.29a20.43,20.43,0,0,0-2.67.78,1.88,1.88,0,0,0-1.23,2c0,2.1,0,4.2,0,6.3a2,2,0,0,0,1.25,2,5.51,5.51,0,0,0,1,.37c2.41.57,4.82,1.13,7.24,1.65a1.56,1.56,0,0,1,1.29,1.2,28,28,0,0,0,2.67,6.45,1.55,1.55,0,0,1-.06,1.76c-1.31,2-2.59,4.1-3.88,6.16A3.76,3.76,0,0,0,11.27,67.21Z"/><path d="M19.17,42.51A23.37,23.37,0,1,1,42.31,65.9,23.35,23.35,0,0,1,19.17,42.51ZM54.66,59.58a20.94,20.94,0,1,0-11.49,3.86c0-1,0-2.09,0-3.14a.57.57,0,0,0-.34-.55L31.26,53.08a1.53,1.53,0,0,1-.85-1.47c0-2.88,0-5.77,0-8.66v-.44a4.75,4.75,0,1,1,5.79-5.82,4.62,4.62,0,0,1-.27,3.23,4.83,4.83,0,0,1-3.1,2.6V43c0,2.6,0,5.2,0,7.8a.68.68,0,0,0,.4.67c3.84,2.2,7.67,4.43,11.51,6.63a1.49,1.49,0,0,1,.84,1.47c0,1.09,0,2.18,0,3.27v.43h.2a21,21,0,0,0,6.23-2,.4.4,0,0,0,.23-.43V52.65c0-.1,0-.21,0-.31l-.31-.11a4.73,4.73,0,1,1,3.71-8.68A4.72,4.72,0,0,1,55,52.2a.51.51,0,0,0-.38.59c0,2.1,0,4.2,0,6.3Zm-23-19.31a2.34,2.34,0,1,0,0-4.67,2.34,2.34,0,1,0,0,4.67Zm21.82,5.17a2.33,2.33,0,0,0,0,4.66,2.33,2.33,0,1,0,0-4.66Z"/><path d="M43.31,34.09v.26c0,2.82,0,5.64,0,8.47a.42.42,0,0,0,.35.49A4.74,4.74,0,0,1,46.85,48a4.75,4.75,0,0,1-9.25,1.31A4.74,4.74,0,0,1,40,43.49h0c.8-.09.83-.61.82-1.27,0-2.61,0-5.23,0-7.84a.44.44,0,0,0-.35-.5A4.69,4.69,0,0,1,37.37,29a4.74,4.74,0,0,1,9.18-1.17,4.68,4.68,0,0,1-1.72,5.5C44.37,33.58,43.86,33.8,43.31,34.09Zm-3.54-4.7a2.34,2.34,0,1,0,2.34-2.3A2.32,2.32,0,0,0,39.77,29.39Zm0,18.35a2.33,2.33,0,0,0,2.29,2.36,2.36,2.36,0,0,0,2.38-2.33,2.33,2.33,0,0,0-2.37-2.33A2.3,2.3,0,0,0,39.77,47.74Z"/></g></g></svg>