<svg xmlns="http://www.w3.org/2000/svg" viewBox="0 0 205.59 193.33"><defs><style>.cls-1{fill:none;stroke-linecap:round;stroke-linejoin:round;stroke-width:6.38px;}.cls-1,.cls-2{stroke:#000;}.cls-2{stroke-miterlimit:10;}</style></defs><g id="Layer_2" data-name="Layer 2"><g id="Layer_1-2" data-name="Layer 1"><path class="cls-1" d="M102.79,165.74a35.39,35.39,0,0,0,69-8.73,28.2,28.2,0,0,0,21-45.66,36.12,36.12,0,0,0-5.15-53.79c.09-1,.14-1.93.14-2.92A29.82,29.82,0,0,0,160.05,24.9a34.94,34.94,0,0,0-57.26-11.26A34.94,34.94,0,0,0,45.53,24.9,29.82,29.82,0,0,0,17.88,54.64c0,1,.05,2,.14,2.92a36.12,36.12,0,0,0-5.15,53.79,28.2,28.2,0,0,0,21,45.66,35.39,35.39,0,0,0,69,8.73Z"/><polyline class="cls-1" points="102.79 13.64 102.79 119.71 124.68 125 135.97 145.12"/><polyline class="cls-1" points="124.68 125 142.68 101.86 121.85 73.68 102.79 73.68"/><line class="cls-1" x1="121.85" y1="73.68" x2="131.38" y2="52.67"/><line class="cls-1" x1="142.68" y1="101.86" x2="165.26" y2="101.86"/><path class="cls-1" d="M42.79,70.3l24.71,18L47,123.59s30.35-7.06,27.53,24.35"/><path class="cls-1" d="M187.71,54.64s2.26,14.41-9,24.74"/><path class="cls-1" d="M10.05,107.91A45.65,45.65,0,0,0,23,118.66"/><circle class="cls-2" cx="133.5" cy="48.24" r="7.94"/><circle class="cls-2" cx="170.73" cy="101.86" r="7.94"/><circle class="cls-2" cx="138.09" cy="147.94" r="7.94"/><circle class="cls-2" cx="74.74" cy="151.65" r="7.94"/><circle class="cls-2" cx="74.74" cy="85.98" r="7.94"/><circle class="cls-2" cx="42.79" cy="69.21" r="7.94"/><circle class="cls-2" cx="45.62" cy="125" r="7.94"/></g></g></svg>