<svg xmlns="http://www.w3.org/2000/svg" viewBox="0 0 50.66 45.97"><defs><style>.cls-1,.cls-2{fill:none;stroke:#000;}.cls-1{stroke-linecap:round;stroke-linejoin:bevel;stroke-width:1.7px;}.cls-2{stroke-miterlimit:10;stroke-width:1.1px;}</style></defs><g id="Layer_2" data-name="Layer 2"><g id="Layer_1-2" data-name="Layer 1"><polyline class="cls-1" points="16.65 17.8 9.53 19.3 25.06 22.85 40.6 19.61 33.99 18.13"/><path class="cls-1" d="M9.82,19.18.17,28.55l15.37,3.18,9.33-8.82a.28.28,0,0,1,.38,0l9.34,8.82,15.49-3L40.3,19.49"/><polyline class="cls-1" points="9.02 30.57 9.02 42.33 25.06 45.12 41.11 42.4 41.11 30.89"/><line class="cls-1" x1="25.06" y1="45.12" x2="25.06" y2="23.24"/><rect class="cls-2" x="18.61" y="3.58" width="12.84" height="12.84" rx="2.08"/><path d="M25.28,11.39H22.17l-.54,1.21h-1l2.57-5.74h1L26.8,12.6h-1ZM23.73,7.83l-1.21,2.73h2.42Z"/><path d="M27.6,12.6V6.86h.91V12.6Z"/><line class="cls-2" x1="27.1" y1="3.58" x2="27.1"/><line class="cls-2" x1="23.73" y1="3.58" x2="23.73"/><line class="cls-2" x1="27.1" y1="20" x2="27.1" y2="16.42"/><line class="cls-2" x1="23.73" y1="20" x2="23.73" y2="16.42"/><line class="cls-2" x1="19" y1="8.32" x2="15.42" y2="8.32"/><line class="cls-2" x1="19" y1="11.69" x2="15.42" y2="11.69"/><line class="cls-2" x1="35.42" y1="8.32" x2="31.84" y2="8.32"/><line class="cls-2" x1="35.42" y1="11.69" x2="31.84" y2="11.69"/></g></g></svg>