<svg xmlns="http://www.w3.org/2000/svg" viewBox="0 0 71.68 71.68"><defs><style>.cls-1{fill:#fff;}</style></defs><g id="Layer_2" data-name="Layer 2"><g id="Layer_1-2" data-name="Layer 1"><path d="M71.68,36.1v-.52a2.9,2.9,0,0,0-2.13-2.79A44.91,44.91,0,0,1,38.63,2.11,2.91,2.91,0,0,0,35.84,0h0a2.92,2.92,0,0,0-2.79,2.11A44.89,44.89,0,0,1,2.13,32.79,2.91,2.91,0,0,0,0,35.58v.52a2.91,2.91,0,0,0,2.13,2.79A44.91,44.91,0,0,1,33.05,69.57a2.91,2.91,0,0,0,2.79,2.11h0a2.9,2.9,0,0,0,2.79-2.11A44.93,44.93,0,0,1,69.55,38.89,2.9,2.9,0,0,0,71.68,36.1Z"/><path class="cls-1" d="M40.65,45.61a2.36,2.36,0,0,1-1.67-4l5.74-5.74L39,30.1a2.36,2.36,0,1,1,3.34-3.34l6.88,6.88a3.12,3.12,0,0,1,0,4.4l-6.88,6.88A2.35,2.35,0,0,1,40.65,45.61ZM45.86,37Z"/><path class="cls-1" d="M29.36,44.92,22.48,38a3.11,3.11,0,0,1,0-4.4l6.87-6.88A2.36,2.36,0,1,1,32.7,30.1L27,35.84l5.74,5.74a2.36,2.36,0,0,1-3.34,3.34Zm-3.54-8h0Z"/></g></g></svg>