<svg xmlns="http://www.w3.org/2000/svg" viewBox="0 0 342.34 71.68"><defs><style>.cls-1{fill:#fff;}</style></defs><g id="Layer_2" data-name="Layer 2"><g id="Layer_1-2" data-name="Layer 1"><path d="M71.68,36.1v-.52a2.9,2.9,0,0,0-2.13-2.79A44.91,44.91,0,0,1,38.63,2.11,2.91,2.91,0,0,0,35.84,0h0a2.92,2.92,0,0,0-2.79,2.11A44.89,44.89,0,0,1,2.13,32.79,2.91,2.91,0,0,0,0,35.58v.52a2.91,2.91,0,0,0,2.13,2.79A44.91,44.91,0,0,1,33.05,69.57a2.91,2.91,0,0,0,2.79,2.11h0a2.9,2.9,0,0,0,2.79-2.11A44.93,44.93,0,0,1,69.55,38.89,2.9,2.9,0,0,0,71.68,36.1Z"/><path class="cls-1" d="M40.65,45.61a2.36,2.36,0,0,1-1.67-4l5.74-5.74L39,30.1a2.36,2.36,0,1,1,3.34-3.34l6.88,6.88a3.12,3.12,0,0,1,0,4.4l-6.88,6.88A2.35,2.35,0,0,1,40.65,45.61ZM45.86,37Z"/><path class="cls-1" d="M29.36,44.92,22.48,38a3.11,3.11,0,0,1,0-4.4l6.87-6.88A2.36,2.36,0,1,1,32.7,30.1L27,35.84l5.74,5.74a2.36,2.36,0,0,1-3.34,3.34Zm-3.54-8h0Z"/><path d="M100.06,33a6.79,6.79,0,0,1-2.92,2.78,10.63,10.63,0,0,1-5,1.05H88v9.42H83.1V21.74h9a10.84,10.84,0,0,1,4.85,1,6.8,6.8,0,0,1,3,2.7,7.95,7.95,0,0,1,.07,7.59ZM95,32a3.45,3.45,0,0,0,1-2.62q0-3.58-4-3.58H88v7.13h3.9A4.29,4.29,0,0,0,95,32Z"/><path d="M122.43,38H108.2a4.81,4.81,0,0,0,1.47,3.31,4.53,4.53,0,0,0,3.2,1.19,4,4,0,0,0,3.9-2.35h5.31a8.86,8.86,0,0,1-3.24,4.62A9.38,9.38,0,0,1,113,46.59a10.19,10.19,0,0,1-5-1.25,8.76,8.76,0,0,1-3.48-3.53,10.83,10.83,0,0,1-1.24-5.27,11,11,0,0,1,1.22-5.31,8.64,8.64,0,0,1,3.45-3.51,11.08,11.08,0,0,1,10.07,0,8.49,8.49,0,0,1,3.41,3.39,10.28,10.28,0,0,1,1.21,5A12,12,0,0,1,122.43,38Zm-5-3.3a3.9,3.9,0,0,0-1.37-3,4.85,4.85,0,0,0-3.26-1.14,4.47,4.47,0,0,0-3.08,1.11,4.86,4.86,0,0,0-1.53,3.07Z"/><path d="M133.55,27.4a6.87,6.87,0,0,1,3.5-.88v5.17h-1.3a5,5,0,0,0-3.5,1.09c-.78.72-1.17,2-1.17,3.79v9.7h-4.93V26.8h4.93v3A6.9,6.9,0,0,1,133.55,27.4Z"/><path d="M149.28,30.84h-3.41V46.27h-5V30.84h-2.21v-4h2.21v-1q0-3.59,2-5.27T149.07,19v4.15a3.66,3.66,0,0,0-2.49.6,3,3,0,0,0-.71,2.28v.81h3.41Z"/><path d="M170.44,38H156.2a4.86,4.86,0,0,0,1.48,3.31,4.53,4.53,0,0,0,3.2,1.19,4,4,0,0,0,3.9-2.35h5.31a8.86,8.86,0,0,1-3.24,4.62A9.41,9.41,0,0,1,161,46.59a10.18,10.18,0,0,1-5-1.25,8.76,8.76,0,0,1-3.48-3.53,10.83,10.83,0,0,1-1.25-5.27,11,11,0,0,1,1.23-5.31,8.58,8.58,0,0,1,3.45-3.51,11.08,11.08,0,0,1,10.07,0,8.49,8.49,0,0,1,3.41,3.39,10.39,10.39,0,0,1,1.21,5A12,12,0,0,1,170.44,38Zm-5-3.3a3.9,3.9,0,0,0-1.37-3,4.86,4.86,0,0,0-3.27-1.14,4.46,4.46,0,0,0-3.07,1.11,4.86,4.86,0,0,0-1.53,3.07Z"/><path d="M174.13,31.25a8.82,8.82,0,0,1,3.41-3.52,9.85,9.85,0,0,1,5-1.24,9.57,9.57,0,0,1,6,1.81,8.8,8.8,0,0,1,3.18,5.07h-5.31a3.85,3.85,0,0,0-1.42-2,4.13,4.13,0,0,0-2.48-.72,4.07,4.07,0,0,0-3.34,1.53,6.76,6.76,0,0,0-1.23,4.34,6.69,6.69,0,0,0,1.23,4.3,4.07,4.07,0,0,0,3.34,1.53,3.72,3.72,0,0,0,3.9-2.67h5.31a9,9,0,0,1-3.2,5,9.41,9.41,0,0,1-6,1.86,9.86,9.86,0,0,1-5-1.25,8.73,8.73,0,0,1-3.41-3.51,10.93,10.93,0,0,1-1.23-5.29A10.91,10.91,0,0,1,174.13,31.25Z"/><path d="M201.05,30.84v9.42a1.87,1.87,0,0,0,.48,1.43,2.31,2.31,0,0,0,1.59.44h2.29v4.14h-3.09q-6.23,0-6.23-6V30.84h-2.31v-4h2.31V22h5V26.8h4.36v4Z"/><path d="M209.4,27.49A11.68,11.68,0,0,1,213.86,23a12.74,12.74,0,0,1,6.35-1.59,12.5,12.5,0,0,1,7.2,2.1,11.07,11.07,0,0,1,4.32,5.84h-5.65a6,6,0,0,0-2.38-2.64,7,7,0,0,0-3.53-.88,7.23,7.23,0,0,0-3.81,1,6.76,6.76,0,0,0-2.6,2.82,9.23,9.23,0,0,0-.94,4.29,9.23,9.23,0,0,0,.94,4.27,6.78,6.78,0,0,0,2.6,2.85,7.22,7.22,0,0,0,3.81,1,6.91,6.91,0,0,0,3.53-.89,6.07,6.07,0,0,0,2.38-2.66h5.65a10.93,10.93,0,0,1-4.3,5.85,12.49,12.49,0,0,1-7.22,2.09,12.74,12.74,0,0,1-6.35-1.59,11.7,11.7,0,0,1-4.46-4.45A12.75,12.75,0,0,1,207.76,34,12.84,12.84,0,0,1,209.4,27.49Z"/><path d="M239.54,45.34A9,9,0,0,1,236,41.81a10.63,10.63,0,0,1-1.28-5.27A10.34,10.34,0,0,1,236,31.27a9.21,9.21,0,0,1,3.6-3.54,11.09,11.09,0,0,1,10.19,0,9.17,9.17,0,0,1,3.61,3.54,10.43,10.43,0,0,1,1.31,5.27,10.16,10.16,0,0,1-1.35,5.27,9.38,9.38,0,0,1-3.65,3.53,10.69,10.69,0,0,1-5.15,1.25A10.26,10.26,0,0,1,239.54,45.34Zm7.57-3.69A4.72,4.72,0,0,0,249,39.7a6.56,6.56,0,0,0,.7-3.16,5.82,5.82,0,0,0-1.46-4.27,4.77,4.77,0,0,0-3.56-1.5,4.68,4.68,0,0,0-3.54,1.5,6,6,0,0,0-1.42,4.27,6,6,0,0,0,1.39,4.27,4.58,4.58,0,0,0,3.5,1.49A5.05,5.05,0,0,0,247.11,41.65Z"/><path d="M258.29,31.23A8.48,8.48,0,0,1,266,26.49a8.3,8.3,0,0,1,3.62.82,7.34,7.34,0,0,1,2.74,2.2V20.27h5v26h-5V43.39a6.66,6.66,0,0,1-2.57,2.32,8,8,0,0,1-3.83.88,8.32,8.32,0,0,1-4.5-1.27,8.74,8.74,0,0,1-3.21-3.56,11.42,11.42,0,0,1-1.18-5.29A11.21,11.21,0,0,1,258.29,31.23Zm13.44,2.23a5,5,0,0,0-1.9-2,5.14,5.14,0,0,0-2.56-.68,4.91,4.91,0,0,0-2.53.67,5,5,0,0,0-1.89,1.95,6.1,6.1,0,0,0-.72,3,6.3,6.3,0,0,0,.72,3.07,5.23,5.23,0,0,0,1.9,2,4.85,4.85,0,0,0,2.52.71,5,5,0,0,0,2.56-.69,4.94,4.94,0,0,0,1.9-2,6.27,6.27,0,0,0,.7-3.07A6.31,6.31,0,0,0,271.73,33.46Z"/><path d="M300.16,38H285.93a4.89,4.89,0,0,0,1.47,3.31,4.55,4.55,0,0,0,3.2,1.19,4,4,0,0,0,3.9-2.35h5.31a8.89,8.89,0,0,1-3.23,4.62,9.43,9.43,0,0,1-5.87,1.81,10.19,10.19,0,0,1-5-1.25,8.89,8.89,0,0,1-3.48-3.53,10.83,10.83,0,0,1-1.24-5.27,11,11,0,0,1,1.23-5.31,8.62,8.62,0,0,1,3.44-3.51,11.08,11.08,0,0,1,10.07,0,8.43,8.43,0,0,1,3.41,3.39,10.28,10.28,0,0,1,1.21,5A10.87,10.87,0,0,1,300.16,38Zm-5-3.3a3.93,3.93,0,0,0-1.37-3,4.86,4.86,0,0,0-3.27-1.14,4.47,4.47,0,0,0-3.08,1.11A4.86,4.86,0,0,0,286,34.71Z"/><path d="M327.3,41.6h-9.78l-1.61,4.67h-5.17l8.82-24.56h5.73l8.82,24.56h-5.2ZM326,37.66,322.41,27.4l-3.55,10.26Z"/><path d="M342.34,21.74V46.27h-4.92V21.74Z"/></g></g></svg>