<svg xmlns="http://www.w3.org/2000/svg" viewBox="0 0 275.46 57.5"><g id="Layer_2" data-name="Layer 2"><g id="Layer_1-2" data-name="Layer 1"><path d="M28.75,57.5A28.75,28.75,0,1,1,57.5,28.75,28.79,28.79,0,0,1,28.75,57.5Zm0-55.11A26.36,26.36,0,1,0,55.11,28.75,26.39,26.39,0,0,0,28.75,2.39Z"/><path d="M40,31.11l-4.12,7.14h13.8a22.86,22.86,0,0,0-1.23-21.49L40,31.15Z"/><path d="M24.6,17.41h9L26.83,5.76A23.3,23.3,0,0,0,8.71,17.41H24.6Z"/><path d="M21.18,37.52l-4.4-7.66-6.92,12a23,23,0,0,0,18.89,9.88h.49L21.09,37.58Z"/><path d="M33.12,39.76H23.75l6.92,12A23,23,0,0,0,49,39.76Z"/><path d="M35.12,17.41l5.66,9.9,6.85-11.73A23,23,0,0,0,28.75,5.72h-.49L35,17.41Z"/><path d="M16,28.63l5.63-9.71H8a21.57,21.57,0,0,0-2.28,9.9A22.74,22.74,0,0,0,9.07,40.7l7-12.05Z"/><path d="M84.84,29.35a7.19,7.19,0,0,1-3,2.83,10.48,10.48,0,0,1-5,1.08H73.16V42H67.22V17.62h9.63a11,11,0,0,1,4.93,1,7,7,0,0,1,3,2.78,8,8,0,0,1,1,4.07A7.87,7.87,0,0,1,84.84,29.35Zm-5.91-1.62a3,3,0,0,0,.83-2.26,3,3,0,0,0-.83-2.26,3.57,3.57,0,0,0-2.54-.8H73.16v6.12h3.23A3.57,3.57,0,0,0,78.93,27.73Z"/><path d="M106.18,24.62a8.66,8.66,0,0,1,2,6.06V42h-5.91V31.48a4.27,4.27,0,0,0-1-3,3.94,3.94,0,0,0-5.42,0,4.23,4.23,0,0,0-1,3V42H88.9V16.3h5.95v8.93a6.31,6.31,0,0,1,2.46-2.05,7.93,7.93,0,0,1,3.51-.77A6.92,6.92,0,0,1,106.18,24.62Z"/><path d="M116,41.07a8.85,8.85,0,0,1-3.58-3.47,10.39,10.39,0,0,1-1.3-5.28,10.31,10.31,0,0,1,1.32-5.27,8.91,8.91,0,0,1,3.61-3.49,11.46,11.46,0,0,1,10.29,0A8.91,8.91,0,0,1,130,27.05a10.31,10.31,0,0,1,1.32,5.27A10.18,10.18,0,0,1,130,37.58a9.08,9.08,0,0,1-3.65,3.49,10.8,10.8,0,0,1-5.16,1.22A10.62,10.62,0,0,1,116,41.07Zm8-5.17a5,5,0,0,0,1.2-3.58,5,5,0,0,0-1.17-3.58,3.72,3.72,0,0,0-2.86-1.25,3.79,3.79,0,0,0-2.89,1.23,5.12,5.12,0,0,0-1.15,3.6,5.19,5.19,0,0,0,1.13,3.58,3.69,3.69,0,0,0,2.84,1.25A3.89,3.89,0,0,0,124.06,35.9Z"/><path d="M145.27,37v5h-3a7.37,7.37,0,0,1-5-1.58c-1.2-1-1.81-2.77-1.81-5.16V27.56H133V22.62h2.36V17.89h5.95v4.73h3.89v4.94h-3.89v7.78a1.65,1.65,0,0,0,.41,1.25,2,2,0,0,0,1.39.38Z"/><path d="M152.28,41.07a8.85,8.85,0,0,1-3.58-3.47,10.39,10.39,0,0,1-1.31-5.28,10.31,10.31,0,0,1,1.32-5.27,8.94,8.94,0,0,1,3.62-3.49,11.44,11.44,0,0,1,10.28,0,8.94,8.94,0,0,1,3.62,3.49,10.31,10.31,0,0,1,1.32,5.27,10.18,10.18,0,0,1-1.34,5.26,9,9,0,0,1-3.65,3.49,10.8,10.8,0,0,1-5.16,1.22A10.56,10.56,0,0,1,152.28,41.07Zm8-5.17a5,5,0,0,0,1.2-3.58,5.09,5.09,0,0,0-1.16-3.58,4,4,0,0,0-5.75,0,5.07,5.07,0,0,0-1.15,3.6,5.19,5.19,0,0,0,1.13,3.58,3.67,3.67,0,0,0,2.83,1.25A3.87,3.87,0,0,0,160.3,35.9Z"/><path d="M172.76,18.07a9.11,9.11,0,0,1,6.22-2,10,10,0,0,1,4.47.91,6.47,6.47,0,0,1,2.81,2.46,6.61,6.61,0,0,1,1,3.51,5.8,5.8,0,0,1-1.15,3.74,5.71,5.71,0,0,1-2.67,2v.14A6.3,6.3,0,0,1,186.53,31a6.4,6.4,0,0,1,1.14,3.93,7.22,7.22,0,0,1-1,3.8,6.67,6.67,0,0,1-2.88,2.59,10,10,0,0,1-4.5.94,10.14,10.14,0,0,1-6.66-2A7.9,7.9,0,0,1,170,34h5.77a3.52,3.52,0,0,0,.86,2.41,3.2,3.2,0,0,0,2.44.89,2.74,2.74,0,0,0,2.1-.79,2.85,2.85,0,0,0,.75-2.06A2.77,2.77,0,0,0,180.88,32a6,6,0,0,0-3.39-.75h-1.11V26.44h1.11a6,6,0,0,0,2.87-.6,2.27,2.27,0,0,0,1.09-2.18,2.63,2.63,0,0,0-.69-1.94,2.59,2.59,0,0,0-1.92-.7,2.37,2.37,0,0,0-2,.8,3.62,3.62,0,0,0-.75,2h-5.8A7.6,7.6,0,0,1,172.76,18.07Z"/><path d="M202.72,21.56a2.79,2.79,0,0,0-2-.64,3,3,0,0,0-2.85,1.72,13,13,0,0,0-.9,5.44,5.1,5.1,0,0,1,2.2-1.91,7.13,7.13,0,0,1,3.18-.7,7.24,7.24,0,0,1,5.48,2.16,8.35,8.35,0,0,1,2.06,6,9.34,9.34,0,0,1-1,4.45,7.28,7.28,0,0,1-3,3,9.5,9.5,0,0,1-4.64,1.08q-5.35,0-7.44-3.35c-1.39-2.24-2.08-5.45-2.08-9.65q0-6.6,2.2-9.81c1.48-2.15,3.83-3.22,7.08-3.22a8.64,8.64,0,0,1,4.39,1,6.87,6.87,0,0,1,2.71,2.69,9.08,9.08,0,0,1,1.1,3.65h-5.53A3.56,3.56,0,0,0,202.72,21.56Zm-4.26,9.49a3.2,3.2,0,0,0-1,2.52,3.56,3.56,0,0,0,.92,2.6,3.51,3.51,0,0,0,2.63.94,3.16,3.16,0,0,0,2.41-.92,3.47,3.47,0,0,0,.89-2.52,3.64,3.64,0,0,0-.87-2.57,3.26,3.26,0,0,0-2.5-.94A3.6,3.6,0,0,0,198.46,31.05Z"/><path d="M215.6,19.56q2.31-3.43,7.45-3.44t7.45,3.44c1.54,2.3,2.32,5.44,2.32,9.42s-.78,7.19-2.32,9.49-4,3.44-7.45,3.44-5.91-1.15-7.45-3.44S213.28,33,213.28,29,214.05,21.86,215.6,19.56Zm10.61,4a3.58,3.58,0,0,0-6.32,0,14.93,14.93,0,0,0-.77,5.4,23.2,23.2,0,0,0,.28,3.91,5,5,0,0,0,1.13,2.5,3.79,3.79,0,0,0,5,0,5,5,0,0,0,1.13-2.5A23.2,23.2,0,0,0,227,29,14.93,14.93,0,0,0,226.21,23.58Z"/><path d="M259.09,37.7H250L248.52,42H242.3l8.83-24.39H258L266.84,42h-6.29Zm-1.53-4.58-3-8.93-3,8.93Z"/><path d="M275.46,17.62V42h-5.95V17.62Z"/></g></g></svg>