<svg xmlns="http://www.w3.org/2000/svg" xmlns:xlink="http://www.w3.org/1999/xlink" viewBox="0 0 70.63 70.63"><defs><style>.cls-1{fill:url(#linear-gradient);}.cls-2{fill:url(#linear-gradient-2);}.cls-3{fill:url(#linear-gradient-3);}.cls-4{fill:url(#linear-gradient-4);}.cls-5{fill:url(#linear-gradient-5);}.cls-6{fill:url(#linear-gradient-6);}.cls-7{fill:url(#linear-gradient-7);}</style><linearGradient id="linear-gradient" x1="0.02" y1="501.73" x2="70.61" y2="431.14" gradientTransform="matrix(1, 0, 0, -1, 0, 501.75)" gradientUnits="userSpaceOnUse"><stop offset="0" stop-color="#f77dff"/><stop offset="1" stop-color="#4633ff"/></linearGradient><linearGradient id="linear-gradient-2" x1="40.45" y1="476.32" x2="65.7" y2="457.63" xlink:href="#linear-gradient"/><linearGradient id="linear-gradient-3" x1="17.71" y1="497.96" x2="28.71" y2="474.49" xlink:href="#linear-gradient"/><linearGradient id="linear-gradient-4" x1="10.07" y1="462.75" x2="36.73" y2="439.12" xlink:href="#linear-gradient"/><linearGradient id="linear-gradient-5" x1="41.82" y1="458.93" x2="53.29" y2="434.84" xlink:href="#linear-gradient"/><linearGradient id="linear-gradient-6" x1="34.1" y1="494.03" x2="60.46" y2="470.39" xlink:href="#linear-gradient"/><linearGradient id="linear-gradient-7" x1="4.8" y1="475.41" x2="30.28" y2="456.8" xlink:href="#linear-gradient"/></defs><g id="Layer_2" data-name="Layer 2"><g id="Layer_1-2" data-name="Layer 1"><path class="cls-1" d="M35.31,70.63A35.32,35.32,0,1,1,70.63,35.31,35.36,35.36,0,0,1,35.31,70.63Zm0-67.69A32.37,32.37,0,1,0,67.68,35.31,32.41,32.41,0,0,0,35.31,2.94Z"/><path class="cls-2" d="M49.1,38.21,44,47H61a28.06,28.06,0,0,0-1.5-26.4L49.17,38.26Z"/><path class="cls-3" d="M30.21,21.39h11L33,7.08A28.57,28.57,0,0,0,10.7,21.39H30.21Z"/><path class="cls-4" d="M26,46.08l-5.4-9.4L12.12,51.4A28.22,28.22,0,0,0,35.31,63.54h.61l-10-17.39Z"/><path class="cls-5" d="M40.67,48.84H29.17l8.51,14.78A28.31,28.31,0,0,0,60.2,48.84Z"/><path class="cls-6" d="M43.13,21.39l7,12.15L58.5,19.13A28.22,28.22,0,0,0,35.31,7h-.59L43,21.39Z"/><path class="cls-7" d="M19.68,35.16,26.6,23.24H9.86A26.52,26.52,0,0,0,7.06,35.4,28,28,0,0,0,11.14,50l8.56-14.8Z"/></g></g></svg>