<svg xmlns="http://www.w3.org/2000/svg" viewBox="0 0 57.5 57.5"><g id="Layer_2" data-name="Layer 2"><g id="Layer_1-2" data-name="Layer 1"><path d="M28.75,57.5A28.75,28.75,0,1,1,57.5,28.75,28.79,28.79,0,0,1,28.75,57.5Zm0-55.11A26.36,26.36,0,1,0,55.11,28.75,26.39,26.39,0,0,0,28.75,2.39Z"/><path d="M40,31.11l-4.12,7.14h13.8a22.86,22.86,0,0,0-1.23-21.49L40,31.15Z"/><path d="M24.6,17.41h9L26.83,5.76A23.3,23.3,0,0,0,8.71,17.41H24.6Z"/><path d="M21.18,37.52l-4.4-7.66-6.92,12a23,23,0,0,0,18.89,9.88h.49L21.09,37.58Z"/><path d="M33.12,39.76H23.75l6.92,12A23,23,0,0,0,49,39.76Z"/><path d="M35.12,17.41l5.66,9.9,6.85-11.73A23,23,0,0,0,28.75,5.72h-.49L35,17.41Z"/><path d="M16,28.63l5.63-9.71H8a21.57,21.57,0,0,0-2.28,9.9A22.74,22.74,0,0,0,9.07,40.7l7-12.05Z"/></g></g></svg>