<svg xmlns="http://www.w3.org/2000/svg" viewBox="0 0 169.3 198.54"><defs><style>.cls-1{fill:none;stroke-linecap:round;stroke-linejoin:round;stroke-width:6.38px;}.cls-1,.cls-2{stroke:#000;}.cls-2{stroke-miterlimit:10;}</style></defs><g id="Layer_2" data-name="Layer 2"><g id="Layer_1-2" data-name="Layer 1"><path class="cls-1" d="M166.11,95.68v-57A11.23,11.23,0,0,0,158.53,28L88.32,3.8A11.23,11.23,0,0,0,81,3.8L10.77,28A11.23,11.23,0,0,0,3.19,38.64V96.26a89.48,89.48,0,0,0,39.72,74.37l33.63,22.5A13.12,13.12,0,0,0,91,193.2l34.61-22.65A89.46,89.46,0,0,0,166.11,95.68Z"/><path class="cls-1" d="M46.89,74.43h75.53a6,6,0,0,1,6,6v48.35a20,20,0,0,1-20,20H60.89a20,20,0,0,1-20-20V80.43A6,6,0,0,1,46.89,74.43Z"/><path class="cls-1" d="M54.06,74.43V63.61A30.6,30.6,0,0,1,84.65,33h0a30.59,30.59,0,0,1,30.59,30.59V74.43"/><path class="cls-2" d="M95.86,106.67A11.21,11.21,0,1,0,81,117.27V128.2a3.65,3.65,0,1,0,7.29,0V117.25A11.21,11.21,0,0,0,95.86,106.67Z"/></g></g></svg>