<svg xmlns="http://www.w3.org/2000/svg" viewBox="0 0 169.03 201.91"><defs><style>.cls-1{fill:none;stroke:#000;stroke-linecap:round;stroke-linejoin:round;stroke-width:6.38px;}</style></defs><g id="Layer_2" data-name="Layer 2"><g id="Layer_1-2" data-name="Layer 1"><path class="cls-1" d="M3.19,97.78a72.33,72.33,0,0,0,122.61,52L23.52,47.52A72.1,72.1,0,0,0,3.19,97.78Z"/><path class="cls-1" d="M68.44,29.72c.76,0,1.52-.06,2.28-.06a68.65,68.65,0,0,1,68.65,68.65c0,1.28,0,2.56-.11,3.83"/><path class="cls-1" d="M165.56,105.69c.18-2.44.28-4.9.28-7.38A95.12,95.12,0,0,0,70.72,3.19c-1.71,0-3.4.05-5.09.13"/><path class="cls-1" d="M71.28,56.5a41.82,41.82,0,0,1,41.27,41.81c0,.07,0,.14,0,.22"/><path class="cls-1" d="M73.75,79.69A18.86,18.86,0,0,1,89.36,95.4"/><line class="cls-1" x1="23.31" y1="160.07" x2="13.42" y2="194.13"/><line class="cls-1" x1="71.28" y1="170.13" x2="79.78" y2="196.6"/><line class="cls-1" x1="89.36" y1="198.72" x2="3.19" y2="198.72"/></g></g></svg>