<svg xmlns="http://www.w3.org/2000/svg" viewBox="0 0 50.11 60.46"><defs><style>.cls-1{fill:#fff;}</style></defs><g id="Layer_2" data-name="Layer 2"><g id="Layer_1-2" data-name="Layer 1"><path d="M47.59,5.56a.69.69,0,0,0-.19-.39,1,1,0,0,1,0,.79,4.33,4.33,0,0,1-.3.78c-.23.5-.51,1-.79,1.47-.58,1-1.19,1.89-1.84,2.81-.31.46-.64.92-1,1.37s-.66.9-1,1.34c-.65.84-1.3,1.68-2,2.5l-.47.11V11.16a2.94,2.94,0,0,0-2.94-2.94h-4c1-.47,2.07-.92,3.13-1.29a46.81,46.81,0,0,1,5.15-1.54,15.77,15.77,0,0,1,5.34-.47A16.12,16.12,0,0,0,41.31,5,51,51,0,0,0,36,6.18,44.41,44.41,0,0,0,30.84,8l-.47.2H2.94A2.94,2.94,0,0,0,0,11.16v43a2.94,2.94,0,0,0,2.94,2.94H37.09A2.94,2.94,0,0,0,40,54.19V17.43l.89-.16.18,0,.14-.15c.74-.87,1.48-1.74,2.15-2.67.34-.46.68-.93,1-1.4s.62-1,.92-1.45A24.64,24.64,0,0,0,46.88,8.5a11.78,11.78,0,0,0,.57-1.64A6.19,6.19,0,0,0,47.6,6,2.16,2.16,0,0,0,47.59,5.56Z"/><path class="cls-1" d="M47.4,5.17c-.78-.78-6.47.08-11.07,1.54a54.79,54.79,0,0,0-9.63,4.46l-1.82,4.9c.2-1.54.35-3.8.35-3.8-12.6,8.57-12.74,17.88-12.74,17.88a7.93,7.93,0,0,0-1.56-2.87c-3.29,7.77-1.5,11.06-1.5,11.06a82.72,82.72,0,0,1-5.83,8,41.44,41.44,0,0,1-.43,7.29l2.9-6a1.23,1.23,0,0,1-.13-1.29,1.15,1.15,0,0,1,1.47-.69,1.15,1.15,0,0,1,.48,1.55,1.22,1.22,0,0,1-1.12.77L3.85,54a37.19,37.19,0,0,1,5.88-5.15,31.09,31.09,0,0,1,2.44-8.94,18,18,0,0,0,8.28-3.07l-2-.76a29.78,29.78,0,0,0,11.37-7.19c-.69-.26-6.08-1.36-6.08-1.36,5.27-.22,7.82-.43,8.61-1.15A53.91,53.91,0,0,0,38.85,19c-1.24-.19-6.37-.58-6.37-.58l8.3-2.06C45.52,10.38,48.18,6,47.4,5.17Z"/><path d="M10.37,38.54S20.36,19.93,40,9.68a90.62,90.62,0,0,0-28.7,29.43Z"/><path d="M46.12,15.6a4,4,0,0,1-4,4,4,4,0,0,1,4,4,4,4,0,0,1,4-4A4,4,0,0,1,46.12,15.6Z"/><path class="cls-1" d="M34.39,29.22a1.5,1.5,0,0,1-1.5,1.5,1.5,1.5,0,0,1,1.5,1.5,1.5,1.5,0,0,1,1.5-1.5A1.5,1.5,0,0,1,34.39,29.22Z"/><path d="M37.6,2.08a1.48,1.48,0,0,1,2.08,0,1.48,1.48,0,0,1,0-2.08A1.48,1.48,0,0,1,37.6,0,1.48,1.48,0,0,1,37.6,2.08Z"/><path d="M26.22,7A2.18,2.18,0,0,1,29.3,7,2.18,2.18,0,0,1,29.3,4a2.18,2.18,0,0,1-3.08,0A2.18,2.18,0,0,1,26.22,7Z"/><path d="M42.62,20.88c.32,6.35.49,12.69.6,19,.06,3.17.08,6.35.12,9.52l0,4.76v.6c0,.23,0,.46,0,.68A5.45,5.45,0,0,1,43,56.8,5.67,5.67,0,0,1,41.43,59,5.84,5.84,0,0,1,39,60.29a6.09,6.09,0,0,1-1.35.17h-1.2c-1.58,0-3.17,0-4.75,0-3.18,0-6.35-.06-9.52-.13-6.35-.11-12.69-.27-19-.57,6.35-.31,12.69-.47,19-.58,3.17-.07,6.34-.09,9.52-.13,1.58,0,3.17,0,4.75,0h1.19a4.22,4.22,0,0,0,1-.13,4.29,4.29,0,0,0,1.77-1,4.44,4.44,0,0,0,1.15-1.65,4.07,4.07,0,0,0,.25-1,2.92,2.92,0,0,0,0-.51V54.2l0-4.76c0-3.17.05-6.35.12-9.52C42.14,33.57,42.3,27.23,42.62,20.88Z"/></g></g></svg>