<svg xmlns="http://www.w3.org/2000/svg" xmlns:xlink="http://www.w3.org/1999/xlink" viewBox="0 0 60.52 73.04"><defs><style>.cls-1{fill:url(#linear-gradient);}.cls-2{fill:#fff;}.cls-3{fill:url(#linear-gradient-2);}.cls-4{fill:url(#linear-gradient-3);}.cls-5{fill:url(#linear-gradient-4);}.cls-6{fill:url(#linear-gradient-5);}.cls-7{fill:url(#linear-gradient-6);}.cls-8{fill:url(#linear-gradient-7);}</style><linearGradient id="linear-gradient" x1="54.78" y1="2.93" x2="5.25" y2="61.99" gradientUnits="userSpaceOnUse"><stop offset="0" stop-color="#e17f41"/><stop offset="1" stop-color="#a24a2b"/></linearGradient><linearGradient id="linear-gradient-2" x1="52.83" y1="1.3" x2="3.3" y2="60.35" xlink:href="#linear-gradient"/><linearGradient id="linear-gradient-3" x1="68.43" y1="7.15" x2="5.23" y2="82.51" xlink:href="#linear-gradient"/><linearGradient id="linear-gradient-4" x1="63.17" y1="9.97" x2="13.65" y2="69.02" xlink:href="#linear-gradient"/><linearGradient id="linear-gradient-5" x1="49.21" y1="-1.74" x2="-0.32" y2="57.31" xlink:href="#linear-gradient"/><linearGradient id="linear-gradient-6" x1="44.71" y1="-5.51" x2="-4.81" y2="53.54" xlink:href="#linear-gradient"/><linearGradient id="linear-gradient-7" x1="72.54" y1="17.83" x2="23.01" y2="76.88" xlink:href="#linear-gradient"/></defs><g id="Layer_2" data-name="Layer 2"><g id="Layer_1-2" data-name="Layer 1"><path class="cls-1" d="M58.23,5.86A.75.75,0,0,0,58,5.39a1.17,1.17,0,0,1,0,1,6.44,6.44,0,0,1-.37.95,18.39,18.39,0,0,1-1,1.8c-.7,1.17-1.45,2.32-2.24,3.44-.39.56-.79,1.12-1.2,1.67S52.4,15.33,52,15.87c-.8,1-1.59,2.05-2.42,3.05l-.58.14V12.72a3.59,3.59,0,0,0-3.59-3.59H40.51a41,41,0,0,1,3.82-1.59,60.2,60.2,0,0,1,6.31-1.89,19.44,19.44,0,0,1,6.54-.56,19.69,19.69,0,0,0-6.63.09A63,63,0,0,0,44,6.62a53,53,0,0,0-6.3,2.26l-.58.25H3.59A3.59,3.59,0,0,0,0,12.72V65.38A3.59,3.59,0,0,0,3.59,69h41.8A3.59,3.59,0,0,0,49,65.38v-45l1.1-.19.22,0,.16-.19c.91-1.06,1.82-2.13,2.64-3.26.41-.57.82-1.14,1.21-1.72s.77-1.17,1.13-1.77a30.86,30.86,0,0,0,1.93-3.75,15.36,15.36,0,0,0,.69-2,5.37,5.37,0,0,0,.18-1A2,2,0,0,0,58.23,5.86Z"/><path class="cls-2" d="M58,5.39c-1-1-7.91.1-13.54,1.88a67.09,67.09,0,0,0-11.78,5.46l-2.24,6c.25-1.88.43-4.66.43-4.66C15.46,24.56,15.28,36,15.28,36a9.64,9.64,0,0,0-1.9-3.5C9.34,42,11.54,46,11.54,46c-1.82,3.28-7.13,9.79-7.13,9.79a50,50,0,0,1-.53,8.92L7.43,57.3a1.53,1.53,0,0,1-.16-1.58,1.41,1.41,0,0,1,1.8-.85,1.43,1.43,0,0,1,.59,1.91,1.5,1.5,0,0,1-1.38.93L4.71,65.14a45.42,45.42,0,0,1,7.2-6.3,38.06,38.06,0,0,1,3-10.94A22.24,22.24,0,0,0,25,44.15l-2.5-.93a36.59,36.59,0,0,0,13.93-8.81C35.61,34.1,29,32.76,29,32.76c6.45-.29,9.57-.54,10.53-1.41,3.47-2.89,8-9,8-9-1.52-.23-7.8-.71-7.8-.71L49.9,19.09C55.7,11.77,59,6.34,58,5.39Z"/><path class="cls-3" d="M12.69,46.22S24.91,23.45,49,10.91a110.71,110.71,0,0,0-35.12,36Z"/><path class="cls-4" d="M56,17.44a4.48,4.48,0,0,1-4.48,4.48A4.49,4.49,0,0,1,56,26.4a4.49,4.49,0,0,1,4.48-4.48A4.48,4.48,0,0,1,56,17.44Z"/><path class="cls-5" d="M41.38,34.82A1.12,1.12,0,0,1,40.25,36a1.13,1.13,0,0,1,1.13,1.14A1.14,1.14,0,0,1,42.52,36,1.13,1.13,0,0,1,41.38,34.82Z"/><path class="cls-6" d="M45.71,2.23a1.56,1.56,0,0,1,2.22,0,1.59,1.59,0,0,1,0-2.23,1.56,1.56,0,0,1-2.22,0A1.59,1.59,0,0,1,45.71,2.23Z"/><path class="cls-7" d="M33.51,7.53a2.34,2.34,0,0,1,3.3,0,2.34,2.34,0,0,1,0-3.3,2.34,2.34,0,0,1-3.3,0A2.34,2.34,0,0,1,33.51,7.53Z"/><path class="cls-8" d="M52.16,24.62c.39,7.76.59,15.53.72,23.29.08,3.88.1,7.77.15,11.65l0,5.82v.74A7.55,7.55,0,0,1,53,67a6.94,6.94,0,0,1-2.31,4.34,7,7,0,0,1-2.93,1.54,6.55,6.55,0,0,1-1.65.21H44.64c-1.94,0-3.88,0-5.82,0-3.88-.05-7.76-.07-11.65-.16-7.76-.13-15.53-.33-23.29-.7,7.76-.38,15.53-.57,23.29-.71,3.89-.08,7.77-.11,11.65-.15,1.94,0,3.88,0,5.82,0h1.45a5.07,5.07,0,0,0,1.23-.17,5,5,0,0,0,2.16-1.16,5.25,5.25,0,0,0,1.41-2,4.85,4.85,0,0,0,.31-1.19,4.44,4.44,0,0,0,0-.62v-.72l0-5.82c0-3.88.07-7.77.15-11.65C51.56,40.15,51.77,32.38,52.16,24.62Z"/></g></g></svg>