<svg xmlns="http://www.w3.org/2000/svg" viewBox="0 0 314.37 60.46"><defs><style>.cls-1{fill:#fff;}</style></defs><g id="Layer_2" data-name="Layer 2"><g id="Layer_1-2" data-name="Layer 1"><path d="M47.59,5.56a.69.69,0,0,0-.19-.39,1,1,0,0,1,0,.79,4.33,4.33,0,0,1-.3.78c-.23.5-.51,1-.79,1.47-.58,1-1.19,1.89-1.84,2.81-.31.46-.64.92-1,1.37s-.66.9-1,1.34c-.65.84-1.3,1.68-2,2.5l-.47.11V11.16a2.94,2.94,0,0,0-2.94-2.94h-4c1-.47,2.07-.92,3.13-1.29a46.81,46.81,0,0,1,5.15-1.54,15.77,15.77,0,0,1,5.34-.47A16.12,16.12,0,0,0,41.31,5,51,51,0,0,0,36,6.18,44.41,44.41,0,0,0,30.84,8l-.47.2H2.94A2.94,2.94,0,0,0,0,11.16v43a2.94,2.94,0,0,0,2.94,2.94H37.09A2.94,2.94,0,0,0,40,54.19V17.43l.89-.16.18,0,.14-.15c.74-.87,1.48-1.74,2.15-2.67.34-.46.68-.93,1-1.4s.62-1,.92-1.45A24.64,24.64,0,0,0,46.88,8.5a11.78,11.78,0,0,0,.57-1.64A6.19,6.19,0,0,0,47.6,6,2.16,2.16,0,0,0,47.59,5.56Z"/><path class="cls-1" d="M47.4,5.17c-.78-.78-6.47.08-11.07,1.54a54.79,54.79,0,0,0-9.63,4.46l-1.82,4.9c.2-1.54.35-3.8.35-3.8-12.6,8.57-12.74,17.88-12.74,17.88a7.93,7.93,0,0,0-1.56-2.87c-3.29,7.77-1.5,11.06-1.5,11.06a82.72,82.72,0,0,1-5.83,8,41.44,41.44,0,0,1-.43,7.29l2.9-6a1.23,1.23,0,0,1-.13-1.29,1.15,1.15,0,0,1,1.47-.69,1.15,1.15,0,0,1,.48,1.55,1.22,1.22,0,0,1-1.12.77L3.85,54a37.19,37.19,0,0,1,5.88-5.15,31.09,31.09,0,0,1,2.44-8.94,18,18,0,0,0,8.28-3.07l-2-.76a29.78,29.78,0,0,0,11.37-7.19c-.69-.26-6.08-1.36-6.08-1.36,5.27-.22,7.82-.43,8.61-1.15A53.91,53.91,0,0,0,38.85,19c-1.24-.19-6.37-.58-6.37-.58l8.3-2.06C45.52,10.38,48.18,6,47.4,5.17Z"/><path d="M10.37,38.54S20.36,19.93,40,9.68a90.62,90.62,0,0,0-28.7,29.43Z"/><path d="M46.12,15.6a4,4,0,0,1-4,4,4,4,0,0,1,4,4,4,4,0,0,1,4-4A4,4,0,0,1,46.12,15.6Z"/><path class="cls-1" d="M34.39,29.22a1.5,1.5,0,0,1-1.5,1.5,1.5,1.5,0,0,1,1.5,1.5,1.5,1.5,0,0,1,1.5-1.5A1.5,1.5,0,0,1,34.39,29.22Z"/><path d="M37.6,2.08a1.48,1.48,0,0,1,2.08,0,1.48,1.48,0,0,1,0-2.08A1.48,1.48,0,0,1,37.6,0,1.48,1.48,0,0,1,37.6,2.08Z"/><path d="M26.22,7A2.18,2.18,0,0,1,29.3,7,2.18,2.18,0,0,1,29.3,4a2.18,2.18,0,0,1-3.08,0A2.18,2.18,0,0,1,26.22,7Z"/><path d="M42.62,20.88c.32,6.35.49,12.69.6,19,.06,3.17.08,6.35.12,9.52l0,4.76v.6c0,.23,0,.46,0,.68A5.45,5.45,0,0,1,43,56.8,5.67,5.67,0,0,1,41.43,59,5.84,5.84,0,0,1,39,60.29a6.09,6.09,0,0,1-1.35.17h-1.2c-1.58,0-3.17,0-4.75,0-3.18,0-6.35-.06-9.52-.13-6.35-.11-12.69-.27-19-.57,6.35-.31,12.69-.47,19-.58,3.17-.07,6.34-.09,9.52-.13,1.58,0,3.17,0,4.75,0h1.19a4.22,4.22,0,0,0,1-.13,4.29,4.29,0,0,0,1.77-1,4.44,4.44,0,0,0,1.15-1.65,4.07,4.07,0,0,0,.25-1,2.92,2.92,0,0,0,0-.51V54.2l0-4.76c0-3.17.05-6.35.12-9.52C42.14,33.57,42.3,27.23,42.62,20.88Z"/><path d="M57.08,46.69l-.49-8.4h1.28A7.83,7.83,0,0,0,60.4,43.2a7.32,7.32,0,0,0,5,1.81,6.47,6.47,0,0,0,4-1.14,3.52,3.52,0,0,0,1.52-2.95,3.18,3.18,0,0,0-.48-1.78,4.88,4.88,0,0,0-1.81-1.43,33.28,33.28,0,0,0-3.91-1.66A15.06,15.06,0,0,1,59,32.6,6.58,6.58,0,0,1,57.18,28a6.43,6.43,0,0,1,1-3.64,7,7,0,0,1,2.87-2.46A9.61,9.61,0,0,1,65.32,21a10,10,0,0,1,6.1,2.11l.6-1.65h.79l.36,7.12H71.88a8.26,8.26,0,0,0-2.47-4.13A5.8,5.8,0,0,0,65.52,23a5.16,5.16,0,0,0-3.29,1,3.13,3.13,0,0,0-1.29,2.58,2.88,2.88,0,0,0,.44,1.6,4.53,4.53,0,0,0,1.67,1.32A32,32,0,0,0,66.54,31a19.23,19.23,0,0,1,6.63,3.74,6.45,6.45,0,0,1,2,4.73,6.53,6.53,0,0,1-1.25,3.93,8.29,8.29,0,0,1-3.46,2.67,12.94,12.94,0,0,1-5.11,1,11.13,11.13,0,0,1-3.56-.54,11.71,11.71,0,0,1-3.27-1.77l-.66,2Z"/><path d="M79.7,31H77.29V29.55a8.63,8.63,0,0,0,3.3-1.71,7.52,7.52,0,0,0,2-2.61h1.68v4h3.79V31H84.28V41.15A6.55,6.55,0,0,0,84.74,44a1.56,1.56,0,0,0,1.48.87,2.11,2.11,0,0,0,2-1.18l.69,1Q87.95,47,84.51,47A5.38,5.38,0,0,1,81,46a3.64,3.64,0,0,1-1.27-3Z"/><path d="M99.87,28.89a10.5,10.5,0,0,1,3.73.66,9.88,9.88,0,0,1,3.09,1.86,8.84,8.84,0,0,1,2.13,2.84,8.2,8.2,0,0,1,.78,3.58,8.65,8.65,0,0,1-.78,3.69,8.91,8.91,0,0,1-2.13,2.91,9.68,9.68,0,0,1-3.09,1.92,10.28,10.28,0,0,1-3.73.67,10,10,0,0,1-3.67-.67,9.48,9.48,0,0,1-3.07-1.92,8.82,8.82,0,0,1-2.85-6.6,8.22,8.22,0,0,1,1.32-4.62,9.25,9.25,0,0,1,3.49-3.16A10,10,0,0,1,99.87,28.89Zm0,1.91a3.64,3.64,0,0,0-3.21,1.95,9.55,9.55,0,0,0-1.21,5.11,9.78,9.78,0,0,0,1.21,5.21A3.64,3.64,0,0,0,99.87,45a3.74,3.74,0,0,0,3.31-2,9.59,9.59,0,0,0,1.24-5.19,11.1,11.1,0,0,0-.56-3.69,5.74,5.74,0,0,0-1.58-2.48A3.58,3.58,0,0,0,99.87,30.8Z"/><path d="M119.32,40v1.58a10,10,0,0,0,.23,2.49,1.41,1.41,0,0,0,1,1,9.09,9.09,0,0,0,2.27.26v1.32h-11V45.37a6.27,6.27,0,0,0,2-.36,1.4,1.4,0,0,0,.79-1,12,12,0,0,0,.18-2.44v-4c0-1.37,0-2.46-.12-3.28a5.43,5.43,0,0,0-.43-1.88,1.55,1.55,0,0,0-.92-.86,5,5,0,0,0-1.6-.21V30.11l6.6-1.22.52,3.79h.13a7.61,7.61,0,0,1,2.35-2.77,5.2,5.2,0,0,1,3.06-1,3.19,3.19,0,0,1,2,.63,2,2,0,0,1,.79,1.58,2.71,2.71,0,0,1-.61,1.78,2.09,2.09,0,0,1-1.67.73,2,2,0,0,1-1.14-.33c-.31-.22-.61-.44-.87-.66a1.31,1.31,0,0,0-.86-.33,1.51,1.51,0,0,0-1.18.82,7.27,7.27,0,0,0-.93,2.21,17.25,17.25,0,0,0-.42,2.22A18.72,18.72,0,0,0,119.32,40Z"/><path d="M144.24,36.05l-7.55,15.82a6.1,6.1,0,0,1-2.11,2.42,5,5,0,0,1-2.87,1,2.71,2.71,0,0,1-1.74-.52,1.74,1.74,0,0,1-.66-1.42,1.57,1.57,0,0,1,.57-1.29,3.57,3.57,0,0,1,1.87-.56c1.95-.15,3.22-.77,3.79-1.84l.89-1.72-5.84-14.44a12.67,12.67,0,0,0-.87-1.89,1.85,1.85,0,0,0-.87-.81,4.17,4.17,0,0,0-1.35-.23V29.22h10v1.32a4.42,4.42,0,0,0-1.79.25.9.9,0,0,0-.51.9,2.48,2.48,0,0,0,.08.6,4.89,4.89,0,0,0,.21.72l3.36,9.63H139l2.83-6.43c.4-.92.7-1.64.91-2.16a10.44,10.44,0,0,0,.43-1.24,3.71,3.71,0,0,0,.11-.82,1.24,1.24,0,0,0-.48-1.15,4.05,4.05,0,0,0-1.92-.3V29.22h7.94v1.32a3.06,3.06,0,0,0-1.1.18,2.31,2.31,0,0,0-.94.74,11.69,11.69,0,0,0-1.06,1.65C145.3,33.84,144.81,34.81,144.24,36.05Z"/><path d="M166.72,40.53l7.62-19.22H184v1.32a4.71,4.71,0,0,0-2.19.41,2.09,2.09,0,0,0-1,1.48,15.27,15.27,0,0,0-.23,3.09V40.4a14.58,14.58,0,0,0,.26,3.21A1.86,1.86,0,0,0,181.9,45a7.54,7.54,0,0,0,2.43.39v1.32h-12.4V45.37a7.65,7.65,0,0,0,2.46-.39,1.83,1.83,0,0,0,1.07-1.32,13.11,13.11,0,0,0,.26-3V25.2h-.16L166.69,47h-2.44L155.09,25.2H155V40.4a13.85,13.85,0,0,0,.27,3.21A1.84,1.84,0,0,0,156.29,45a7.52,7.52,0,0,0,2.42.39v1.32H148.56V45.37A7.65,7.65,0,0,0,151,45a1.86,1.86,0,0,0,1.08-1.32,11.88,11.88,0,0,0,.28-3V27.38a13.54,13.54,0,0,0-.24-2.91,2.14,2.14,0,0,0-1-1.43,4.81,4.81,0,0,0-2.23-.41V21.31h10l7.68,19.22Z"/><path d="M192,37.53l4.62-2V34.17c0-2.44-.92-3.66-2.74-3.66a2,2,0,0,0-1.45.48,4.66,4.66,0,0,0-1,1.73,2.91,2.91,0,0,1-.82,1.25,2.17,2.17,0,0,1-1.48.49,1.89,1.89,0,0,1-1.44-.54,2.05,2.05,0,0,1-.51-1.47A2.88,2.88,0,0,1,189,29.83a11.21,11.21,0,0,1,5.14-.94q3.76,0,5.34,1.32t1.58,4.48v7.22a6.11,6.11,0,0,0,.28,2.13.94.94,0,0,0,.91.67,1.74,1.74,0,0,0,1.09-.42l.49,1a3.11,3.11,0,0,1-1.42,1.29,4.77,4.77,0,0,1-2.17.49,3,3,0,0,1-2.33-.9,3.87,3.87,0,0,1-.8-2.62H197a6.63,6.63,0,0,1-2.44,2.57,6.54,6.54,0,0,1-3.39.92,5.22,5.22,0,0,1-2.57-.58,3.86,3.86,0,0,1-.78-6.36A14.44,14.44,0,0,1,192,37.53Zm4.62,2.9V37.3a35.49,35.49,0,0,0-3.3,1.74,6.51,6.51,0,0,0-1.75,1.46,2.4,2.4,0,0,0-.53,1.48,1.89,1.89,0,0,0,.56,1.42,2.14,2.14,0,0,0,1.52.52,3.33,3.33,0,0,0,1.72-.46,3.7,3.7,0,0,0,1.28-1.27A3.3,3.3,0,0,0,196.66,40.43Z"/><path d="M207.76,45.54,207,46.69h-1v-6h1.38A7.4,7.4,0,0,0,209,44.14a3.62,3.62,0,0,0,2.73,1.1,3.09,3.09,0,0,0,1.9-.51,1.66,1.66,0,0,0,.67-1.4,2.64,2.64,0,0,0-.82-1.8,10.78,10.78,0,0,0-2.67-1.86A11.86,11.86,0,0,1,207.24,37a4.61,4.61,0,0,1-1.09-3,4.88,4.88,0,0,1,.71-2.64,5,5,0,0,1,1.93-1.81,5.63,5.63,0,0,1,2.73-.66,7.32,7.32,0,0,1,2,.3,5.4,5.4,0,0,1,1.74.82l.6-.79h.85v5h-1.28a8.46,8.46,0,0,0-1.57-2.71,2.64,2.64,0,0,0-2-.82,2.11,2.11,0,0,0-1.47.49,1.7,1.7,0,0,0-.54,1.32,2.45,2.45,0,0,0,.82,1.75A11.74,11.74,0,0,0,213.43,36a13,13,0,0,1,3.83,2.8A4.82,4.82,0,0,1,218.41,42a4.56,4.56,0,0,1-1.63,3.66A6.54,6.54,0,0,1,212.41,47a8.69,8.69,0,0,1-2.64-.38A5.26,5.26,0,0,1,207.76,45.54Z"/><path d="M222.83,31h-2.41V29.55a8.63,8.63,0,0,0,3.3-1.71,7.52,7.52,0,0,0,2-2.61h1.68v4h3.79V31h-3.79V41.15a6.55,6.55,0,0,0,.46,2.89,1.56,1.56,0,0,0,1.49.87,2.1,2.1,0,0,0,1.94-1.18l.69,1Q231.08,47,227.64,47A5.4,5.4,0,0,1,224.1,46a3.64,3.64,0,0,1-1.27-3Z"/><path d="M249.07,42.47l.92,1.16A9.57,9.57,0,0,1,242.51,47a9.7,9.7,0,0,1-4.75-1.12,8.06,8.06,0,0,1-3.18-3.11,9.12,9.12,0,0,1-1.14-4.6,9.41,9.41,0,0,1,1.21-4.83A8.5,8.5,0,0,1,238,30.08a10,10,0,0,1,4.91-1.19,7.45,7.45,0,0,1,5.44,1.9,7,7,0,0,1,1.95,5.26c0,.35-.06.56-.17.64a2.06,2.06,0,0,1-.92.11H238.58a3.25,3.25,0,0,0-.13,1.09,8.4,8.4,0,0,0,1.4,5.09,4.49,4.49,0,0,0,3.81,1.9,6.52,6.52,0,0,0,2.75-.63A10.32,10.32,0,0,0,249.07,42.47ZM238.82,35h4.78a5.78,5.78,0,0,0,1.71-.15c.24-.1.36-.34.36-.71a3.4,3.4,0,0,0-.82-2.37,2.66,2.66,0,0,0-2.08-.93A3.39,3.39,0,0,0,240.25,32,5.71,5.71,0,0,0,238.82,35Z"/><path d="M260,40v1.58a10,10,0,0,0,.23,2.49,1.4,1.4,0,0,0,1,1,9.09,9.09,0,0,0,2.27.26v1.32h-11V45.37a6.2,6.2,0,0,0,2-.36,1.38,1.38,0,0,0,.79-1,11.18,11.18,0,0,0,.19-2.44v-4c0-1.37,0-2.46-.12-3.28a5.67,5.67,0,0,0-.43-1.88,1.58,1.58,0,0,0-.92-.86,5,5,0,0,0-1.6-.21V30.11l6.59-1.22.53,3.79h.13a7.68,7.68,0,0,1,2.34-2.77,5.25,5.25,0,0,1,3.07-1,3.17,3.17,0,0,1,2,.63,1.92,1.92,0,0,1,.79,1.58,2.65,2.65,0,0,1-.61,1.78,2.06,2.06,0,0,1-1.66.73,2,2,0,0,1-1.14-.33q-.48-.33-.87-.66a1.31,1.31,0,0,0-.86-.33,1.5,1.5,0,0,0-1.18.82,7,7,0,0,0-.93,2.21,19.05,19.05,0,0,0-.43,2.22A18.69,18.69,0,0,0,260,40Z"/><path d="M274.32,46.69V45.37a5.43,5.43,0,0,0,2.4-.7,4.06,4.06,0,0,0,1.39-2L286.78,21h2.44l7.88,19.25c.46,1.12.85,2,1.18,2.66a5.22,5.22,0,0,0,1,1.46,2.89,2.89,0,0,0,1.23.69,9.15,9.15,0,0,0,1.83.3v1.35H289.91V45.34a7.71,7.71,0,0,0,2.28-.33,1,1,0,0,0,.69-1,4.46,4.46,0,0,0-.23-1.21c-.16-.49-.37-1.08-.63-1.76l-.76-2h-9.33a15,15,0,0,0-1.55,4.85,1.16,1.16,0,0,0,.75,1.25,6.9,6.9,0,0,0,2.22.26v1.32ZM282.69,37h7.85l-3.79-10h-.14Z"/><path d="M302.6,46.69V45.37a6.43,6.43,0,0,0,2.23-.39,1.83,1.83,0,0,0,1-1.32,14,14,0,0,0,.24-3V27.38a14.73,14.73,0,0,0-.21-2.87,2,2,0,0,0-.89-1.4,4.29,4.29,0,0,0-2-.48V21.31H314v1.32a4.29,4.29,0,0,0-2,.48,2.06,2.06,0,0,0-.89,1.4,14.73,14.73,0,0,0-.21,2.87V40.63a13.23,13.23,0,0,0,.25,3,1.79,1.79,0,0,0,1,1.32,6.32,6.32,0,0,0,2.22.39v1.32Z"/></g></g></svg>