<svg xmlns="http://www.w3.org/2000/svg" viewBox="0 0 208.04 208.04"><defs><style>.cls-1{fill:none;stroke:#000;stroke-linecap:round;stroke-miterlimit:10;stroke-width:6.38px;}</style></defs><g id="Layer_2" data-name="Layer 2"><g id="Layer_1-2" data-name="Layer 1"><circle class="cls-1" cx="104.02" cy="104.02" r="57.88"/><path class="cls-1" d="M38.47,184.24l2.93,2.93a2.32,2.32,0,0,0,3.08.18l12.35-9.7h.8A86.5,86.5,0,0,0,85,188.93a2.31,2.31,0,0,1,1.81,2l1.43,11.9a2.32,2.32,0,0,0,2.3,2h27.65a2.31,2.31,0,0,0,2.3-2l1.45-12.05a2.34,2.34,0,0,1,1.79-2,86.41,86.41,0,0,0,26.89-11.27,2.3,2.3,0,0,1,2.68.13l9.42,7.4a2.32,2.32,0,0,0,3.07-.19l19.55-19.55a2.32,2.32,0,0,0,.19-3.07l-7.5-9.54a2.32,2.32,0,0,1-.13-2.67A86.87,86.87,0,0,0,189,123h0a2.32,2.32,0,0,1,2-1.8l11.88-1.42a2.32,2.32,0,0,0,2-2.31V89.86a2.32,2.32,0,0,0-2-2.31l-12.05-1.44a2.32,2.32,0,0,1-2-1.79A86.22,86.22,0,0,0,177.5,57.45a2.33,2.33,0,0,1,.12-2.69L185,45.33a2.32,2.32,0,0,0-.19-3.07L165.3,22.71a2.32,2.32,0,0,0-3.07-.19L152.67,30a2.32,2.32,0,0,1-2.67.13A86.71,86.71,0,0,0,123,19.1a2.33,2.33,0,0,1-1.81-2L119.81,5.23a2.32,2.32,0,0,0-2.31-2H89.86a2.32,2.32,0,0,0-2.31,2l-1.44,12a2.32,2.32,0,0,1-1.8,2A86.49,86.49,0,0,0,57.43,30.52a2.32,2.32,0,0,1-2.68-.12L45.33,23a2.32,2.32,0,0,0-3.07.19L22.71,42.74a2.32,2.32,0,0,0-.19,3.07L30,55.35A2.32,2.32,0,0,1,30.15,58,86.76,86.76,0,0,0,19.09,85a2.32,2.32,0,0,1-2,1.82L5.23,88.23a2.32,2.32,0,0,0-2,2.3v27.65a2.31,2.31,0,0,0,2,2.3L17,121.9a2.33,2.33,0,0,1,2,1.83,76.57,76.57,0,0,0,11,26,3.55,3.55,0,0,1-.43,3.69L21.18,164a2.34,2.34,0,0,0,.18,3.09l2.93,2.93"/><path class="cls-1" d="M109.42,128.1,79.27,98a2.32,2.32,0,0,1,0-3.24C83.78,90,98.76,77.26,125.48,81.25a2.28,2.28,0,0,1,1.91,1.87c1.08,6,3.4,27.58-14.71,45A2.34,2.34,0,0,1,109.42,128.1Z"/><line class="cls-1" x1="94.23" y1="112.91" x2="30.88" y2="177.65"/><circle class="cls-1" cx="107.03" cy="101.35" r="1.76"/></g></g></svg>