<svg xmlns="http://www.w3.org/2000/svg" viewBox="0 0 82.08 85.06"><g id="Layer_2" data-name="Layer 2"><g id="Layer_1-2" data-name="Layer 1"><path d="M5,85.06S4.9,85,4.86,85a1.78,1.78,0,0,1-1.36-1.8c0-.83,0-1.66,0-2.48a1.78,1.78,0,0,1,1.82-1.82c1.26,0,2.52,0,3.78,0h.48V64.64c0-1,.28-1.27,1.26-1.27H23.09c.95,0,1.25.29,1.25,1.24V78.85H27.2v-23c0-.95.28-1.23,1.21-1.23H40.77c.89,0,1.17.29,1.17,1.18Q42,67,42,78.31v.54h2.43V42.57a.92.92,0,0,1,1-1H57.84c1,0,1.3.28,1.3,1.31V78.85h2.08V32.44c0-.67.19-1,.69-1.12a1.83,1.83,0,0,1,.47,0H74.74c1,0,1.23.27,1.23,1.2V78.86l.45,0h3.7a1.79,1.79,0,0,1,1.93,1.84q0,1.27,0,2.55a1.85,1.85,0,0,1-1.54,1.79ZM63,33.09V78.86H74.15V33.09ZM57.32,78.86V43.44H46.2V78.86ZM29,56.38V78.85H40.13V56.38ZM80.24,80.7H5.33v2.53H80.24ZM11.39,78.85H22.51V65.2H11.39Z"/><path d="M43.66,32.62c-.27.23-.51.43-.74.64a2,2,0,0,1-1.32.54.35.35,0,0,0-.26.15c-1,2.44-3,3.52-5.42,4a23.48,23.48,0,0,1-5.68.3c-.3,0-.6,0-.9-.05-.62,0-1-.38-.89-1,.13-1.23.27-2.47.49-3.7a15,15,0,0,1,1.54-4.6,5.87,5.87,0,0,1,3.78-2.92c.21-.05.33-.1.37-.36a1.86,1.86,0,0,1,.79-1.22c.21-.17.42-.35.65-.56l-1-1.15a.92.92,0,0,1,.12-1.52,1.67,1.67,0,0,0,.68-1,2.77,2.77,0,0,1,.6-.95c.18-.24.4-.44.6-.66L37,18.44c-.58.28-1.19.53-1.74.86s-1.23.8-1.83,1.23a1,1,0,0,1-1.56-.16c-.21-.24-.41-.48-.62-.71-.49-.57-.54-.94-.07-1.5,1.14-1.37,2.26-2.77,3.5-4.05a15.43,15.43,0,0,1,5.75-3.82,8,8,0,0,1,5.17-.19.78.78,0,0,0,.81-.15,60.65,60.65,0,0,1,10.4-7A27.05,27.05,0,0,1,64.07.29a13.17,13.17,0,0,1,6.3.19,2.29,2.29,0,0,1,1.95,2.39,15.14,15.14,0,0,1-1.94,8.72,36,36,0,0,1-5.79,8.06c-1.61,1.73-3.32,3.36-5,5a.65.65,0,0,0-.2.46A9.12,9.12,0,0,1,57,32.54a24.4,24.4,0,0,1-7.83,5.91.89.89,0,0,1-1.26-.26c-.26-.29-.52-.59-.77-.9a1,1,0,0,1,.07-1.42c.77-.87,1.51-1.78,2.26-2.67a2.77,2.77,0,0,0,.22-.37s0,0,0-.1a11.48,11.48,0,0,1-1.2.81,6.93,6.93,0,0,1-1.06.35,1.33,1.33,0,0,0-.47.21c-1,.87-1.27.86-2.14-.15ZM58.75,4a59,59,0,0,0-10.92,7.14l.27.2c.81.59.84,1.13.08,1.78-1.67,1.43-3.37,2.84-5,4.32-.67.6-1.31,1-2.22.57a.3.3,0,0,0-.16,0c-.23,0-.53-.06-.67.06-.48.4-.9.86-1.35,1.31L48.86,31.08a10.21,10.21,0,0,1,1.28-.92,1.48,1.48,0,0,0,.74-1.78l0-.12a1,1,0,0,1,.37-1.05l1.11-.94q2.31-2,4.63-4a.92.92,0,0,1,1.57.32c.06.13.13.25.21.41a56.26,56.26,0,0,0,8.33-9.37,23,23,0,0,1-4.79-4.27A23.18,23.18,0,0,1,58.75,4Zm1.7-.71c.88,2.64,5.23,7.69,7.6,8.83a19.49,19.49,0,0,0,2.23-5.3,10.42,10.42,0,0,0,.19-4,.51.51,0,0,0-.41-.48,10.89,10.89,0,0,0-4.43-.37A20.52,20.52,0,0,0,60.45,3.27ZM30.22,36.47h1.25a18.47,18.47,0,0,0,5.33-.62,4.29,4.29,0,0,0,3-2.91.46.46,0,0,0-.06-.38q-2.07-2.43-4.16-4.83a.4.4,0,0,0-.32-.16,4.37,4.37,0,0,0-2.77,1.5A9.25,9.25,0,0,0,31,32.67C30.69,33.89,30.48,35.12,30.22,36.47ZM57.33,24.34c-1.54,1.31-3,2.59-4.51,3.88a.41.41,0,0,0-.12.3,9.6,9.6,0,0,1-1.77,5.73c-.46.69-1,1.33-1.49,2a31.78,31.78,0,0,0,3.12-2,14.47,14.47,0,0,0,4.28-4.66A6.26,6.26,0,0,0,57.33,24.34Zm-11-12a5.59,5.59,0,0,0-2.47-.73,8.28,8.28,0,0,0-5.09,1.57A21.87,21.87,0,0,0,33.58,18c-.06.07-.11.16-.23.33.58-.32,1.06-.61,1.55-.87a10.06,10.06,0,0,1,6.6-1.2.53.53,0,0,0,.4-.15c.75-.63,1.48-1.27,2.21-1.9ZM47,31.67,37.94,21.14l-1,.89L46,32.56ZM36.39,25.9,41.62,32l.87-.74-5.24-6.09Z"/><path d="M8.76,53.24a3.37,3.37,0,0,0,.32-.19L28.62,40.53a1,1,0,0,1,1.17-.14.9.9,0,0,1,0,1.54c-.71.47-1.43.92-2.15,1.38L1.69,59.93a2.32,2.32,0,0,1-.58.31.86.86,0,0,1-1-.4.93.93,0,0,1,.16-1.12C.86,58.15,1.46,57.6,2.05,57L25.46,34.87a.94.94,0,0,1,1.16-.3.83.83,0,0,1,.48.9,1.57,1.57,0,0,1-.4.68c-2.54,2.42-5.08,4.82-7.63,7.23L9,53l-.24.21Z"/><path d="M54.52,12.43a3.68,3.68,0,0,1,3.73-3.68,3.7,3.7,0,1,1-3.73,3.68Zm3.69,1.91a1.9,1.9,0,1,0-1.89-1.88A1.86,1.86,0,0,0,58.21,14.34Z"/></g></g></svg>